<svg width="16" height="16" viewBox="0 0 16 16" fill="none" xmlns="http://www.w3.org/2000/svg">
<path d="M7.99997 4.5V8.2058" stroke="white" stroke-linecap="round" stroke-linejoin="round"/>
<path d="M8.82395 10.6671C8.82395 10.8855 8.73718 11.0949 8.58274 11.2494C8.42829 11.4038 8.21882 11.4906 8.0004 11.4906C7.78198 11.4906 7.57251 11.4038 7.41806 11.2494C7.26362 11.0949 7.17685 10.8855 7.17685 10.6671C7.17685 10.4486 7.26362 10.2392 7.41806 10.0847C7.57251 9.93027 7.78198 9.84351 8.0004 9.84351C8.21882 9.84351 8.42829 9.93027 8.58274 10.0847C8.73718 10.2392 8.82395 10.4486 8.82395 10.6671Z" fill="white"/>
<path d="M7.99999 15C11.866 15 15 11.866 15 8C15 4.13401 11.866 1 8 1C4.13401 1 1 4.13401 1 8C1 11.866 4.134 15 7.99999 15Z" stroke="white"/>
</svg>
