<svg width="16" height="16" viewBox="0 0 16 16" fill="none" xmlns="http://www.w3.org/2000/svg">
<path d="M8 4.5V8.2058" stroke="#940000" stroke-linecap="round" stroke-linejoin="round"/>
<path d="M8.82434 10.6671C8.82434 10.8855 8.73758 11.0949 8.58313 11.2494C8.42869 11.4038 8.21921 11.4906 8.0008 11.4906C7.78238 11.4906 7.5729 11.4038 7.41846 11.2494C7.26401 11.0949 7.17725 10.8855 7.17725 10.6671C7.17725 10.4486 7.26401 10.2392 7.41846 10.0847C7.5729 9.93027 7.78238 9.84351 8.0008 9.84351C8.21921 9.84351 8.42869 9.93027 8.58313 10.0847C8.73758 10.2392 8.82434 10.4486 8.82434 10.6671Z" fill="#940000"/>
<path d="M7.99999 15C11.866 15 15 11.866 15 8C15 4.13401 11.866 1 8 1C4.13401 1 1 4.13401 1 8C1 11.866 4.134 15 7.99999 15Z" stroke="#940000"/>
</svg>
