<svg width="34" height="35" viewBox="0 0 34 35" fill="none" xmlns="http://www.w3.org/2000/svg">
<path d="M30.5401 23.6274L25.7776 23.0837C24.6338 22.9524 23.5088 23.3462 22.7026 24.1524L19.2526 27.6024C13.9463 24.9024 9.59634 20.5712 6.89634 15.2462L10.3651 11.7774C11.1713 10.9712 11.5651 9.84619 11.4338 8.70244L10.8901 3.97744C10.6651 2.08369 9.07134 0.658691 7.15884 0.658691H3.91509C1.79634 0.658691 0.0338409 2.42119 0.165091 4.53994C1.15884 20.5524 13.9651 33.3399 29.9588 34.3337C32.0776 34.4649 33.8401 32.7024 33.8401 30.5837V27.3399C33.8588 25.4462 32.4338 23.8524 30.5401 23.6274Z" fill="#A7B3CD"/>
</svg>
