<svg width="73" height="55" viewBox="0 0 73 55" fill="none" xmlns="http://www.w3.org/2000/svg">
<path d="M22.2975 51.8178V35.9066H34.6887V51.8178C34.6887 53.568 36.0827 55 37.7865 55H47.0799C48.7837 55 50.1777 53.568 50.1777 51.8178V29.5422H55.444C56.869 29.5422 57.5505 27.7283 56.4663 26.7736L30.5686 2.81147C29.3915 1.72951 27.5948 1.72951 26.4176 2.81147L0.519972 26.7736C-0.53328 27.7283 0.117258 29.5422 1.54225 29.5422H6.80851V51.8178C6.80851 53.568 8.20252 55 9.90631 55H19.1997C20.9035 55 22.2975 53.568 22.2975 51.8178Z" fill="#007DFF"/>
<path d="M22.2975 35.4066H21.7975V35.9066V51.8178C21.7975 53.3046 20.6148 54.5 19.1997 54.5H9.90631C8.49125 54.5 7.30851 53.3046 7.30851 51.8178V29.5422V29.0422H6.80851H1.54225C0.608135 29.0422 0.1164 27.8143 0.855762 27.1441L0.85578 27.1441L0.859546 27.1406L26.7559 3.17959C26.7561 3.17948 26.7562 3.17936 26.7563 3.17925C27.7421 2.27358 29.2442 2.27358 30.2299 3.17925C30.23 3.17936 30.2302 3.17948 30.2303 3.17959L56.1267 27.1406L56.1266 27.1408L56.1358 27.1489C56.8812 27.8052 56.3986 29.0422 55.444 29.0422H50.1777H49.6777V29.5422V51.8178C49.6777 53.3046 48.495 54.5 47.0799 54.5H37.7865C36.3715 54.5 35.1887 53.3046 35.1887 51.8178V35.9066V35.4066H34.6887H22.2975Z" stroke="white" stroke-opacity="0.1"/>
<path d="M64 5H62V9H58V11H62V15H64V11H68V9H64V5ZM63 0C57.48 0 53 4.48 53 10C53 15.52 57.48 20 63 20C68.52 20 73 15.52 73 10C73 4.48 68.52 0 63 0ZM63 18C58.59 18 55 14.41 55 10C55 5.59 58.59 2 63 2C67.41 2 71 5.59 71 10C71 14.41 67.41 18 63 18Z" fill="#007DFF"/>
</svg>
