<svg width="199" height="135" viewBox="0 0 199 135" fill="none" xmlns="http://www.w3.org/2000/svg">
<path d="M191.843 128.153H190.496L190.366 121.098H191.966L191.843 128.153ZM191.166 131.092C190.997 131.092 190.838 131.046 190.688 130.955C190.537 130.864 190.419 130.746 190.332 130.6C190.245 130.449 190.202 130.288 190.202 130.115C190.202 129.946 190.245 129.786 190.332 129.636C190.419 129.486 190.537 129.369 190.688 129.287C190.838 129.201 190.997 129.157 191.166 129.157C191.339 129.157 191.499 129.201 191.645 129.287C191.795 129.369 191.913 129.486 192 129.636C192.091 129.786 192.137 129.946 192.137 130.115C192.137 130.288 192.091 130.449 192 130.6C191.913 130.746 191.795 130.864 191.645 130.955C191.499 131.046 191.339 131.092 191.166 131.092Z" fill="black"/>
<path d="M181.575 129.786H180.297V126.198H181.575V129.786ZM186.142 129.786H184.836V126.198H186.142V129.786ZM188.821 130.627H177.61V129.554H188.821V130.627ZM183.195 120.613C184.07 120.613 184.85 120.747 185.533 121.016C186.217 121.28 186.75 121.656 187.133 122.144C187.52 122.627 187.714 123.183 187.714 123.812C187.714 124.445 187.52 125.004 187.133 125.487C186.75 125.965 186.217 126.339 185.533 126.608C184.85 126.872 184.07 127.004 183.195 127.004C182.325 127.004 181.546 126.872 180.857 126.608C180.174 126.339 179.638 125.965 179.251 125.487C178.864 125.004 178.67 124.445 178.67 123.812C178.67 123.183 178.864 122.627 179.251 122.144C179.638 121.656 180.174 121.28 180.857 121.016C181.546 120.747 182.325 120.613 183.195 120.613ZM183.195 121.665C182.557 121.661 181.992 121.747 181.5 121.925C181.012 122.098 180.63 122.349 180.352 122.677C180.078 123.001 179.941 123.379 179.941 123.812C179.941 124.245 180.078 124.625 180.352 124.953C180.63 125.281 181.015 125.537 181.507 125.719C181.999 125.901 182.562 125.992 183.195 125.992C183.824 125.992 184.385 125.901 184.877 125.719C185.369 125.537 185.754 125.281 186.032 124.953C186.31 124.625 186.449 124.245 186.449 123.812C186.449 123.379 186.31 123.001 186.032 122.677C185.759 122.349 185.376 122.098 184.884 121.925C184.392 121.747 183.829 121.661 183.195 121.665Z" fill="black"/>
<path d="M167.445 122.663H171.027V120.906H172.326V126.464H166.16V120.906H167.445V122.663ZM171.027 125.418V123.661H167.445V125.418H171.027ZM169.899 128.918H168.594V126.122H169.899V128.918ZM175.067 132.152H173.775V119.902H175.067V132.152ZM176.954 126.054H174.698V124.967H176.954V126.054ZM165.6 128.631C167.208 128.622 168.587 128.599 169.735 128.563C170.884 128.522 171.984 128.428 173.037 128.282L173.119 129.246C172.322 129.378 171.488 129.476 170.617 129.54C169.747 129.604 168.92 129.647 168.136 129.67C167.357 129.693 166.497 129.709 165.559 129.718L165.36 128.631H165.6Z" fill="black"/>
<path d="M153.315 120.824C153.917 120.824 154.45 121.002 154.915 121.358C155.385 121.713 155.751 122.214 156.016 122.862C156.28 123.509 156.412 124.263 156.412 125.124C156.412 125.99 156.28 126.747 156.016 127.394C155.751 128.041 155.385 128.542 154.915 128.898C154.45 129.249 153.917 129.424 153.315 129.424C152.714 129.424 152.176 129.249 151.702 128.898C151.233 128.547 150.866 128.048 150.602 127.401C150.337 126.749 150.205 125.99 150.205 125.124C150.205 124.263 150.337 123.509 150.602 122.862C150.866 122.214 151.233 121.713 151.702 121.358C152.176 121.002 152.714 120.824 153.315 120.824ZM153.315 121.987C152.951 121.987 152.625 122.114 152.338 122.369C152.051 122.625 151.83 122.989 151.675 123.463C151.524 123.933 151.449 124.486 151.449 125.124C151.449 125.758 151.524 126.311 151.675 126.785C151.83 127.259 152.051 127.624 152.338 127.879C152.625 128.13 152.951 128.255 153.315 128.255C153.68 128.255 154.006 128.13 154.293 127.879C154.58 127.624 154.801 127.259 154.956 126.785C155.111 126.311 155.189 125.758 155.189 125.124C155.189 124.486 155.109 123.933 154.949 123.463C154.794 122.989 154.576 122.625 154.293 122.369C154.015 122.114 153.689 121.987 153.315 121.987ZM160.213 132.186H158.921V119.902H160.213V132.186ZM159.488 125.562H156.002V124.502H159.488V125.562Z" fill="black"/>
<path d="M145.194 126.15H138.851V125.09H145.194V126.15ZM142.61 128.699H141.318V125.931H142.61V128.699ZM145.14 122.089H140.129V125.459H138.851V121.05H145.14V122.089ZM148.024 132.186H146.732V119.902H148.024V132.186ZM137.955 128.501C139.454 128.506 140.87 128.488 142.2 128.447C143.536 128.401 144.789 128.312 145.96 128.18L146.056 129.144C145.217 129.262 144.344 129.353 143.438 129.417C142.535 129.481 141.667 129.524 140.833 129.547C139.999 129.57 139.097 129.581 138.126 129.581L137.955 128.501Z" fill="black"/>
<path d="M131.919 132.145H130.627V119.902H131.919V132.145ZM133.819 125.876H131.584V124.796H133.819V125.876ZM128.713 121.2C128.713 122.426 128.522 123.573 128.139 124.639C127.76 125.701 127.154 126.681 126.32 127.578C125.491 128.472 124.422 129.242 123.114 129.889L122.39 128.877C123.515 128.312 124.452 127.66 125.199 126.922C125.947 126.179 126.507 125.352 126.881 124.441C127.255 123.525 127.441 122.52 127.441 121.426V121.2H128.713ZM128.098 122.281H122.991V121.2H128.098V122.281Z" fill="black"/>
<path d="M114.289 123.518C114.289 124.384 114.139 125.24 113.838 126.088C113.542 126.931 113.129 127.681 112.601 128.337C112.072 128.993 111.48 129.486 110.823 129.814L110.044 128.795C110.655 128.499 111.204 128.068 111.691 127.503C112.179 126.934 112.562 126.3 112.84 125.603C113.122 124.901 113.264 124.206 113.264 123.518V121.699H114.289V123.518ZM114.549 123.518C114.549 124.165 114.679 124.817 114.939 125.473C115.203 126.125 115.572 126.719 116.046 127.257C116.524 127.795 117.067 128.205 117.673 128.488L116.941 129.506C116.276 129.192 115.684 128.722 115.164 128.098C114.645 127.469 114.239 126.756 113.947 125.958C113.66 125.156 113.517 124.343 113.517 123.518V121.699H114.549V123.518ZM117.208 122.212H110.502V121.146H117.208V122.212ZM119.819 132.152H118.527V119.902H119.819V132.152ZM121.795 125.863H119.525V124.769H121.795V125.863Z" fill="black"/>
<path d="M108.328 132.186H107.023V119.902H108.328V132.186ZM100.152 124.078H103.461V120.927H104.732V129.253H98.8604V120.927H100.152V124.078ZM103.461 128.18V125.104H100.152V128.18H103.461Z" fill="black"/>
<path d="M97.2882 130.6H86.0772V129.547H97.2882V130.6ZM92.2637 129.868H90.9786V126.615H92.2637V129.868ZM92.0723 121.611C92.0723 122.454 91.8422 123.242 91.3819 123.976C90.9216 124.71 90.3064 125.327 89.5362 125.828C88.766 126.325 87.9298 126.662 87.0274 126.84L86.46 125.767C87.2439 125.635 87.9776 125.361 88.6612 124.947C89.3493 124.532 89.8985 124.031 90.3087 123.443C90.7234 122.855 90.9307 122.244 90.9307 121.611V120.701H92.0723V121.611ZM92.2979 121.611C92.2979 122.249 92.5053 122.862 92.92 123.449C93.3393 124.033 93.893 124.532 94.5811 124.947C95.2738 125.361 96.0121 125.635 96.796 125.767L96.2286 126.84C95.3217 126.658 94.4831 126.321 93.713 125.828C92.9428 125.332 92.3275 124.719 91.8673 123.99C91.4115 123.26 91.1837 122.467 91.1837 121.611V120.701H92.2979V121.611Z" fill="black"/>
<path d="M80.1846 129.082H78.8926V119.915H80.1846V129.082ZM81.9688 124.933H79.7882V123.86H81.9688V124.933ZM77.8673 122.383H70.5733V121.344H77.8673V122.383ZM74.2237 122.978C74.807 122.978 75.322 123.073 75.7686 123.265C76.2198 123.456 76.5707 123.727 76.8214 124.078C77.072 124.429 77.1973 124.835 77.1973 125.295C77.1973 125.751 77.072 126.152 76.8214 126.498C76.5707 126.84 76.2198 127.107 75.7686 127.298C75.322 127.49 74.807 127.585 74.2237 127.585C73.6404 127.585 73.1208 127.49 72.6651 127.298C72.2139 127.107 71.863 126.84 71.6124 126.498C71.3663 126.152 71.2432 125.751 71.2432 125.295C71.2432 124.835 71.3663 124.429 71.6124 124.078C71.863 123.727 72.2139 123.456 72.6651 123.265C73.1208 123.073 73.6404 122.978 74.2237 122.978ZM74.2237 123.99C73.8819 123.99 73.5788 124.042 73.3145 124.147C73.0502 124.247 72.8474 124.397 72.7061 124.598C72.5648 124.798 72.4942 125.031 72.4942 125.295C72.4942 125.559 72.5648 125.787 72.7061 125.979C72.8474 126.17 73.0502 126.318 73.3145 126.423C73.5788 126.523 73.8819 126.573 74.2237 126.573C74.5655 126.573 74.8686 126.523 75.1329 126.423C75.4018 126.318 75.6091 126.17 75.755 125.979C75.9008 125.787 75.9737 125.559 75.9737 125.295C75.9737 125.031 75.9008 124.798 75.755 124.598C75.6091 124.397 75.4018 124.247 75.1329 124.147C74.8686 124.042 74.5655 123.99 74.2237 123.99ZM74.8731 121.87H73.5811V119.908H74.8731V121.87ZM80.7042 131.912H72.4258V130.839H80.7042V131.912ZM73.711 131.283H72.4258V128.365H73.711V131.283Z" fill="black"/>
<path d="M69.63 127.086H58.46V126.033H69.63V127.086ZM64.7149 126.491H63.4092V124.277H64.7149V126.491ZM68.2012 132.234H66.9092V129.356H59.67V128.31H68.2012V132.234ZM68.6387 124.502H64.4005V123.456H68.6387V124.502ZM68.5635 121.44H65.7061V123.846H64.4005V120.401H68.5635V121.44ZM63.6827 121.44H60.7979V123.846H59.4923V120.401H63.6827V121.44ZM60.1964 123.47C60.8754 123.475 61.502 123.454 62.0762 123.408C62.6505 123.363 63.2361 123.281 63.8331 123.162L63.9698 124.188C63.3546 124.315 62.7598 124.4 62.1856 124.441C61.616 124.482 60.9529 124.502 60.1964 124.502H59.4923V123.47H60.1964Z" fill="black"/>
<path d="M57.5303 127.086H46.3604V126.033H57.5303V127.086ZM52.6153 126.491H51.3096V124.277H52.6153V126.491ZM56.1016 132.234H54.8096V129.356H47.5704V128.31H56.1016V132.234ZM56.5391 124.502H52.3008V123.456H56.5391V124.502ZM56.4639 121.44H53.6065V123.846H52.3008V120.401H56.4639V121.44ZM51.5831 121.44H48.6983V123.846H47.3926V120.401H51.5831V121.44ZM48.0967 123.47C48.7758 123.475 49.4024 123.454 49.9766 123.408C50.5508 123.363 51.1365 123.281 51.7335 123.162L51.8702 124.188C51.255 124.315 50.6602 124.4 50.086 124.441C49.5163 124.482 48.8533 124.502 48.0967 124.502H47.3926V123.47H48.0967Z" fill="black"/>
<path d="M193.415 102.985H187.338V101.939H193.415V102.985ZM190.387 103.716C190.902 103.716 191.36 103.837 191.761 104.078C192.166 104.315 192.483 104.648 192.711 105.076C192.939 105.505 193.053 105.995 193.053 106.546C193.053 107.093 192.939 107.583 192.711 108.016C192.483 108.444 192.166 108.781 191.761 109.028C191.36 109.274 190.902 109.397 190.387 109.397C189.876 109.397 189.418 109.274 189.013 109.028C188.612 108.781 188.297 108.442 188.069 108.009C187.846 107.576 187.734 107.088 187.734 106.546C187.734 106.004 187.846 105.516 188.069 105.083C188.297 104.65 188.612 104.315 189.013 104.078C189.418 103.837 189.876 103.716 190.387 103.716ZM190.387 104.803C190.1 104.803 189.84 104.878 189.607 105.029C189.38 105.174 189.202 105.379 189.074 105.644C188.947 105.904 188.883 106.204 188.883 106.546C188.883 106.883 188.947 107.184 189.074 107.448C189.206 107.713 189.386 107.916 189.614 108.057C189.842 108.198 190.1 108.269 190.387 108.269C190.678 108.269 190.938 108.198 191.166 108.057C191.398 107.916 191.581 107.713 191.713 107.448C191.845 107.184 191.911 106.883 191.911 106.546C191.911 106.204 191.845 105.904 191.713 105.644C191.581 105.379 191.398 105.174 191.166 105.029C190.938 104.878 190.678 104.803 190.387 104.803ZM197.852 112.152H196.614V99.9016H197.852V112.152ZM197.024 106.068H194.782V105.008H197.024V106.068ZM195.206 111.577H193.982V100.189H195.206V111.577ZM191.036 102.588H189.751V100.264H191.036V102.588Z" fill="black"/>
<path d="M185.424 108.823H184.132V99.9153H185.424V108.823ZM185.793 111.912H177.419V110.839H185.793V111.912ZM178.718 111.229H177.419V107.92H178.718V111.229ZM178.779 100.742C179.39 100.742 179.944 100.872 180.44 101.132C180.942 101.387 181.334 101.747 181.616 102.212C181.899 102.672 182.04 103.194 182.04 103.778C182.04 104.37 181.899 104.896 181.616 105.357C181.334 105.817 180.942 106.177 180.44 106.437C179.944 106.697 179.39 106.826 178.779 106.826C178.169 106.826 177.615 106.697 177.118 106.437C176.626 106.177 176.236 105.817 175.949 105.357C175.662 104.896 175.519 104.37 175.519 103.778C175.519 103.194 175.662 102.672 175.949 102.212C176.236 101.747 176.626 101.387 177.118 101.132C177.615 100.872 178.169 100.742 178.779 100.742ZM178.779 101.877C178.406 101.877 178.066 101.957 177.761 102.116C177.455 102.276 177.216 102.499 177.043 102.786C176.874 103.073 176.79 103.404 176.79 103.778C176.79 104.151 176.874 104.484 177.043 104.776C177.216 105.067 177.455 105.293 177.761 105.452C178.066 105.612 178.406 105.692 178.779 105.692C179.153 105.692 179.49 105.612 179.791 105.452C180.092 105.293 180.329 105.067 180.502 104.776C180.675 104.484 180.762 104.151 180.762 103.778C180.762 103.404 180.675 103.073 180.502 102.786C180.329 102.499 180.092 102.276 179.791 102.116C179.49 101.957 179.153 101.877 178.779 101.877Z" fill="black"/>
<path d="M167.575 107.237H166.29V105.61H167.575V107.237ZM172.812 108.166H171.506V99.9153H172.812V108.166ZM174.555 104.632H172.299V103.559H174.555V104.632ZM163.282 106.806C164.709 106.806 166.044 106.781 167.288 106.731C168.537 106.681 169.71 106.583 170.809 106.437L170.918 107.353C169.76 107.553 168.566 107.685 167.336 107.749C166.11 107.809 164.741 107.838 163.228 107.838L163.084 106.806H163.282ZM172.812 112.152H171.506V109.759H164.602V108.734H172.812V112.152ZM170.46 101.925H163.392V100.961H170.46V101.925ZM166.919 102.335C167.507 102.335 168.02 102.408 168.457 102.554C168.895 102.7 169.234 102.909 169.476 103.183C169.722 103.452 169.845 103.773 169.845 104.147C169.845 104.511 169.722 104.833 169.476 105.111C169.234 105.389 168.895 105.603 168.457 105.753C168.02 105.904 167.507 105.979 166.919 105.979C166.34 105.979 165.83 105.904 165.388 105.753C164.95 105.603 164.611 105.389 164.369 105.111C164.128 104.833 164.007 104.511 164.007 104.147C164.007 103.773 164.128 103.452 164.369 103.183C164.611 102.909 164.95 102.7 165.388 102.554C165.83 102.408 166.34 102.335 166.919 102.335ZM166.919 103.231C166.577 103.222 166.281 103.254 166.03 103.326C165.78 103.399 165.586 103.504 165.449 103.641C165.313 103.778 165.244 103.946 165.244 104.147C165.244 104.334 165.313 104.5 165.449 104.646C165.586 104.787 165.78 104.896 166.03 104.974C166.281 105.047 166.577 105.083 166.919 105.083C167.27 105.083 167.568 105.047 167.815 104.974C168.065 104.896 168.259 104.787 168.396 104.646C168.532 104.5 168.601 104.334 168.601 104.147C168.601 103.946 168.532 103.778 168.396 103.641C168.259 103.504 168.065 103.399 167.815 103.326C167.568 103.254 167.27 103.222 166.919 103.231ZM167.575 101.44H166.29V99.8059H167.575V101.44Z" fill="black"/>
<path d="M151.976 110.06H150.704V107.066H151.976V110.06ZM155.92 110.039H154.648V107.045H155.92V110.039ZM158.859 110.689H147.648V109.615H158.859V110.689ZM157.485 104.598H150.308V106.949H149.016V103.545H156.207V101.836H148.995V100.777H157.485V104.598ZM157.773 107.435H149.016V106.375H157.773V107.435Z" fill="black"/>
<path d="M141.606 100.982C141.606 101.738 141.382 102.435 140.936 103.073C140.489 103.712 139.883 104.242 139.117 104.666C138.356 105.086 137.518 105.368 136.602 105.514L136.082 104.468C136.875 104.363 137.607 104.138 138.276 103.791C138.946 103.445 139.477 103.026 139.869 102.533C140.266 102.041 140.464 101.524 140.464 100.982V100.319H141.606V100.982ZM141.811 100.982C141.811 101.519 142.009 102.037 142.405 102.533C142.806 103.026 143.344 103.445 144.019 103.791C144.698 104.138 145.429 104.363 146.213 104.468L145.7 105.514C144.78 105.368 143.939 105.083 143.178 104.659C142.417 104.236 141.811 103.705 141.359 103.067C140.908 102.429 140.683 101.734 140.683 100.982V100.319H141.811V100.982ZM141.749 112.152H140.471V107.537H141.749V112.152ZM146.719 107.804H135.549V106.724H146.719V107.804Z" fill="black"/>
<path d="M129.506 100.982C129.506 101.738 129.283 102.435 128.836 103.073C128.389 103.712 127.783 104.242 127.018 104.666C126.257 105.086 125.418 105.368 124.502 105.514L123.982 104.468C124.775 104.363 125.507 104.138 126.177 103.791C126.847 103.445 127.378 103.026 127.77 102.533C128.166 102.041 128.364 101.524 128.364 100.982V100.319H129.506V100.982ZM129.711 100.982C129.711 101.519 129.909 102.037 130.306 102.533C130.707 103.026 131.245 103.445 131.919 103.791C132.598 104.138 133.329 104.363 134.113 104.468L133.601 105.514C132.68 105.368 131.839 105.083 131.078 104.659C130.317 104.236 129.711 103.705 129.26 103.067C128.809 102.429 128.583 101.734 128.583 100.982V100.319H129.711V100.982ZM129.649 112.152H128.371V107.537H129.649V112.152ZM134.619 107.804H123.449V106.724H134.619V107.804Z" fill="black"/>
<path d="M121.843 112.152H120.585V99.9016H121.843V112.152ZM121.016 105.808H118.712V104.748H121.016V105.808ZM116.648 101.474C116.648 102.609 116.502 103.664 116.21 104.639C115.923 105.614 115.442 106.521 114.768 107.36C114.093 108.194 113.193 108.927 112.067 109.561L111.309 108.658C112.293 108.102 113.086 107.469 113.688 106.758C114.294 106.047 114.731 105.275 115 104.441C115.274 103.607 115.41 102.695 115.41 101.706V101.474H116.648ZM115.814 102.527H111.828V101.474H115.814V102.527ZM119.081 111.571H117.857V100.23H119.081V111.571Z" fill="black"/>
<path d="M105.464 108.173H104.192V106.027H105.464V108.173ZM110.42 106.635H99.2501V105.582H110.42V106.635ZM104.828 107.79C105.712 107.79 106.469 107.875 107.098 108.043C107.731 108.212 108.217 108.46 108.554 108.788C108.891 109.116 109.06 109.513 109.06 109.978C109.06 110.434 108.891 110.821 108.554 111.14C108.217 111.463 107.731 111.71 107.098 111.878C106.469 112.051 105.712 112.138 104.828 112.138C103.944 112.138 103.183 112.051 102.545 111.878C101.907 111.71 101.419 111.463 101.082 111.14C100.745 110.821 100.576 110.434 100.576 109.978C100.576 109.513 100.745 109.116 101.082 108.788C101.419 108.46 101.907 108.212 102.545 108.043C103.183 107.875 103.944 107.79 104.828 107.79ZM104.828 108.788C104.204 108.788 103.673 108.836 103.235 108.932C102.798 109.023 102.465 109.157 102.237 109.335C102.01 109.508 101.896 109.723 101.896 109.978C101.896 110.219 102.01 110.427 102.237 110.6C102.465 110.773 102.798 110.905 103.235 110.996C103.673 111.092 104.204 111.14 104.828 111.14C105.439 111.14 105.965 111.092 106.407 110.996C106.849 110.905 107.184 110.773 107.412 110.6C107.64 110.427 107.754 110.219 107.754 109.978C107.754 109.723 107.64 109.508 107.412 109.335C107.184 109.157 106.852 109.023 106.414 108.932C105.981 108.836 105.453 108.788 104.828 108.788ZM105.122 101.31C105.122 101.939 104.913 102.511 104.493 103.026C104.074 103.536 103.497 103.955 102.764 104.283C102.03 104.607 101.203 104.823 100.282 104.933L99.838 103.907C100.608 103.825 101.308 103.661 101.937 103.415C102.57 103.165 103.067 102.855 103.427 102.486C103.787 102.112 103.967 101.72 103.967 101.31V100.954H105.122V101.31ZM105.696 101.31C105.696 101.725 105.874 102.116 106.23 102.486C106.59 102.855 107.086 103.165 107.72 103.415C108.353 103.661 109.062 103.825 109.846 103.907L109.374 104.933C108.467 104.823 107.645 104.607 106.906 104.283C106.173 103.955 105.594 103.536 105.17 103.026C104.746 102.511 104.534 101.939 104.534 101.31V100.954H105.696V101.31ZM109.422 101.501H100.269V100.462H109.422V101.501Z" fill="black"/>
<path d="M93.3507 113.826H92.1954L92.92 110.053H94.4581L93.3507 113.826Z" fill="black"/>
<path d="M90.3087 108.823H89.0167V99.9153H90.3087V108.823ZM90.6778 111.912H82.3038V110.839H90.6778V111.912ZM83.6026 111.229H82.3038V107.92H83.6026V111.229ZM83.6641 100.742C84.2748 100.742 84.8285 100.872 85.3253 101.132C85.8266 101.387 86.2185 101.747 86.501 102.212C86.7836 102.672 86.9249 103.194 86.9249 103.778C86.9249 104.37 86.7836 104.896 86.501 105.357C86.2185 105.817 85.8266 106.177 85.3253 106.437C84.8285 106.697 84.2748 106.826 83.6641 106.826C83.0535 106.826 82.4997 106.697 82.003 106.437C81.5108 106.177 81.1212 105.817 80.8341 105.357C80.5469 104.896 80.4034 104.37 80.4034 103.778C80.4034 103.194 80.5469 102.672 80.8341 102.212C81.1212 101.747 81.5108 101.387 82.003 101.132C82.4997 100.872 83.0535 100.742 83.6641 100.742ZM83.6641 101.877C83.2904 101.877 82.9509 101.957 82.6456 102.116C82.3402 102.276 82.101 102.499 81.9278 102.786C81.7592 103.073 81.6749 103.404 81.6749 103.778C81.6749 104.151 81.7592 104.484 81.9278 104.776C82.101 105.067 82.3402 105.293 82.6456 105.452C82.9509 105.612 83.2904 105.692 83.6641 105.692C84.0378 105.692 84.3751 105.612 84.6758 105.452C84.9766 105.293 85.2136 105.067 85.3868 104.776C85.56 104.484 85.6466 104.151 85.6466 103.778C85.6466 103.404 85.56 103.073 85.3868 102.786C85.2136 102.499 84.9766 102.276 84.6758 102.116C84.3751 101.957 84.0378 101.877 83.6641 101.877Z" fill="black"/>
<path d="M72.46 107.237H71.1749V105.61H72.46V107.237ZM77.6964 108.166H76.3907V99.9153H77.6964V108.166ZM79.4395 104.632H77.1837V103.559H79.4395V104.632ZM68.1671 106.806C69.5935 106.806 70.9288 106.781 72.1729 106.731C73.4216 106.681 74.5951 106.583 75.6934 106.437L75.8028 107.353C74.6452 107.553 73.4512 107.685 72.2208 107.749C70.9949 107.809 69.6254 107.838 68.1124 107.838L67.9688 106.806H68.1671ZM77.6964 112.152H76.3907V109.759H69.4864V108.734H77.6964V112.152ZM75.3448 101.925H68.2764V100.961H75.3448V101.925ZM71.8038 102.335C72.3917 102.335 72.9044 102.408 73.3419 102.554C73.7794 102.7 74.1189 102.909 74.3604 103.183C74.6065 103.452 74.7296 103.773 74.7296 104.147C74.7296 104.511 74.6065 104.833 74.3604 105.111C74.1189 105.389 73.7794 105.603 73.3419 105.753C72.9044 105.904 72.3917 105.979 71.8038 105.979C71.225 105.979 70.7146 105.904 70.2725 105.753C69.835 105.603 69.4955 105.389 69.254 105.111C69.0124 104.833 68.8917 104.511 68.8917 104.147C68.8917 103.773 69.0124 103.452 69.254 103.183C69.4955 102.909 69.835 102.7 70.2725 102.554C70.7146 102.408 71.225 102.335 71.8038 102.335ZM71.8038 103.231C71.462 103.222 71.1658 103.254 70.9151 103.326C70.6645 103.399 70.4708 103.504 70.3341 103.641C70.1973 103.778 70.129 103.946 70.129 104.147C70.129 104.334 70.1973 104.5 70.3341 104.646C70.4708 104.787 70.6645 104.896 70.9151 104.974C71.1658 105.047 71.462 105.083 71.8038 105.083C72.1547 105.083 72.4532 105.047 72.6993 104.974C72.9499 104.896 73.1436 104.787 73.2803 104.646C73.4171 104.5 73.4854 104.334 73.4854 104.147C73.4854 103.946 73.4171 103.778 73.2803 103.641C73.1436 103.504 72.9499 103.399 72.6993 103.326C72.4532 103.254 72.1547 103.222 71.8038 103.231ZM72.46 101.44H71.1749V99.8059H72.46V101.44Z" fill="black"/>
<path d="M58.7471 107.551H57.4551V105.712H58.7471V107.551ZM63.7032 106.02H52.5333V104.981H63.7032V106.02ZM62.2608 104.078H53.9551V100.298H62.2608V104.078ZM55.2403 103.053H60.9688V101.323H55.2403V103.053ZM62.2882 109.964H55.1651V111.345H53.8868V109.014H61.0167V108.077H53.8663V107.086H62.2882V109.964ZM62.6436 112.035H53.8868V111.031H62.6436V112.035Z" fill="black"/>
<path d="M50.9747 112.152H49.7237V99.9016H50.9747V112.152ZM50.1749 105.767H47.8848V104.707H50.1749V105.767ZM48.2198 111.55H46.9893V100.134H48.2198V111.55ZM45.6016 108.932H40.8507V101.282H45.6016V108.932ZM42.0675 107.9H44.3848V102.315H42.0675V107.9Z" fill="black"/>
<path d="M19.5677 124.13H11.7414V98.7948H19.5677V124.13ZM19.5677 134.256H11.7414V126.51H19.5677V134.256Z" fill="#2551F4"/>
<path d="M198.992 84.0623H191.327V46.4232H198.992V84.0623ZM163.612 82.8521V75.7922C171.761 74.5819 178.337 68.2886 178.337 57.4769V54.2495H163.814V47.7141H185.881V57.1945C185.881 72.6455 176.037 81.9646 163.612 82.8521Z" fill="black"/>
<path d="M130.29 46.3828H138.076V50.6187H146.507V56.549H143.925C144.45 57.6383 144.732 58.9292 144.732 60.3815V73.0086C144.732 80.0281 140.375 83.2958 134.203 83.2958C128.071 83.2958 123.673 80.0281 123.673 73.0086V60.3815C123.673 58.9292 123.956 57.6383 124.48 56.549H121.898V50.6187H130.29V46.3828ZM157.44 60.5026H161.272V67.1187H157.44V84.0623H149.775V46.4232H157.44V60.5026ZM137.47 73.4524V59.615C137.47 57.1542 136.179 56.2263 134.203 56.2263C132.226 56.2263 130.895 57.1542 130.895 59.615V73.4524C130.895 75.9132 132.226 77.0025 134.203 77.0025C136.179 77.0025 137.47 75.9132 137.47 73.4524Z" fill="black"/>
<path d="M115.605 66.7556H119.115V72.9683H104.471V84.264H96.6442V72.9683H82V66.7556H107.94C108.949 63.6896 109.473 60.5025 109.473 56.9121V53.7251H83.3313V47.1897H117.017V56.9121C117.017 60.8253 116.533 63.8913 115.605 66.7556Z" fill="black"/>
<path d="M29.2547 46.4232H36.9197V66.7152H29.2547V46.4232ZM13.4809 61.4708C10.6973 64.6981 6.30004 66.7556 1.17659 67.0783V61.2287C6.2597 60.3412 9.24501 57.3559 9.36604 53.4023H1.6607V47.472H24.6154V53.4023H16.5873C16.5873 54.4512 16.4259 55.4598 16.1839 56.3877C21.7511 56.8718 25.6239 60.6236 25.6642 66.7152H18.5237C18.4027 63.972 16.2242 61.5514 13.4809 61.4708ZM29.295 71.3546V68.4096H36.96V84.0623H3.03233V68.4096H10.6973V71.3546H29.295ZM10.6973 76.1553V79.0196H29.295V76.1553H10.6973Z" fill="#2551F4"/>
<path d="M179.932 15.3497H183.16V0.423157H189.816V38.0623H183.16V21.4414H179.126C177.028 30.236 170.896 35.7628 162.101 37.2555V30.3167C168.596 28.4206 172.994 23.3778 172.994 14.3412V8.1285H162.303V1.7141H179.932V15.3497ZM192.237 38.0623V0.423157H198.893V38.0623H192.237Z" fill="black"/>
<path d="M129.586 0.382812H137.372V4.61873H145.803V10.549H143.221C143.746 11.6383 144.028 12.9292 144.028 14.3815V27.0086C144.028 34.0281 139.671 37.2958 133.499 37.2958C127.367 37.2958 122.969 34.0281 122.969 27.0086V14.3815C122.969 12.9292 123.252 11.6383 123.776 10.549H121.194V4.61873H129.586V0.382812ZM156.736 14.5026H160.568V21.1187H156.736V38.0623H149.071V0.423154H156.736V14.5026ZM136.766 27.4524V13.615C136.766 11.1542 135.475 10.2263 133.499 10.2263C131.522 10.2263 130.191 11.1542 130.191 13.615V27.4524C130.191 29.9132 131.522 31.0025 133.499 31.0025C135.475 31.0025 136.766 29.9132 136.766 27.4524Z" fill="black"/>
<path d="M82.7887 1.51239H116.918V7.88644H82.7887V1.51239ZM111.472 17.8913H117.402V23.9426H82.3046V17.8913H88.2349V9.78252H96.0612V17.8913H103.646V9.78252H111.472V17.8913ZM81.296 37.0538V30.6394H118.411V37.0538H81.296Z" fill="black"/>
<path d="M77.2618 38.0623H69.5968V0.423157H77.2618V38.0623ZM41.6801 26.5245V11.5979C41.6801 4.65908 46.5211 0.826577 53.1372 0.826577C59.7937 0.826577 64.6347 4.61874 64.6347 11.5979V26.5245C64.6347 33.5037 59.7937 37.2958 53.1776 37.2958C46.5615 37.2958 41.6801 33.5037 41.6801 26.5245ZM49.1433 10.9524V27.17C49.1433 29.7922 50.9184 31.0832 53.1372 31.0832C55.356 31.0832 57.1714 29.7922 57.1714 27.17V10.9524C57.1714 8.37055 55.356 6.99892 53.1372 7.03926C50.9184 7.07961 49.1433 8.41089 49.1433 10.9524Z" fill="black"/>
<path d="M16.1839 11.7189H21.9931V0.423157H28.4479V38.0623H21.9931V18.214H16.1839V11.7189ZM30.8684 38.0623V0.423157H37.5248V38.0623H30.8684ZM12.8355 18.093C18.1203 21.1187 20.4198 27.291 19.976 35.7628H13.0775C13.3599 31.89 13.1985 28.0575 11.3428 25.5563C9.40638 31.1638 5.89662 34.7543 0.289062 36.8924V28.945C4.24259 26.0404 6.17901 21.7238 6.17901 12.4854V1.79479H13.1179V12.0417C13.1179 14.2202 13.0372 16.2373 12.8355 18.093Z" fill="#2551F4"/>
</svg>
