<svg width="155" height="23" viewBox="0 0 155 23" fill="none" xmlns="http://www.w3.org/2000/svg">
<path d="M0 23C0 10.2975 10.2975 0 23 0H143.5C149.851 0 155 5.14873 155 11.5V11.5C155 17.8513 149.851 23 143.5 23H0V23Z" fill="#2551F4" fill-opacity="0.13"/>
<path d="M25.1445 13.3125H24.2422V11.0273H25.1445V13.3125ZM24.9688 7.61719C24.9688 8.21094 24.8438 8.75977 24.5938 9.26367C24.3438 9.76758 23.998 10.1992 23.5566 10.5586C23.1152 10.918 22.6016 11.1875 22.0156 11.3672L21.5703 10.6641C22.0938 10.5078 22.5547 10.2812 22.9531 9.98438C23.3516 9.6875 23.6621 9.33594 23.8848 8.92969C24.1074 8.52344 24.2188 8.08594 24.2188 7.61719V7.37109H24.9688V7.61719ZM25.1445 7.61719C25.1445 8.0625 25.2598 8.48047 25.4902 8.87109C25.7207 9.26172 26.0371 9.60156 26.4395 9.89062C26.8418 10.1797 27.3047 10.3984 27.8281 10.5469L27.3945 11.2734C26.8086 11.0938 26.2891 10.8281 25.8359 10.4766C25.3828 10.125 25.0293 9.70312 24.7754 9.21094C24.5215 8.71875 24.3945 8.1875 24.3945 7.61719V7.37109H25.1445V7.61719ZM27.5938 7.66406H21.8281V6.90234H27.5938V7.66406ZM25.1445 7.24219H24.2422V5.61328H25.1445V7.24219ZM29.7383 15.9727H28.8242V5.53125H29.7383V15.9727ZM21.3359 13.0312C22.75 13.0234 23.9883 12.998 25.0508 12.9551C26.1133 12.9121 27.1406 12.8164 28.1328 12.668L28.2031 13.3477C27.4688 13.4805 26.707 13.5801 25.918 13.6465C25.1289 13.7129 24.3887 13.7539 23.6973 13.7695C23.0059 13.7852 22.2344 13.793 21.3828 13.793L21.2539 13.0312H21.3359ZM40.168 13.1836H39.2539V5.54297H40.168V13.1836ZM40.4961 15.7266H33.4414V14.9531H40.4961V15.7266ZM34.3555 15.3281H33.4414V12.4805H34.3555V15.3281ZM35.0938 7.17188C35.0938 7.84375 34.9707 8.47852 34.7246 9.07617C34.4785 9.67383 34.1348 10.1973 33.6934 10.6465C33.252 11.0957 32.7461 11.4375 32.1758 11.6719L31.6719 10.957C32.1953 10.7539 32.6582 10.459 33.0605 10.0723C33.4629 9.68555 33.7734 9.24023 33.9922 8.73633C34.2109 8.23242 34.3203 7.71094 34.3203 7.17188V6.12891H35.0938V7.17188ZM35.2578 7.17188C35.2578 7.6875 35.3672 8.18359 35.5859 8.66016C35.8047 9.13672 36.1152 9.55664 36.5176 9.91992C36.9199 10.2832 37.375 10.5586 37.8828 10.7461L37.4023 11.4844C36.8242 11.2578 36.3164 10.9336 35.8789 10.5117C35.4414 10.0898 35.0996 9.5918 34.8535 9.01758C34.6074 8.44336 34.4844 7.82812 34.4844 7.17188V6.12891H35.2578V7.17188ZM54.4766 12.4688H44.9375V11.7188H54.4766V12.4688ZM50.1289 15.9492H49.2266V12.0469H50.1289V15.9492ZM47.0703 7.40625H52.3203V5.96484H53.2461V10.4531H46.1562V5.96484H47.0703V7.40625ZM52.3203 9.70312V8.15625H47.0703V9.70312H52.3203ZM64.8242 11.4258H55.3203V10.6875H64.8242V11.4258ZM60.5117 11.0039H59.6211V9.01172H60.5117V11.0039ZM63.7109 9.46875H56.5273V8.71875H63.7109V9.46875ZM63.6406 6.76172H57.4297V9.17578H56.5273V6.02344H63.6406V6.76172ZM60.0664 12.1875C60.8086 12.1875 61.4492 12.2598 61.9883 12.4043C62.5273 12.5488 62.9395 12.7617 63.2246 13.043C63.5098 13.3242 63.6523 13.6641 63.6523 14.0625C63.6523 14.4609 63.5098 14.8008 63.2246 15.082C62.9395 15.3633 62.5293 15.5762 61.9941 15.7207C61.459 15.8652 60.8164 15.9414 60.0664 15.9492C59.3164 15.9414 58.6719 15.8652 58.1328 15.7207C57.5938 15.5762 57.1816 15.3633 56.8965 15.082C56.6113 14.8008 56.4688 14.4609 56.4688 14.0625C56.4688 13.6641 56.6113 13.3242 56.8965 13.043C57.1816 12.7617 57.5938 12.5488 58.1328 12.4043C58.6719 12.2598 59.3164 12.1875 60.0664 12.1875ZM60.0664 12.9141C59.5117 12.9141 59.0352 12.959 58.6367 13.0488C58.2383 13.1387 57.9336 13.2695 57.7227 13.4414C57.5117 13.6133 57.4062 13.8203 57.4062 14.0625C57.4062 14.3047 57.5117 14.5117 57.7227 14.6836C57.9336 14.8555 58.2383 14.9863 58.6367 15.0762C59.0352 15.166 59.5117 15.2109 60.0664 15.2109C60.6211 15.2109 61.0977 15.166 61.4961 15.0762C61.8945 14.9863 62.1992 14.8535 62.4102 14.6777C62.6211 14.502 62.7266 14.2969 62.7266 14.0625C62.7266 13.8203 62.6211 13.6133 62.4102 13.4414C62.1992 13.2695 61.8926 13.1387 61.4902 13.0488C61.0879 12.959 60.6133 12.9141 60.0664 12.9141ZM69.0547 7.46484C69.0547 8.12891 68.9355 8.74805 68.6973 9.32227C68.459 9.89648 68.1211 10.3945 67.6836 10.8164C67.2461 11.2383 66.7383 11.5625 66.1602 11.7891L65.6562 11.0508C66.1797 10.8633 66.6406 10.5898 67.0391 10.2305C67.4375 9.87109 67.7461 9.45312 67.9648 8.97656C68.1836 8.5 68.293 7.99609 68.293 7.46484V6.17578H69.0547V7.46484ZM69.1953 7.5C69.1953 7.96875 69.3047 8.42188 69.5234 8.85938C69.7422 9.29688 70.0508 9.68359 70.4492 10.0195C70.8477 10.3555 71.3008 10.6133 71.8086 10.793L71.3398 11.5312C70.7695 11.3203 70.2676 11.0156 69.834 10.6172C69.4004 10.2188 69.0625 9.75 68.8203 9.21094C68.5781 8.67188 68.457 8.10156 68.457 7.5V6.17578H69.1953V7.5ZM73.8359 13.2305H72.9219V5.53125H73.8359V13.2305ZM75.4062 9.51562H73.543V8.73047H75.4062V9.51562ZM74.3164 15.7266H67.332V14.9531H74.3164V15.7266ZM68.2695 15.3281H67.332V12.4922H68.2695V15.3281ZM87.0664 9.01172H84.6875V8.25H87.0664V9.01172ZM87.7109 11.7422H86.7852V5.53125H87.7109V11.7422ZM84.2539 12.0703C84.9805 12.0703 85.6055 12.1465 86.1289 12.2988C86.6523 12.4512 87.0527 12.6719 87.3301 12.9609C87.6074 13.25 87.7461 13.5977 87.7461 14.0039C87.7461 14.4102 87.6074 14.7578 87.3301 15.0469C87.0527 15.3359 86.6523 15.5566 86.1289 15.709C85.6055 15.8613 84.9805 15.9414 84.2539 15.9492C83.5352 15.9414 82.9141 15.8613 82.3906 15.709C81.8672 15.5566 81.4648 15.3359 81.1836 15.0469C80.9023 14.7578 80.7617 14.4102 80.7617 14.0039C80.7617 13.5977 80.9023 13.25 81.1836 12.9609C81.4648 12.6719 81.8672 12.4512 82.3906 12.2988C82.9141 12.1465 83.5352 12.0703 84.2539 12.0703ZM84.2539 12.7852C83.7305 12.7852 83.2734 12.834 82.8828 12.9316C82.4922 13.0293 82.1934 13.1699 81.9863 13.3535C81.7793 13.5371 81.6758 13.7539 81.6758 14.0039C81.6758 14.2461 81.7793 14.459 81.9863 14.6426C82.1934 14.8262 82.4922 14.9668 82.8828 15.0645C83.2734 15.1621 83.7305 15.2109 84.2539 15.2109C84.7852 15.2109 85.2441 15.1621 85.6309 15.0645C86.0176 14.9668 86.3145 14.8262 86.5215 14.6426C86.7285 14.459 86.832 14.2461 86.832 14.0039C86.832 13.7539 86.7285 13.5371 86.5215 13.3535C86.3145 13.1699 86.0176 13.0293 85.6309 12.9316C85.2441 12.834 84.7852 12.7852 84.2539 12.7852ZM82.5312 7.45312C82.5312 8.07812 82.4062 8.66992 82.1562 9.22852C81.9062 9.78711 81.5605 10.2754 81.1191 10.6934C80.6777 11.1113 80.1719 11.4297 79.6016 11.6484L79.1211 10.9102C79.6367 10.7227 80.0957 10.4512 80.498 10.0957C80.9004 9.74023 81.2129 9.33203 81.4355 8.87109C81.6582 8.41016 81.7695 7.9375 81.7695 7.45312V6.58594H82.5312V7.45312ZM82.6953 7.44141C82.6953 7.88672 82.8027 8.32031 83.0176 8.74219C83.2324 9.16406 83.5352 9.53711 83.9258 9.86133C84.3164 10.1855 84.7617 10.4375 85.2617 10.6172L84.7812 11.3555C84.2188 11.1523 83.7246 10.8535 83.2988 10.459C82.873 10.0645 82.541 9.60547 82.3027 9.08203C82.0645 8.55859 81.9453 8.01172 81.9453 7.44141V6.58594H82.6953V7.44141ZM85.0273 7.06641H79.4141V6.29297H85.0273V7.06641ZM92.375 7.79297C92.375 8.34766 92.2793 8.87695 92.0879 9.38086C91.8965 9.88477 91.623 10.3301 91.2676 10.7168C90.9121 11.1035 90.4844 11.4023 89.9844 11.6133L89.5273 10.9219C89.9648 10.7422 90.3438 10.4902 90.6641 10.166C90.9844 9.8418 91.2305 9.47461 91.4023 9.06445C91.5742 8.6543 91.6602 8.23047 91.6602 7.79297V7.42969H92.375V7.79297ZM92.5273 7.79297C92.5273 8.19922 92.6152 8.5957 92.791 8.98242C92.9668 9.36914 93.2168 9.71484 93.541 10.0195C93.8652 10.3242 94.2422 10.5547 94.6719 10.7109L94.2266 11.4258C93.7266 11.2227 93.2969 10.9375 92.9375 10.5703C92.5781 10.2031 92.3047 9.7793 92.1172 9.29883C91.9297 8.81836 91.8359 8.31641 91.8359 7.79297V7.42969H92.5273V7.79297ZM94.4141 7.66406H89.7383V6.91406H94.4141V7.66406ZM92.5273 7.23047H91.6602V5.66016H92.5273V7.23047ZM98.293 11.918H97.4141V5.54297H98.293V11.918ZM97.6953 9.09375H95.6914V8.33203H97.6953V9.09375ZM96.0547 11.8711H95.1641V5.73047H96.0547V11.8711ZM98.293 15.9492H97.3906V13.2305H91.2734V12.4805H98.293V15.9492ZM104.562 5.71875C105.336 5.71875 105.998 5.78711 106.549 5.92383C107.1 6.06055 107.52 6.26367 107.809 6.5332C108.098 6.80273 108.242 7.12891 108.242 7.51172C108.242 7.90234 108.098 8.23242 107.809 8.50195C107.52 8.77148 107.1 8.97656 106.549 9.11719C105.998 9.25781 105.336 9.33203 104.562 9.33984C103.789 9.33203 103.127 9.25781 102.576 9.11719C102.025 8.97656 101.604 8.77148 101.311 8.50195C101.018 8.23242 100.871 7.90234 100.871 7.51172C100.871 7.12891 101.018 6.80273 101.311 6.5332C101.604 6.26367 102.025 6.06055 102.576 5.92383C103.127 5.78711 103.789 5.71875 104.562 5.71875ZM104.562 6.41016C103.992 6.41016 103.502 6.45312 103.092 6.53906C102.682 6.625 102.369 6.75195 102.154 6.91992C101.939 7.08789 101.832 7.28516 101.832 7.51172C101.832 7.75391 101.938 7.95898 102.148 8.12695C102.359 8.29492 102.67 8.42188 103.08 8.50781C103.49 8.59375 103.984 8.63672 104.562 8.63672C105.141 8.63672 105.635 8.59375 106.045 8.50781C106.455 8.42188 106.768 8.29297 106.982 8.12109C107.197 7.94922 107.305 7.74609 107.305 7.51172C107.305 7.28516 107.195 7.08984 106.977 6.92578C106.758 6.76172 106.443 6.63477 106.033 6.54492C105.623 6.45508 105.133 6.41016 104.562 6.41016ZM109.309 10.793H99.8164V10.043H109.309V10.793ZM108.09 14.0273H101.902V15.293H100.988V13.3477H107.188V12.3984H100.965V11.6953H108.09V14.0273ZM108.406 15.832H100.988V15.1055H108.406V15.832ZM121.145 8.63672H117.934V7.86328H121.145V8.63672ZM121.145 11.9297H117.934V11.168H121.145V11.9297ZM116 6.33984C116.508 6.33984 116.957 6.49023 117.348 6.79102C117.738 7.0918 118.045 7.51562 118.268 8.0625C118.49 8.60938 118.602 9.24609 118.602 9.97266C118.602 10.6992 118.49 11.3359 118.268 11.8828C118.045 12.4297 117.738 12.8516 117.348 13.1484C116.957 13.4453 116.508 13.5938 116 13.5938C115.492 13.5938 115.041 13.4453 114.646 13.1484C114.252 12.8516 113.943 12.4297 113.721 11.8828C113.498 11.3359 113.387 10.6992 113.387 9.97266C113.387 9.24609 113.498 8.60938 113.721 8.0625C113.943 7.51562 114.252 7.0918 114.646 6.79102C115.041 6.49023 115.492 6.33984 116 6.33984ZM116 7.16016C115.664 7.16016 115.363 7.27734 115.098 7.51172C114.832 7.74609 114.627 8.07422 114.482 8.49609C114.338 8.91797 114.266 9.41016 114.266 9.97266C114.266 10.5273 114.338 11.0176 114.482 11.4434C114.627 11.8691 114.832 12.1973 115.098 12.4277C115.363 12.6582 115.664 12.7734 116 12.7734C116.336 12.7734 116.637 12.6582 116.902 12.4277C117.168 12.1973 117.373 11.8691 117.518 11.4434C117.662 11.0176 117.734 10.5273 117.734 9.97266C117.734 9.41016 117.662 8.91797 117.518 8.49609C117.373 8.07422 117.17 7.74609 116.908 7.51172C116.646 7.27734 116.344 7.16016 116 7.16016ZM121.836 15.9727H120.922V5.53125H121.836V15.9727ZM132.184 15.9492H131.258V5.53125H132.184V15.9492ZM129.102 6.66797C129.102 7.69922 128.932 8.66406 128.592 9.5625C128.252 10.4609 127.719 11.2871 126.992 12.041C126.266 12.7949 125.336 13.4453 124.203 13.9922L123.699 13.2422C124.707 12.7656 125.543 12.2051 126.207 11.5605C126.871 10.916 127.367 10.1953 127.695 9.39844C128.023 8.60156 128.188 7.73828 128.188 6.80859V6.66797H129.102ZM128.562 7.41797H124.18V6.66797H128.562V7.41797ZM142.121 9.84375H139.191V9.09375H142.121V9.84375ZM137.434 8.33203C137.434 9.08203 137.307 9.81836 137.053 10.541C136.799 11.2637 136.451 11.9043 136.01 12.4629C135.568 13.0215 135.074 13.4492 134.527 13.7461L133.93 13.0078C134.438 12.7578 134.9 12.3867 135.318 11.8945C135.736 11.4023 136.066 10.8418 136.309 10.2129C136.551 9.58398 136.672 8.95703 136.672 8.33203V6.43359H137.434V8.33203ZM137.609 8.33203C137.609 8.94922 137.73 9.55859 137.973 10.1602C138.215 10.7617 138.543 11.2949 138.957 11.7598C139.371 12.2246 139.828 12.5742 140.328 12.8086L139.777 13.5586C139.223 13.2695 138.725 12.8574 138.283 12.3223C137.842 11.7871 137.494 11.1719 137.24 10.4766C136.986 9.78125 136.859 9.06641 136.859 8.33203V6.43359H137.609V8.33203ZM142.578 15.9727H141.664V5.53125H142.578V15.9727Z" fill="#696E83"/>
</svg>
