<svg width="34" height="35" viewBox="0 0 34 35" fill="none" xmlns="http://www.w3.org/2000/svg">
<path fill-rule="evenodd" clip-rule="evenodd" d="M22.8393 12.6306C23.8691 12.0777 23.7203 9.06409 22.1538 6.14642C20.5872 3.22875 18.1962 1.5119 17.1664 2.06479C17.1588 2.06888 17.1513 2.07308 17.1439 2.07741L2.86739 9.74257L8.54027 20.3084L22.8352 12.6333L22.835 12.6329C22.8364 12.6322 22.8379 12.6314 22.8393 12.6306Z" fill="#CAD1E1"/>
<path d="M8.93571 21.0492C9.49682 20.748 9.75521 20.1918 9.86085 19.6777C9.96771 19.1576 9.9492 18.5547 9.85291 17.9321C9.65912 16.6791 9.11979 15.1558 8.30398 13.6363C7.48817 12.1169 6.51643 10.8258 5.57907 9.972C5.11334 9.5478 4.62095 9.19923 4.12843 9.00099C3.64158 8.80503 3.0352 8.71312 2.47409 9.01438C1.91298 9.31565 1.65459 9.87186 1.54896 10.3859C1.4421 10.906 1.46061 11.509 1.55689 12.1315C1.75068 13.3845 2.29002 14.9078 3.10582 16.4273C3.92163 17.9467 4.89338 19.2379 5.83073 20.0916C6.29647 20.5158 6.78885 20.8644 7.28137 21.0626C7.76823 21.2586 8.3746 21.3505 8.93571 21.0492Z" fill="#CAD1E1" stroke="#F2F3F6" stroke-width="1.6674"/>
<rect x="15.375" y="16.6406" width="2.82175" height="14.1087" transform="rotate(-28.2317 15.375 16.6406)" fill="#CAD1E1"/>
<circle cx="23.2972" cy="28.4038" r="1.41087" transform="rotate(-28.2317 23.2972 28.4038)" fill="#CAD1E1"/>
<path d="M11.7139 25.2695C11.8919 24.9579 12.2233 24.7656 12.5821 24.7656H30.0369C30.3957 24.7656 30.7271 24.9579 30.9051 25.2695L33.1469 29.1926C33.5278 29.8592 33.0464 30.6887 32.2786 30.6887H10.3404C9.57254 30.6887 9.09118 29.8592 9.47212 29.1926L11.7139 25.2695Z" fill="#CAD1E1"/>
</svg>
