<svg width="255" height="23" viewBox="0 0 255 23" fill="none" xmlns="http://www.w3.org/2000/svg">
<path d="M0 23C0 10.2975 10.2975 0 23 0H243.5C249.851 0 255 5.14873 255 11.5V11.5C255 17.8513 249.851 23 243.5 23H0V23Z" fill="#2551F4" fill-opacity="0.13"/>
<path d="M23.832 16.9492H22.8828V12.9648H23.832V16.9492ZM27.4297 16.9492H26.5039V12.9648H27.4297V16.9492ZM29.9492 13.2344H20.4102V12.4727H29.9492V13.2344ZM25.1562 6.95312C25.8828 6.95312 26.5234 7.04492 27.0781 7.22852C27.6328 7.41211 28.0625 7.67578 28.3672 8.01953C28.6719 8.36328 28.8242 8.76562 28.8242 9.22656C28.8242 9.67969 28.6719 10.0762 28.3672 10.416C28.0625 10.7559 27.6328 11.0176 27.0781 11.2012C26.5234 11.3848 25.8828 11.4766 25.1562 11.4766C24.4297 11.4766 23.791 11.3848 23.2402 11.2012C22.6895 11.0176 22.2598 10.7559 21.9512 10.416C21.6426 10.0762 21.4883 9.67969 21.4883 9.22656C21.4883 8.76562 21.6406 8.36328 21.9453 8.01953C22.25 7.67578 22.6797 7.41211 23.2344 7.22852C23.7891 7.04492 24.4297 6.95312 25.1562 6.95312ZM25.1562 7.70312C24.6172 7.70312 24.1426 7.76562 23.7324 7.89062C23.3223 8.01562 23.0039 8.19336 22.7773 8.42383C22.5508 8.6543 22.4375 8.92188 22.4375 9.22656C22.4375 9.53125 22.5508 9.79688 22.7773 10.0234C23.0039 10.25 23.3223 10.4258 23.7324 10.5508C24.1426 10.6758 24.6172 10.7383 25.1562 10.7383C25.6953 10.7383 26.1719 10.6758 26.5859 10.5508C27 10.4258 27.3203 10.25 27.5469 10.0234C27.7734 9.79688 27.8867 9.53125 27.8867 9.22656C27.8867 8.92188 27.7734 8.6543 27.5469 8.42383C27.3203 8.19336 27 8.01562 26.5859 7.89062C26.1719 7.76562 25.6953 7.70312 25.1562 7.70312ZM34.0625 12.0391H33.1484V10.0703H34.0625V12.0391ZM37.9297 12.0391H37.0156V10.0703H37.9297V12.0391ZM40.2852 12.4492H30.793V11.6875H40.2852V12.4492ZM35.5391 13.2461C36.2891 13.2461 36.9316 13.3164 37.4668 13.457C38.002 13.5977 38.4121 13.8047 38.6973 14.0781C38.9824 14.3516 39.125 14.6875 39.125 15.0859C39.125 15.4766 38.9824 15.8086 38.6973 16.082C38.4121 16.3555 38.002 16.5645 37.4668 16.709C36.9316 16.8535 36.2891 16.9258 35.5391 16.9258C34.7891 16.9258 34.1445 16.8535 33.6055 16.709C33.0664 16.5645 32.6543 16.3555 32.3691 16.082C32.084 15.8086 31.9414 15.4766 31.9414 15.0859C31.9414 14.6875 32.084 14.3516 32.3691 14.0781C32.6543 13.8047 33.0664 13.5977 33.6055 13.457C34.1445 13.3164 34.7891 13.2461 35.5391 13.2461ZM35.5391 13.9492C34.9844 13.9492 34.5078 13.9941 34.1094 14.084C33.7109 14.1738 33.4062 14.3047 33.1953 14.4766C32.9844 14.6484 32.8789 14.8516 32.8789 15.0859C32.8789 15.3203 32.9844 15.5215 33.1953 15.6895C33.4062 15.8574 33.7109 15.9863 34.1094 16.0762C34.5078 16.166 34.9844 16.2109 35.5391 16.2109C36.0859 16.2109 36.5605 16.166 36.9629 16.0762C37.3652 15.9863 37.6719 15.8574 37.8828 15.6895C38.0938 15.5215 38.1992 15.3203 38.1992 15.0859C38.1992 14.8516 38.0938 14.6484 37.8828 14.4766C37.6719 14.3047 37.3672 14.1738 36.9688 14.084C36.5703 13.9941 36.0938 13.9492 35.5391 13.9492ZM35.5391 6.73047C36.2969 6.73047 36.9512 6.80664 37.502 6.95898C38.0527 7.11133 38.4766 7.33203 38.7734 7.62109C39.0703 7.91016 39.2188 8.25781 39.2188 8.66406C39.2188 9.0625 39.0703 9.40625 38.7734 9.69531C38.4766 9.98438 38.0527 10.2051 37.502 10.3574C36.9512 10.5098 36.2969 10.5859 35.5391 10.5859C34.7812 10.5859 34.125 10.5098 33.5703 10.3574C33.0156 10.2051 32.5898 9.98438 32.293 9.69531C31.9961 9.40625 31.8477 9.0625 31.8477 8.66406C31.8477 8.25781 31.9961 7.91016 32.293 7.62109C32.5898 7.33203 33.0156 7.11133 33.5703 6.95898C34.125 6.80664 34.7812 6.73047 35.5391 6.73047ZM35.5391 7.45703C34.9766 7.45703 34.4883 7.50586 34.0742 7.60352C33.6602 7.70117 33.3438 7.83984 33.125 8.01953C32.9062 8.19922 32.7969 8.41406 32.7969 8.66406C32.7969 8.91406 32.9062 9.12891 33.125 9.30859C33.3438 9.48828 33.6602 9.62695 34.0742 9.72461C34.4883 9.82227 34.9766 9.87109 35.5391 9.87109C36.1016 9.87109 36.5879 9.82227 36.998 9.72461C37.4082 9.62695 37.7246 9.48828 37.9473 9.30859C38.1699 9.12891 38.2812 8.91406 38.2812 8.66406C38.2812 8.41406 38.1699 8.19922 37.9473 8.01953C37.7246 7.83984 37.4082 7.70117 36.998 7.60352C36.5879 7.50586 36.1016 7.45703 35.5391 7.45703ZM49.3086 14.3477H48.3945V6.54297H49.3086V14.3477ZM50.8789 10.75H49.0156V9.97656H50.8789V10.75ZM47.3984 8.57031H41.1875V7.82031H47.3984V8.57031ZM44.293 9.14453C44.7852 9.14453 45.2207 9.22461 45.5996 9.38477C45.9785 9.54492 46.2734 9.77148 46.4844 10.0645C46.6953 10.3574 46.8008 10.6992 46.8008 11.0898C46.8008 11.4727 46.6953 11.8086 46.4844 12.0977C46.2734 12.3867 45.9785 12.6113 45.5996 12.7715C45.2207 12.9316 44.7852 13.0117 44.293 13.0117C43.8008 13.0117 43.3633 12.9316 42.9805 12.7715C42.5977 12.6113 42.3027 12.3867 42.0957 12.0977C41.8887 11.8086 41.7852 11.4727 41.7852 11.0898C41.7852 10.6992 41.8887 10.3574 42.0957 10.0645C42.3027 9.77148 42.5977 9.54492 42.9805 9.38477C43.3633 9.22461 43.8008 9.14453 44.293 9.14453ZM44.293 9.87109C43.9727 9.87109 43.6875 9.91992 43.4375 10.0176C43.1875 10.1152 42.9961 10.2578 42.8633 10.4453C42.7305 10.6328 42.6641 10.8477 42.6641 11.0898C42.6641 11.332 42.7305 11.543 42.8633 11.7227C42.9961 11.9023 43.1875 12.041 43.4375 12.1387C43.6875 12.2363 43.9727 12.2852 44.293 12.2852C44.6133 12.2852 44.8984 12.2363 45.1484 12.1387C45.3984 12.041 45.5918 11.9023 45.7285 11.7227C45.8652 11.543 45.9336 11.332 45.9336 11.0898C45.9336 10.8477 45.8652 10.6328 45.7285 10.4453C45.5918 10.2578 45.3984 10.1152 45.1484 10.0176C44.8984 9.91992 44.6133 9.87109 44.293 9.87109ZM44.75 8.20703H43.8359V6.54297H44.75V8.20703ZM49.7891 16.7266H42.793V15.9531H49.7891V16.7266ZM43.6953 16.2695H42.793V13.7266H43.6953V16.2695ZM64.0742 13.4688H54.5352V12.7188H64.0742V13.4688ZM59.7266 16.9492H58.8242V13.0469H59.7266V16.9492ZM56.668 8.40625H61.918V6.96484H62.8438V11.4531H55.7539V6.96484H56.668V8.40625ZM61.918 10.7031V9.15625H56.668V10.7031H61.918ZM74.4219 12.4258H64.918V11.6875H74.4219V12.4258ZM70.1094 12.0039H69.2188V10.0117H70.1094V12.0039ZM73.3086 10.4688H66.125V9.71875H73.3086V10.4688ZM73.2383 7.76172H67.0273V10.1758H66.125V7.02344H73.2383V7.76172ZM69.6641 13.1875C70.4062 13.1875 71.0469 13.2598 71.5859 13.4043C72.125 13.5488 72.5371 13.7617 72.8223 14.043C73.1074 14.3242 73.25 14.6641 73.25 15.0625C73.25 15.4609 73.1074 15.8008 72.8223 16.082C72.5371 16.3633 72.127 16.5762 71.5918 16.7207C71.0566 16.8652 70.4141 16.9414 69.6641 16.9492C68.9141 16.9414 68.2695 16.8652 67.7305 16.7207C67.1914 16.5762 66.7793 16.3633 66.4941 16.082C66.209 15.8008 66.0664 15.4609 66.0664 15.0625C66.0664 14.6641 66.209 14.3242 66.4941 14.043C66.7793 13.7617 67.1914 13.5488 67.7305 13.4043C68.2695 13.2598 68.9141 13.1875 69.6641 13.1875ZM69.6641 13.9141C69.1094 13.9141 68.6328 13.959 68.2344 14.0488C67.8359 14.1387 67.5312 14.2695 67.3203 14.4414C67.1094 14.6133 67.0039 14.8203 67.0039 15.0625C67.0039 15.3047 67.1094 15.5117 67.3203 15.6836C67.5312 15.8555 67.8359 15.9863 68.2344 16.0762C68.6328 16.166 69.1094 16.2109 69.6641 16.2109C70.2188 16.2109 70.6953 16.166 71.0938 16.0762C71.4922 15.9863 71.7969 15.8535 72.0078 15.6777C72.2188 15.502 72.3242 15.2969 72.3242 15.0625C72.3242 14.8203 72.2188 14.6133 72.0078 14.4414C71.7969 14.2695 71.4902 14.1387 71.0879 14.0488C70.6855 13.959 70.2109 13.9141 69.6641 13.9141ZM78.6523 8.46484C78.6523 9.12891 78.5332 9.74805 78.2949 10.3223C78.0566 10.8965 77.7188 11.3945 77.2812 11.8164C76.8438 12.2383 76.3359 12.5625 75.7578 12.7891L75.2539 12.0508C75.7773 11.8633 76.2383 11.5898 76.6367 11.2305C77.0352 10.8711 77.3438 10.4531 77.5625 9.97656C77.7812 9.5 77.8906 8.99609 77.8906 8.46484V7.17578H78.6523V8.46484ZM78.793 8.5C78.793 8.96875 78.9023 9.42188 79.1211 9.85938C79.3398 10.2969 79.6484 10.6836 80.0469 11.0195C80.4453 11.3555 80.8984 11.6133 81.4062 11.793L80.9375 12.5312C80.3672 12.3203 79.8652 12.0156 79.4316 11.6172C78.998 11.2188 78.6602 10.75 78.418 10.2109C78.1758 9.67188 78.0547 9.10156 78.0547 8.5V7.17578H78.793V8.5ZM83.4336 14.2305H82.5195V6.53125H83.4336V14.2305ZM85.0039 10.5156H83.1406V9.73047H85.0039V10.5156ZM83.9141 16.7266H76.9297V15.9531H83.9141V16.7266ZM77.8672 16.3281H76.9297V13.4922H77.8672V16.3281ZM96.6641 10.0117H94.2852V9.25H96.6641V10.0117ZM97.3086 12.7422H96.3828V6.53125H97.3086V12.7422ZM93.8516 13.0703C94.5781 13.0703 95.2031 13.1465 95.7266 13.2988C96.25 13.4512 96.6504 13.6719 96.9277 13.9609C97.2051 14.25 97.3438 14.5977 97.3438 15.0039C97.3438 15.4102 97.2051 15.7578 96.9277 16.0469C96.6504 16.3359 96.25 16.5566 95.7266 16.709C95.2031 16.8613 94.5781 16.9414 93.8516 16.9492C93.1328 16.9414 92.5117 16.8613 91.9883 16.709C91.4648 16.5566 91.0625 16.3359 90.7812 16.0469C90.5 15.7578 90.3594 15.4102 90.3594 15.0039C90.3594 14.5977 90.5 14.25 90.7812 13.9609C91.0625 13.6719 91.4648 13.4512 91.9883 13.2988C92.5117 13.1465 93.1328 13.0703 93.8516 13.0703ZM93.8516 13.7852C93.3281 13.7852 92.8711 13.834 92.4805 13.9316C92.0898 14.0293 91.791 14.1699 91.584 14.3535C91.377 14.5371 91.2734 14.7539 91.2734 15.0039C91.2734 15.2461 91.377 15.459 91.584 15.6426C91.791 15.8262 92.0898 15.9668 92.4805 16.0645C92.8711 16.1621 93.3281 16.2109 93.8516 16.2109C94.3828 16.2109 94.8418 16.1621 95.2285 16.0645C95.6152 15.9668 95.9121 15.8262 96.1191 15.6426C96.3262 15.459 96.4297 15.2461 96.4297 15.0039C96.4297 14.7539 96.3262 14.5371 96.1191 14.3535C95.9121 14.1699 95.6152 14.0293 95.2285 13.9316C94.8418 13.834 94.3828 13.7852 93.8516 13.7852ZM92.1289 8.45312C92.1289 9.07812 92.0039 9.66992 91.7539 10.2285C91.5039 10.7871 91.1582 11.2754 90.7168 11.6934C90.2754 12.1113 89.7695 12.4297 89.1992 12.6484L88.7188 11.9102C89.2344 11.7227 89.6934 11.4512 90.0957 11.0957C90.498 10.7402 90.8105 10.332 91.0332 9.87109C91.2559 9.41016 91.3672 8.9375 91.3672 8.45312V7.58594H92.1289V8.45312ZM92.293 8.44141C92.293 8.88672 92.4004 9.32031 92.6152 9.74219C92.8301 10.1641 93.1328 10.5371 93.5234 10.8613C93.9141 11.1855 94.3594 11.4375 94.8594 11.6172L94.3789 12.3555C93.8164 12.1523 93.3223 11.8535 92.8965 11.459C92.4707 11.0645 92.1387 10.6055 91.9004 10.082C91.6621 9.55859 91.543 9.01172 91.543 8.44141V7.58594H92.293V8.44141ZM94.625 8.06641H89.0117V7.29297H94.625V8.06641ZM101.973 8.79297C101.973 9.34766 101.877 9.87695 101.686 10.3809C101.494 10.8848 101.221 11.3301 100.865 11.7168C100.51 12.1035 100.082 12.4023 99.582 12.6133L99.125 11.9219C99.5625 11.7422 99.9414 11.4902 100.262 11.166C100.582 10.8418 100.828 10.4746 101 10.0645C101.172 9.6543 101.258 9.23047 101.258 8.79297V8.42969H101.973V8.79297ZM102.125 8.79297C102.125 9.19922 102.213 9.5957 102.389 9.98242C102.564 10.3691 102.814 10.7148 103.139 11.0195C103.463 11.3242 103.84 11.5547 104.27 11.7109L103.824 12.4258C103.324 12.2227 102.895 11.9375 102.535 11.5703C102.176 11.2031 101.902 10.7793 101.715 10.2988C101.527 9.81836 101.434 9.31641 101.434 8.79297V8.42969H102.125V8.79297ZM104.012 8.66406H99.3359V7.91406H104.012V8.66406ZM102.125 8.23047H101.258V6.66016H102.125V8.23047ZM107.891 12.918H107.012V6.54297H107.891V12.918ZM107.293 10.0938H105.289V9.33203H107.293V10.0938ZM105.652 12.8711H104.762V6.73047H105.652V12.8711ZM107.891 16.9492H106.988V14.2305H100.871V13.4805H107.891V16.9492ZM114.16 6.71875C114.934 6.71875 115.596 6.78711 116.146 6.92383C116.697 7.06055 117.117 7.26367 117.406 7.5332C117.695 7.80273 117.84 8.12891 117.84 8.51172C117.84 8.90234 117.695 9.23242 117.406 9.50195C117.117 9.77148 116.697 9.97656 116.146 10.1172C115.596 10.2578 114.934 10.332 114.16 10.3398C113.387 10.332 112.725 10.2578 112.174 10.1172C111.623 9.97656 111.201 9.77148 110.908 9.50195C110.615 9.23242 110.469 8.90234 110.469 8.51172C110.469 8.12891 110.615 7.80273 110.908 7.5332C111.201 7.26367 111.623 7.06055 112.174 6.92383C112.725 6.78711 113.387 6.71875 114.16 6.71875ZM114.16 7.41016C113.59 7.41016 113.1 7.45312 112.689 7.53906C112.279 7.625 111.967 7.75195 111.752 7.91992C111.537 8.08789 111.43 8.28516 111.43 8.51172C111.43 8.75391 111.535 8.95898 111.746 9.12695C111.957 9.29492 112.268 9.42188 112.678 9.50781C113.088 9.59375 113.582 9.63672 114.16 9.63672C114.738 9.63672 115.232 9.59375 115.643 9.50781C116.053 9.42188 116.365 9.29297 116.58 9.12109C116.795 8.94922 116.902 8.74609 116.902 8.51172C116.902 8.28516 116.793 8.08984 116.574 7.92578C116.355 7.76172 116.041 7.63477 115.631 7.54492C115.221 7.45508 114.73 7.41016 114.16 7.41016ZM118.906 11.793H109.414V11.043H118.906V11.793ZM117.688 15.0273H111.5V16.293H110.586V14.3477H116.785V13.3984H110.562V12.6953H117.688V15.0273ZM118.004 16.832H110.586V16.1055H118.004V16.832ZM130.941 11.8398H130.027V6.53125H130.941V11.8398ZM132.512 9.56641H130.531V8.79297H132.512V9.56641ZM130.941 14.875H125.223V16.4688H124.32V14.1719H130.027V13.0703H124.297V12.332H130.941V14.875ZM131.328 16.8086H124.32V16.0703H131.328V16.8086ZM125.703 6.91797C126.227 6.91797 126.693 7.01562 127.104 7.21094C127.514 7.40625 127.834 7.67969 128.064 8.03125C128.295 8.38281 128.41 8.78125 128.41 9.22656C128.41 9.67188 128.295 10.0723 128.064 10.4277C127.834 10.7832 127.514 11.0586 127.104 11.2539C126.693 11.4492 126.227 11.5469 125.703 11.5469C125.188 11.5469 124.725 11.4473 124.314 11.248C123.904 11.0488 123.582 10.7734 123.348 10.4219C123.113 10.0703 122.996 9.67188 122.996 9.22656C122.996 8.78125 123.113 8.38281 123.348 8.03125C123.582 7.67969 123.904 7.40625 124.314 7.21094C124.725 7.01562 125.188 6.91797 125.703 6.91797ZM125.703 7.69141C125.359 7.68359 125.051 7.74609 124.777 7.87891C124.504 8.01172 124.289 8.19531 124.133 8.42969C123.977 8.66406 123.898 8.92969 123.898 9.22656C123.898 9.52344 123.977 9.79102 124.133 10.0293C124.289 10.2676 124.504 10.4551 124.777 10.5918C125.051 10.7285 125.359 10.7969 125.703 10.7969C126.047 10.7969 126.355 10.7285 126.629 10.5918C126.902 10.4551 127.117 10.2676 127.273 10.0293C127.43 9.79102 127.508 9.52344 127.508 9.22656C127.508 8.92969 127.43 8.66406 127.273 8.42969C127.117 8.19531 126.902 8.01172 126.629 7.87891C126.355 7.74609 126.047 7.68359 125.703 7.69141ZM141.781 16.9492H140.855V6.53125H141.781V16.9492ZM138.699 7.66797C138.699 8.69922 138.529 9.66406 138.189 10.5625C137.85 11.4609 137.316 12.2871 136.59 13.041C135.863 13.7949 134.934 14.4453 133.801 14.9922L133.297 14.2422C134.305 13.7656 135.141 13.2051 135.805 12.5605C136.469 11.916 136.965 11.1953 137.293 10.3984C137.621 9.60156 137.785 8.73828 137.785 7.80859V7.66797H138.699ZM138.16 8.41797H133.777V7.66797H138.16V8.41797ZM150.641 13.3398H149.727V11.3711H150.641V13.3398ZM149.129 14.1602H154.18V13.0234H155.082V16.8086H148.215V13.0234H149.129V14.1602ZM154.18 16.0586V14.8867H149.129V16.0586H154.18ZM155.082 12.5195H154.168V6.54297H155.082V12.5195ZM146.562 11.1016C147.992 11.1016 149.246 11.084 150.324 11.0488C151.402 11.0137 152.445 10.9336 153.453 10.8086L153.512 11.4648C152.48 11.6367 151.422 11.7461 150.336 11.793C149.25 11.8398 148.035 11.8633 146.691 11.8633L146.562 11.1016ZM150.359 7.31641C150.359 7.80859 150.238 8.26562 149.996 8.6875C149.754 9.10938 149.414 9.47266 148.977 9.77734C148.539 10.082 148.031 10.3086 147.453 10.457L147.031 9.73047C147.531 9.61328 147.977 9.43555 148.367 9.19727C148.758 8.95898 149.062 8.67773 149.281 8.35352C149.5 8.0293 149.609 7.68359 149.609 7.31641V6.78906H150.359V7.31641ZM150.547 7.31641C150.547 7.66016 150.656 7.98633 150.875 8.29492C151.094 8.60352 151.396 8.86914 151.783 9.0918C152.17 9.31445 152.613 9.48047 153.113 9.58984L152.715 10.293C152.145 10.1602 151.639 9.95312 151.197 9.67188C150.756 9.39062 150.412 9.04883 150.166 8.64648C149.92 8.24414 149.797 7.80078 149.797 7.31641V6.78906H150.547V7.31641ZM165.84 16.9492H164.961V6.53125H165.84V16.9492ZM163.039 11.5586H160.367V10.8086H163.039V11.5586ZM163.648 16.4219H162.77V6.8125H163.648V16.4219ZM161.422 7.86719C161.422 8.79688 161.285 9.67773 161.012 10.5098C160.738 11.3418 160.309 12.1133 159.723 12.8242C159.137 13.5352 158.387 14.1602 157.473 14.6992L156.934 14.0312C157.746 13.5469 158.42 12.9961 158.955 12.3789C159.49 11.7617 159.887 11.0879 160.145 10.3574C160.402 9.62695 160.531 8.85156 160.531 8.03125V7.86719H161.422ZM160.883 8.62891H157.379V7.86719H160.883V8.62891ZM178.543 10.1875H175.871V9.42578H178.543V10.1875ZM178.941 14.1836H178.016V6.54297H178.941V14.1836ZM179.234 16.7266H172.25V15.9531H179.234V16.7266ZM173.176 16.3281H172.25V13.4922H173.176V16.3281ZM173.762 8.6875C173.762 9.30469 173.639 9.89062 173.393 10.4453C173.146 11 172.803 11.4844 172.361 11.8984C171.92 12.3125 171.41 12.6289 170.832 12.8477L170.352 12.0977C170.859 11.918 171.314 11.6543 171.717 11.3066C172.119 10.959 172.434 10.5586 172.66 10.1055C172.887 9.65234 173 9.17969 173 8.6875V7.83203H173.762V8.6875ZM173.926 8.6875C173.926 9.13281 174.035 9.56641 174.254 9.98828C174.473 10.4102 174.775 10.7852 175.162 11.1133C175.549 11.4414 175.992 11.6914 176.492 11.8633L176.012 12.6016C175.449 12.3984 174.955 12.0996 174.529 11.7051C174.104 11.3105 173.771 10.8516 173.533 10.3281C173.295 9.80469 173.176 9.25781 173.176 8.6875V7.83203H173.926V8.6875ZM176.258 8.14844H170.645V7.38672H176.258V8.14844ZM181.965 10.6328C183.051 10.6406 183.945 10.6191 184.648 10.5684C185.352 10.5176 186.055 10.4219 186.758 10.2812L186.875 11.0195C186.391 11.1211 185.91 11.1992 185.434 11.2539C184.957 11.3086 184.451 11.3438 183.916 11.3594C183.381 11.375 182.73 11.3828 181.965 11.3828H181.156V10.6328H181.965ZM185.785 7.89062H182.059V11.0898H181.156V7.14062H185.785V7.89062ZM188.82 11.793H187.906V6.53125H188.82V11.793ZM190.391 9.50781H188.562V8.74609H190.391V9.50781ZM188.82 14.875H183.102V16.4922H182.199V14.1484H187.906V13.0586H182.176V12.3086H188.82V14.875ZM189.207 16.8086H182.199V16.0586H189.207V16.8086ZM196.25 9.08594H191.023V8.33594H196.25V9.08594ZM193.637 9.78906C194.074 9.78906 194.463 9.88867 194.803 10.0879C195.143 10.2871 195.41 10.5664 195.605 10.9258C195.801 11.2852 195.898 11.6953 195.898 12.1562C195.898 12.6172 195.801 13.0273 195.605 13.3867C195.41 13.7461 195.143 14.0293 194.803 14.2363C194.463 14.4434 194.074 14.5469 193.637 14.5469C193.207 14.5469 192.822 14.4434 192.482 14.2363C192.143 14.0293 191.877 13.7441 191.686 13.3809C191.494 13.0176 191.398 12.6094 191.398 12.1562C191.398 11.7031 191.494 11.2949 191.686 10.9316C191.877 10.5684 192.143 10.2871 192.482 10.0879C192.822 9.88867 193.207 9.78906 193.637 9.78906ZM193.637 10.5625C193.371 10.5625 193.129 10.6328 192.91 10.7734C192.691 10.9141 192.521 11.1035 192.4 11.3418C192.279 11.5801 192.219 11.8516 192.219 12.1562C192.219 12.4609 192.281 12.7344 192.406 12.9766C192.531 13.2188 192.701 13.4062 192.916 13.5391C193.131 13.6719 193.371 13.7383 193.637 13.7383C193.91 13.7383 194.156 13.6719 194.375 13.5391C194.594 13.4062 194.766 13.2188 194.891 12.9766C195.016 12.7344 195.078 12.4609 195.078 12.1562C195.078 11.8516 195.016 11.5801 194.891 11.3418C194.766 11.1035 194.594 10.9141 194.375 10.7734C194.156 10.6328 193.91 10.5625 193.637 10.5625ZM199.918 16.9492H199.039V6.53125H199.918V16.9492ZM199.332 11.6875H197.34V10.9258H199.332V11.6875ZM197.656 16.4336H196.789V6.78906H197.656V16.4336ZM194.105 8.79297H193.191V6.84766H194.105V8.79297ZM209.832 12.3086H202.637V11.5469H209.832V12.3086ZM210.957 15.5312H201.418V14.7578H210.957V15.5312ZM209.727 8.26562H203.551V11.8867H202.637V7.50391H209.727V8.26562ZM220.414 16.9727H219.5V6.53125H220.414V16.9727ZM219.758 9.68359H217.414V8.91016H219.758V9.68359ZM212.961 13.75C213.836 13.75 214.625 13.7285 215.328 13.6855C216.031 13.6426 216.77 13.5625 217.543 13.4453L217.625 14.2188C216.836 14.3359 216.086 14.418 215.375 14.4648C214.664 14.5117 213.859 14.5352 212.961 14.5352H212.188V13.75H212.961ZM216.734 11.1836H213.102V13.9492H212.188V10.4336H215.832V8.24219H212.152V7.48047H216.734V11.1836ZM219.688 12.5312H217.332V11.7578H219.688V12.5312ZM225.43 15.0273H224.527V11.9102H225.43V15.0273ZM229.332 15.0273H228.406V11.9102H229.332V15.0273ZM231.699 15.6133H222.16V14.8398H231.699V15.6133ZM226.906 7.1875C227.648 7.1875 228.307 7.29883 228.881 7.52148C229.455 7.74414 229.904 8.05859 230.229 8.46484C230.553 8.87109 230.715 9.33984 230.715 9.87109C230.715 10.4023 230.553 10.8691 230.229 11.2715C229.904 11.6738 229.455 11.9863 228.881 12.209C228.307 12.4316 227.648 12.543 226.906 12.543C226.172 12.543 225.516 12.4316 224.938 12.209C224.359 11.9863 223.908 11.6738 223.584 11.2715C223.26 10.8691 223.098 10.4023 223.098 9.87109C223.098 9.33984 223.26 8.87109 223.584 8.46484C223.908 8.05859 224.359 7.74414 224.938 7.52148C225.516 7.29883 226.172 7.1875 226.906 7.1875ZM226.906 7.94922C226.344 7.94141 225.842 8.01758 225.4 8.17773C224.959 8.33789 224.613 8.56445 224.363 8.85742C224.113 9.15039 223.988 9.48828 223.988 9.87109C223.988 10.2539 224.113 10.5918 224.363 10.8848C224.613 11.1777 224.959 11.4062 225.4 11.5703C225.842 11.7344 226.344 11.8164 226.906 11.8164C227.469 11.8164 227.971 11.7344 228.412 11.5703C228.854 11.4062 229.199 11.1777 229.449 10.8848C229.699 10.5918 229.824 10.2539 229.824 9.87109C229.824 9.48828 229.699 9.15039 229.449 8.85742C229.199 8.56445 228.854 8.33789 228.412 8.17773C227.971 8.01758 227.469 7.94141 226.906 7.94922ZM234.137 13.6094H233.152L233.07 7.51562H234.219L234.137 13.6094ZM233.645 16.0703C233.512 16.0703 233.387 16.0352 233.27 15.9648C233.152 15.8945 233.061 15.8008 232.994 15.6836C232.928 15.5664 232.895 15.4414 232.895 15.3086C232.895 15.1758 232.928 15.0508 232.994 14.9336C233.061 14.8164 233.152 14.7246 233.27 14.6582C233.387 14.5918 233.512 14.5586 233.645 14.5586C233.777 14.5586 233.902 14.5918 234.02 14.6582C234.137 14.7246 234.229 14.8164 234.295 14.9336C234.361 15.0508 234.395 15.1758 234.395 15.3086C234.395 15.4414 234.361 15.5664 234.295 15.6836C234.229 15.8008 234.137 15.8945 234.02 15.9648C233.902 16.0352 233.777 16.0703 233.645 16.0703Z" fill="#696E83"/>
</svg>
