<svg width="15" height="21" viewBox="0 0 15 21" fill="none" xmlns="http://www.w3.org/2000/svg">
<path d="M3.68201 8.703V4.595C3.68201 2.745 5.20901 1 7.50001 1C9.79101 1 11.318 2.746 11.318 4.595V8.703" stroke="white" stroke-width="2" stroke-linecap="round" stroke-linejoin="round"/>
<path fill-rule="evenodd" clip-rule="evenodd" d="M0 9.393V17.2C0 19.89 4.164 20.5 7.5 20.5C10.836 20.5 15 19.891 15 17.199V9.393C14.9999 9.26185 14.9739 9.13202 14.9236 9.01092C14.8732 8.88983 14.7995 8.77984 14.7066 8.68724C14.6138 8.59465 14.5035 8.52127 14.3823 8.4713C14.2611 8.42132 14.1311 8.39574 14 8.396H1C0.448 8.396 0 8.841 0 9.393ZM6 14.003C6 14.479 6.207 14.907 6.536 15.201V16.753C6.536 17.0182 6.64136 17.2726 6.82889 17.4601C7.01643 17.6476 7.27078 17.753 7.536 17.753H7.679C7.94422 17.753 8.19857 17.6476 8.38611 17.4601C8.57364 17.2726 8.679 17.0182 8.679 16.753V15.2C8.87864 15.0212 9.03041 14.7954 9.12049 14.543C9.21057 14.2906 9.2361 14.0197 9.19476 13.7549C9.15342 13.4901 9.04652 13.2399 8.88379 13.027C8.72105 12.814 8.50766 12.6452 8.26302 12.5358C8.01838 12.4264 7.75026 12.3799 7.48308 12.4006C7.21589 12.4213 6.95811 12.5084 6.7332 12.6541C6.5083 12.7998 6.3234 12.9995 6.19534 13.2349C6.06729 13.4703 6.00013 13.735 6 14.003Z" fill="white"/>
</svg>
