<svg width="200" height="120" viewBox="0 0 200 120" fill="none" xmlns="http://www.w3.org/2000/svg">
<path d="M44.2617 69.2943L61.7852 36.8887L75.4818 69.2943H44.2617Z" fill="#2551F4"/>
<rect x="13.0415" y="68.5039" width="53.3507" height="23.7114" fill="#2551F4"/>
<path d="M102.259 37.7307C102.184 36.9658 101.927 36.3013 101.488 35.737C101.062 35.1728 100.473 34.7527 99.7202 34.4769C98.9804 34.1885 98.1153 34.0443 97.1247 34.0443C96.1216 34.0443 95.2439 34.1947 94.4916 34.4957C93.7518 34.7966 93.175 35.2167 92.7612 35.7558C92.36 36.295 92.1593 36.9157 92.1593 37.6178C92.1593 38.646 92.5857 39.4422 93.4383 40.0065C94.3035 40.5707 95.432 41.0284 96.8238 41.3795L99.3629 42.0189C101.783 42.5832 103.72 43.4797 105.175 44.7085C106.629 45.9373 107.363 47.6488 107.375 49.8431C107.375 51.4356 106.961 52.8399 106.134 54.0562C105.319 55.2724 104.134 56.2191 102.579 56.8962C101.037 57.5733 99.1873 57.9118 97.0307 57.9118C94.9241 57.9118 93.0872 57.5858 91.5199 56.9338C89.9651 56.2692 88.7551 55.3038 87.8899 54.0373C87.0247 52.7709 86.5545 51.2475 86.4793 49.467H91.2942C91.3694 50.3948 91.6641 51.1785 92.1782 51.818C92.6922 52.4449 93.3631 52.9214 94.1906 53.2474C95.0182 53.5609 95.9523 53.7176 96.993 53.7176C98.0714 53.7176 99.0243 53.5546 99.8519 53.2286C100.679 52.9026 101.319 52.4449 101.77 51.8556C102.234 51.2537 102.466 50.5704 102.466 49.8055C102.466 49.1284 102.272 48.5579 101.883 48.094C101.494 47.6175 100.943 47.2225 100.228 46.9091C99.5259 46.5956 98.6356 46.3009 97.5573 46.0251L94.4539 45.2351C92.1217 44.6207 90.3287 43.7179 89.0748 42.5268C87.8335 41.3356 87.2128 39.7933 87.2128 37.9C87.2128 36.3201 87.6454 34.9283 88.5106 33.7245C89.3757 32.5083 90.5669 31.5679 92.0841 30.9033C93.6013 30.2262 95.3066 29.8877 97.1999 29.8877C99.0933 29.8877 100.773 30.22 102.241 30.8845C103.72 31.5491 104.874 32.4769 105.701 33.6681C106.529 34.8468 106.961 36.2009 106.999 37.7307H102.259ZM123.381 48.4513C122.955 48.4639 121.995 48.5203 120.503 48.6206L118.604 48.7711C117.425 48.8714 116.51 49.166 115.858 49.655C115.206 50.1441 114.88 50.8274 114.88 51.7051C114.88 52.2694 115.024 52.7521 115.312 53.1534C115.601 53.5421 116.008 53.843 116.535 54.0562C117.074 54.2693 117.676 54.3759 118.34 54.3759C119.293 54.3759 120.127 54.1878 120.842 53.8116C121.569 53.4229 122.127 52.9089 122.516 52.2694C122.917 51.6299 123.118 50.9277 123.118 50.1629L123.08 43.6364C123.08 42.9593 122.942 42.3826 122.666 41.9061C122.39 41.4296 121.97 41.0723 121.406 40.834C120.854 40.5958 120.177 40.4767 119.375 40.4767C118.347 40.4767 117.5 40.6898 116.836 41.1161C116.184 41.5425 115.764 42.1318 115.575 42.8841H110.911C111.049 41.718 111.475 40.6773 112.19 39.762C112.917 38.8341 113.902 38.1131 115.143 37.599C116.397 37.0724 117.851 36.8091 119.506 36.8091C120.961 36.8091 122.309 37.0285 123.55 37.4674C124.791 37.9062 125.82 38.6523 126.635 39.7055C127.45 40.7463 127.857 42.1192 127.857 43.8245V57.498H123.268V54.6768H123.118C122.804 55.2912 122.378 55.8367 121.839 56.3131C121.312 56.7896 120.647 57.1783 119.845 57.4792C119.042 57.7676 118.127 57.9118 117.099 57.9118C115.782 57.9118 114.61 57.6736 113.582 57.1971C112.554 56.7206 111.739 56.0185 111.137 55.0906C110.547 54.1627 110.253 53.0531 110.253 51.7616C110.253 49.63 110.961 48.1002 112.378 47.1724C113.795 46.232 115.626 45.6928 117.87 45.5549C118.196 45.5173 119.368 45.4546 121.387 45.3668L123.343 45.2916L123.381 48.4513ZM142.716 40.7588H130.66V37.0724H142.716V40.7588ZM133.688 35.1163C133.688 33.7998 133.945 32.6901 134.459 31.7873C134.986 30.872 135.725 30.1761 136.678 29.6996C137.644 29.2231 138.778 28.9849 140.083 28.9849C140.634 28.9849 141.161 29.01 141.662 29.0601C142.164 29.1103 142.647 29.1855 143.111 29.2858V33.0663C142.383 32.9785 141.813 32.9346 141.399 32.9346C140.421 32.9346 139.688 33.1478 139.199 33.5741C138.722 33.9879 138.484 34.6461 138.484 35.5489V57.498H133.688V35.1163ZM154.414 57.893C152.396 57.893 150.64 57.4667 149.148 56.6141C147.656 55.7614 146.502 54.5452 145.687 52.9653C144.885 51.3854 144.484 49.5359 144.484 47.4169C144.484 45.3229 144.885 43.4734 145.687 41.8685C146.502 40.251 147.637 39.0034 149.092 38.1256C150.546 37.2479 152.239 36.8091 154.17 36.8091C155.913 36.8091 157.486 37.179 158.891 37.9188C160.295 38.6585 161.411 39.8058 162.239 41.3607C163.066 42.9029 163.48 44.8151 163.48 47.0971V48.6018H146.759V45.348H158.891C158.891 44.4201 158.696 43.5926 158.308 42.8653C157.919 42.1381 157.367 41.5675 156.653 41.1538C155.95 40.74 155.142 40.5331 154.226 40.5331C153.248 40.5331 152.383 40.7651 151.631 41.229C150.878 41.6929 150.289 42.3199 149.863 43.1098C149.449 43.8872 149.236 44.7398 149.223 45.6677V48.4513C149.223 49.6425 149.436 50.6707 149.863 51.5359C150.302 52.3885 150.916 53.0405 151.706 53.4919C152.496 53.9433 153.417 54.169 154.471 54.169C155.148 54.169 155.756 54.075 156.295 53.8869C156.847 53.6988 157.317 53.4543 157.706 53.1534C158.094 52.8399 158.389 52.47 158.59 52.0437H163.292C163.003 53.2098 162.458 54.238 161.655 55.1282C160.866 56.0059 159.85 56.6893 158.609 57.1783C157.367 57.6548 155.969 57.893 154.414 57.893ZM87.4761 64.2638H92.3662V75.8309H105.043V64.2638H109.952V91.498H105.043V79.9122H92.3662V91.498H87.4761V64.2638ZM123.701 91.893C121.745 91.893 120.02 91.4542 118.528 90.5764C117.049 89.6987 115.908 88.4637 115.105 86.8712C114.303 85.2788 113.902 83.4419 113.902 81.3605C113.902 79.2539 114.303 77.4107 115.105 75.8309C115.908 74.2384 117.049 73.0034 118.528 72.1256C120.02 71.2479 121.745 70.8091 123.701 70.8091C125.669 70.8091 127.393 71.2479 128.873 72.1256C130.352 73.0034 131.487 74.2384 132.277 75.8309C133.067 77.4107 133.462 79.2539 133.462 81.3605C133.462 83.4419 133.067 85.2788 132.277 86.8712C131.487 88.4637 130.352 89.6987 128.873 90.5764C127.393 91.4542 125.669 91.893 123.701 91.893ZM123.738 88.075C124.791 88.075 125.682 87.7803 126.409 87.191C127.149 86.5891 127.7 85.7804 128.064 84.7647C128.428 83.7491 128.61 82.6081 128.61 81.3416C128.61 80.0627 128.428 78.9154 128.064 77.8998C127.7 76.8841 127.149 76.0816 126.409 75.4923C125.682 74.8904 124.791 74.5895 123.738 74.5895C122.66 74.5895 121.745 74.8904 120.992 75.4923C120.24 76.0816 119.676 76.8841 119.3 77.8998C118.923 78.9154 118.735 80.0627 118.735 81.3416C118.735 82.6206 118.923 83.7679 119.3 84.7835C119.676 85.7866 120.24 86.5891 120.992 87.191C121.745 87.7803 122.66 88.075 123.738 88.075ZM150.239 71.0724H154.997V91.498H150.389V87.8869H150.164C149.662 89.0655 148.885 90.0059 147.831 90.7081C146.791 91.4103 145.518 91.7614 144.013 91.7614C142.672 91.7614 141.487 91.4604 140.459 90.8586C139.443 90.2442 138.647 89.3602 138.07 88.2066C137.506 87.0531 137.224 85.6738 137.224 84.0688V71.0724H142.001V83.3353C142.001 84.1879 142.158 84.934 142.471 85.5735C142.797 86.213 143.255 86.7082 143.844 87.0593C144.433 87.3979 145.104 87.5671 145.857 87.5671C146.609 87.5671 147.317 87.3916 147.982 87.0405C148.659 86.6769 149.204 86.144 149.618 85.4418C150.032 84.7271 150.239 83.8807 150.239 82.9027V71.0724ZM171.191 76.8841C171.041 76.0816 170.652 75.461 170.025 75.0221C169.398 74.5832 168.583 74.3638 167.58 74.3638C166.903 74.3638 166.295 74.4641 165.756 74.6647C165.216 74.8654 164.79 75.1538 164.477 75.5299C164.176 75.9061 164.025 76.3261 164.025 76.7901C164.013 77.3292 164.245 77.7932 164.721 78.1819C165.198 78.5706 165.937 78.8778 166.941 79.1035L170.42 79.8558C172.351 80.257 173.787 80.9153 174.727 81.8307C175.68 82.746 176.157 83.9309 176.157 85.3854C176.157 86.6518 175.799 87.7803 175.084 88.7709C174.37 89.7489 173.36 90.5138 172.056 91.0655C170.752 91.6172 169.216 91.893 167.448 91.893C165.731 91.893 164.245 91.6485 162.991 91.1595C161.737 90.6705 160.746 89.962 160.019 89.0342C159.292 88.0938 158.841 86.9778 158.665 85.6863H163.536C163.712 86.539 164.126 87.1847 164.778 87.6236C165.43 88.0499 166.314 88.263 167.43 88.263C168.194 88.263 168.865 88.169 169.442 87.9809C170.019 87.7803 170.464 87.4982 170.777 87.1346C171.091 86.7584 171.248 86.3195 171.248 85.818C171.248 85.2161 171.009 84.7208 170.533 84.3321C170.056 83.9434 169.31 83.6425 168.295 83.4293L165.003 82.7523C163.11 82.351 161.674 81.6677 160.696 80.7022C159.731 79.7241 159.248 78.5142 159.248 77.0722C159.248 75.8183 159.587 74.7212 160.264 73.7808C160.953 72.8278 161.919 72.0943 163.16 71.5802C164.414 71.0661 165.869 70.8091 167.524 70.8091C169.116 70.8091 170.508 71.0599 171.699 71.5614C172.903 72.0504 173.849 72.7526 174.539 73.6679C175.229 74.5832 175.624 75.6553 175.724 76.8841H171.191ZM188.871 91.893C186.852 91.893 185.097 91.4667 183.605 90.6141C182.112 89.7614 180.959 88.5452 180.144 86.9653C179.341 85.3854 178.94 83.5359 178.94 81.4169C178.94 79.3229 179.341 77.4734 180.144 75.8685C180.959 74.251 182.094 73.0034 183.548 72.1256C185.003 71.2479 186.695 70.8091 188.626 70.8091C190.369 70.8091 191.943 71.179 193.347 71.9188C194.752 72.6585 195.868 73.8058 196.695 75.3607C197.523 76.9029 197.936 78.8151 197.936 81.0971V82.6018H181.216V79.348H193.347C193.347 78.4201 193.153 77.5926 192.764 76.8653C192.375 76.1381 191.824 75.5675 191.109 75.1538C190.407 74.74 189.598 74.5331 188.683 74.5331C187.705 74.5331 186.84 74.7651 186.087 75.229C185.335 75.6929 184.746 76.3199 184.319 77.1098C183.906 77.8872 183.692 78.7398 183.68 79.6677V82.4513C183.68 83.6425 183.893 84.6707 184.319 85.5359C184.758 86.3885 185.373 87.0405 186.162 87.4919C186.952 87.9433 187.874 88.169 188.927 88.169C189.604 88.169 190.213 88.075 190.752 87.8869C191.303 87.6988 191.774 87.4543 192.162 87.1534C192.551 86.8399 192.846 86.47 193.046 86.0437H197.748C197.46 87.2098 196.914 88.238 196.112 89.1282C195.322 90.0059 194.306 90.6893 193.065 91.1783C191.824 91.6548 190.426 91.893 188.871 91.893Z" fill="black"/>
<path d="M0 73.6409L24.6994 28.9844H66.392L42.9913 73.6409H0Z" fill="#2551F4"/>
<path d="M8.7417 47.622L14.1645 36.5566H44.3088L38.7266 47.622H8.7417Z" fill="#0E298D"/>
<path d="M20.6616 67.0038L26.5759 57.2188H59.4523L53.3641 67.0038H20.6616Z" fill="#0E298D"/>
<path d="M5.92773 36.8876L11.4108 24.6367H41.8901L36.2458 36.8876H5.92773Z" fill="#5075FF" fill-opacity="0.6"/>
<path d="M19.3643 59.9721L25.3318 49.1387H58.5044L52.3614 59.9721H19.3643Z" fill="#5075FF" fill-opacity="0.6"/>
<path d="M20.8413 110.225H18.3903V109.065H20.8413V110.225ZM16.924 108.102C16.924 109.04 16.8048 109.947 16.5665 110.823C16.3331 111.698 15.9878 112.481 15.5307 113.172C15.0735 113.858 14.524 114.397 13.882 114.791L13.0139 113.755C13.6121 113.396 14.1252 112.916 14.5532 112.318C14.9811 111.715 15.3021 111.051 15.5161 110.327C15.7349 109.602 15.8443 108.861 15.8443 108.102V105.665H16.924V108.102ZM17.1793 108.043C17.1793 108.768 17.279 109.476 17.4784 110.166C17.6778 110.852 17.9745 111.482 18.3684 112.056C18.7672 112.63 19.2462 113.089 19.8055 113.434L19.0322 114.499C18.4 114.12 17.8675 113.592 17.4346 112.916C17.0018 112.236 16.676 111.479 16.4571 110.648C16.2431 109.816 16.1361 108.948 16.1361 108.043V105.665H17.1793V108.043ZM24.445 117.541H23.1101V104.469H24.445V117.541ZM21.7313 116.899H20.4255V104.717H21.7313V116.899ZM85.97 106.563C85.97 107.326 85.8169 108.043 85.5105 108.715C85.2089 109.386 84.7761 109.969 84.212 110.465C83.6527 110.961 82.9962 111.336 82.2424 111.589L81.5202 110.502C82.1962 110.298 82.7822 109.996 83.2782 109.597C83.7792 109.194 84.1633 108.732 84.4308 108.211C84.7032 107.686 84.8393 107.136 84.8393 106.563V105.6H85.97V106.563ZM86.24 106.563C86.24 107.102 86.3737 107.62 86.6412 108.116C86.9135 108.612 87.2977 109.05 87.7938 109.43C88.2898 109.804 88.8685 110.088 89.53 110.283L88.8296 111.37C88.0758 111.137 87.4169 110.784 86.8527 110.312C86.2935 109.84 85.8606 109.281 85.5542 108.634C85.2527 107.988 85.102 107.297 85.102 106.563V105.6H86.24V106.563ZM89.1287 106.417H81.9068V105.301H89.1287V106.417ZM92.2436 111.552H90.8649V104.469H92.2436V111.552ZM85.0582 113.631H90.8722V112.165H92.2436V117.381H83.6867V112.165H85.0582V113.631ZM90.8722 116.258V114.718H85.0582V116.258H90.8722Z" fill="#2551F4"/>
<path d="M36.9411 117.578H35.5478V104.469H36.9411V117.578ZM29.9381 105.454C30.5897 105.454 31.1709 105.643 31.6815 106.023C32.1922 106.402 32.591 106.937 32.8779 107.628C33.1648 108.318 33.3083 109.123 33.3083 110.042C33.3083 110.966 33.1648 111.774 32.8779 112.464C32.591 113.155 32.1922 113.69 31.6815 114.069C31.1709 114.444 30.5897 114.631 29.9381 114.631C29.2864 114.631 28.7028 114.444 28.1873 114.069C27.6766 113.69 27.2779 113.155 26.9909 112.464C26.704 111.774 26.5605 110.966 26.5605 110.042C26.5605 109.123 26.704 108.318 26.9909 107.628C27.2779 106.937 27.6766 106.402 28.1873 106.023C28.7028 105.643 29.2864 105.454 29.9381 105.454ZM29.9381 106.694C29.5393 106.694 29.1843 106.83 28.873 107.102C28.5618 107.375 28.321 107.764 28.1508 108.27C27.9855 108.771 27.9028 109.361 27.9028 110.042C27.9028 110.718 27.9855 111.309 28.1508 111.815C28.321 112.321 28.5618 112.71 28.873 112.982C29.1843 113.25 29.5393 113.383 29.9381 113.383C30.3368 113.383 30.6894 113.25 30.9958 112.982C31.3071 112.71 31.5478 112.321 31.718 111.815C31.8882 111.309 31.9733 110.718 31.9733 110.042C31.9733 109.361 31.8882 108.771 31.718 108.27C31.5478 107.764 31.3095 107.375 31.0031 107.102C30.6967 106.83 30.3417 106.694 29.9381 106.694ZM50.9838 115.922H39.0202V114.755H50.9838V115.922ZM49.8896 106.862H40.0342V105.731H49.8896V106.862ZM49.8531 112.34H40.0779V111.231H49.8531V112.34ZM43.3971 111.355H42.0184V106.76H43.3971V111.355ZM47.8981 111.355H46.5339V106.76H47.8981V111.355ZM62.1158 117.541H60.7443V104.469H62.1158V117.541ZM64.224 110.918H61.8021V109.772H64.224V110.918ZM59.6063 107.65H51.8592V106.519H59.6063V107.65ZM55.7911 108.62C56.4136 108.62 56.9705 108.749 57.4617 109.006C57.9577 109.264 58.3443 109.624 58.6215 110.086C58.9036 110.548 59.0446 111.071 59.0446 111.654C59.0446 112.243 58.9036 112.768 58.6215 113.23C58.3443 113.692 57.9577 114.052 57.4617 114.31C56.9705 114.568 56.4136 114.696 55.7911 114.696C55.1638 114.696 54.6045 114.568 54.1133 114.31C53.6221 114.052 53.2355 113.692 52.9534 113.23C52.6762 112.768 52.5376 112.243 52.5376 111.654C52.5376 111.071 52.6762 110.548 52.9534 110.086C53.2355 109.624 53.6221 109.264 54.1133 109.006C54.6045 108.749 55.1638 108.62 55.7911 108.62ZM55.7911 109.765C55.4215 109.765 55.0908 109.845 54.799 110.006C54.5072 110.161 54.2762 110.383 54.106 110.67C53.9407 110.957 53.858 111.285 53.858 111.654C53.858 112.029 53.9407 112.357 54.106 112.639C54.2762 112.921 54.5072 113.143 54.799 113.303C55.0908 113.459 55.4215 113.537 55.7911 113.537C56.1607 113.537 56.4914 113.459 56.7832 113.303C57.075 113.143 57.3036 112.921 57.4689 112.639C57.6343 112.357 57.717 112.029 57.717 111.654C57.717 111.285 57.6343 110.957 57.4689 110.67C57.3036 110.383 57.075 110.161 56.7832 110.006C56.4914 109.845 56.1607 109.765 55.7911 109.765ZM56.4695 107H55.0908V104.644H56.4695V107ZM76.0782 117.541H74.7651V104.469H76.0782V117.541ZM72.3505 110.845H69.1626V109.729H72.3505V110.845ZM73.3207 116.914H72.0076V104.805H73.3207V116.914ZM70.5122 106.103C70.5122 107.314 70.3468 108.445 70.0161 109.495C69.6903 110.541 69.1626 111.509 68.4332 112.399C67.7037 113.289 66.7578 114.074 65.5954 114.755L64.8003 113.763C65.8119 113.164 66.641 112.491 67.2879 111.742C67.9347 110.988 68.4113 110.166 68.7177 109.276C69.024 108.381 69.1772 107.411 69.1772 106.366V106.103H70.5122ZM69.666 107.234H65.4131V106.103H69.666V107.234ZM104.032 106.417H95.7671V105.293H104.032V106.417ZM106.235 112.026H94.3154V110.896H106.235V112.026ZM100.932 117.571H99.5458V111.662H100.932V117.571ZM104.718 106.57C104.718 107.158 104.708 107.681 104.689 108.138C104.669 108.591 104.623 109.111 104.55 109.699C104.482 110.283 104.368 110.913 104.207 111.589L102.836 111.428C102.996 110.762 103.113 110.14 103.186 109.561C103.259 108.982 103.303 108.469 103.317 108.022C103.332 107.574 103.339 107.051 103.339 106.453V105.293H104.718V106.446V106.57ZM117.411 117.541H116.04V104.469H117.411V117.541ZM119.519 110.918H117.097V109.772H119.519V110.918ZM114.902 107.65H107.154V106.519H114.902V107.65ZM111.086 108.62C111.709 108.62 112.266 108.749 112.757 109.006C113.253 109.264 113.64 109.624 113.917 110.086C114.199 110.548 114.34 111.071 114.34 111.654C114.34 112.243 114.199 112.768 113.917 113.23C113.64 113.692 113.253 114.052 112.757 114.31C112.266 114.568 111.709 114.696 111.086 114.696C110.459 114.696 109.9 114.568 109.409 114.31C108.917 114.052 108.531 113.692 108.249 113.23C107.971 112.768 107.833 112.243 107.833 111.654C107.833 111.071 107.971 110.548 108.249 110.086C108.531 109.624 108.917 109.264 109.409 109.006C109.9 108.749 110.459 108.62 111.086 108.62ZM111.086 109.765C110.717 109.765 110.386 109.845 110.094 110.006C109.802 110.161 109.571 110.383 109.401 110.67C109.236 110.957 109.153 111.285 109.153 111.654C109.153 112.029 109.236 112.357 109.401 112.639C109.571 112.921 109.802 113.143 110.094 113.303C110.386 113.459 110.717 113.537 111.086 113.537C111.456 113.537 111.787 113.459 112.078 113.303C112.37 113.143 112.599 112.921 112.764 112.639C112.93 112.357 113.012 112.029 113.012 111.654C113.012 111.285 112.93 110.957 112.764 110.67C112.599 110.383 112.37 110.161 112.078 110.006C111.787 109.845 111.456 109.765 111.086 109.765ZM111.765 107H110.386V104.644H111.765V107ZM130.731 109.4H121.708V108.306H130.731V109.4ZM132.088 112.165H120.125V111.056H132.088V112.165ZM123.086 108.861H121.708V104.95H123.086V108.861ZM130.804 117.235H121.62V116.097H130.804V117.235ZM123.006 116.425H121.62V113.413H123.006V116.425ZM142.746 112.617C143.641 112.617 144.414 112.712 145.066 112.902C145.722 113.092 146.223 113.371 146.569 113.741C146.914 114.11 147.087 114.553 147.087 115.068C147.087 115.589 146.914 116.031 146.569 116.396C146.223 116.766 145.725 117.048 145.073 117.242C144.426 117.442 143.651 117.544 142.746 117.549C141.846 117.544 141.066 117.442 140.404 117.242C139.748 117.048 139.242 116.766 138.887 116.396C138.537 116.031 138.362 115.589 138.362 115.068C138.362 114.553 138.537 114.11 138.887 113.741C139.242 113.371 139.748 113.092 140.404 112.902C141.066 112.712 141.846 112.617 142.746 112.617ZM142.746 113.704C142.119 113.704 141.581 113.758 141.134 113.865C140.687 113.972 140.344 114.127 140.105 114.332C139.872 114.531 139.755 114.777 139.755 115.068C139.755 115.351 139.872 115.596 140.105 115.805C140.344 116.01 140.689 116.168 141.141 116.279C141.594 116.391 142.128 116.447 142.746 116.447C143.373 116.447 143.911 116.391 144.358 116.279C144.806 116.168 145.146 116.01 145.38 115.805C145.618 115.596 145.737 115.351 145.737 115.068C145.737 114.777 145.62 114.531 145.387 114.332C145.153 114.127 144.813 113.972 144.366 113.865C143.923 113.758 143.383 113.704 142.746 113.704ZM146.97 112.282H145.591V104.469H146.97V112.282ZM148.874 108.846H146.583V107.679H148.874V108.846ZM138.566 107.175H141.987V105.293H143.373V111.363H137.202V105.293H138.566V107.175ZM141.987 110.254V108.262H138.566V110.254H141.987ZM151.617 107.051H154.899V105.147H156.264V111.173H150.238V105.147H151.617V107.051ZM154.899 110.057V108.131H151.617V110.057H154.899ZM159.495 108.758H155.906V107.613H159.495V108.758ZM160.509 111.625H159.123V104.469H160.509V111.625ZM153.367 113.69H159.123V112.223H160.495V117.374H151.981V112.223H153.367V113.69ZM159.123 116.243V114.784H153.367V116.243H159.123ZM163.697 119.329H162.464L163.237 115.302H164.879L163.697 119.329ZM177.638 110.225H175.186V109.065H177.638V110.225ZM173.72 108.102C173.72 109.04 173.601 109.947 173.363 110.823C173.129 111.698 172.784 112.481 172.327 113.172C171.87 113.858 171.32 114.397 170.678 114.791L169.81 113.755C170.408 113.396 170.921 112.916 171.349 112.318C171.777 111.715 172.098 111.051 172.312 110.327C172.531 109.602 172.641 108.861 172.641 108.102V105.665H173.72V108.102ZM173.976 108.043C173.976 108.768 174.075 109.476 174.275 110.166C174.474 110.852 174.771 111.482 175.165 112.056C175.563 112.63 176.042 113.089 176.602 113.434L175.828 114.499C175.196 114.12 174.664 113.592 174.231 112.916C173.798 112.236 173.472 111.479 173.253 110.648C173.039 109.816 172.932 108.948 172.932 108.043V105.665H173.976V108.043ZM181.241 117.541H179.906V104.469H181.241V117.541ZM178.528 116.899H177.222V104.717H178.528V116.899ZM187.471 106.563C187.471 107.326 187.318 108.043 187.011 108.715C186.71 109.386 186.277 109.969 185.713 110.465C185.154 110.961 184.497 111.336 183.743 111.589L183.021 110.502C183.697 110.298 184.283 109.996 184.779 109.597C185.28 109.194 185.664 108.732 185.932 108.211C186.204 107.686 186.34 107.136 186.34 106.563V105.6H187.471V106.563ZM187.741 106.563C187.741 107.102 187.875 107.62 188.142 108.116C188.415 108.612 188.799 109.05 189.295 109.43C189.791 109.804 190.37 110.088 191.031 110.283L190.331 111.37C189.577 111.137 188.918 110.784 188.354 110.312C187.794 109.84 187.362 109.281 187.055 108.634C186.754 107.988 186.603 107.297 186.603 106.563V105.6H187.741V106.563ZM190.63 106.417H183.408V105.301H190.63V106.417ZM193.745 111.552H192.366V104.469H193.745V111.552ZM186.559 113.631H192.373V112.165H193.745V117.381H185.188V112.165H186.559V113.631ZM192.373 116.258V114.718H186.559V116.258H192.373ZM198.092 113.274H196.655L196.517 105.746H198.224L198.092 113.274ZM197.37 116.411C197.19 116.411 197.02 116.362 196.86 116.265C196.699 116.168 196.573 116.041 196.48 115.885C196.388 115.725 196.342 115.552 196.342 115.368C196.342 115.188 196.388 115.017 196.48 114.857C196.573 114.696 196.699 114.572 196.86 114.485C197.02 114.392 197.19 114.346 197.37 114.346C197.555 114.346 197.725 114.392 197.881 114.485C198.041 114.572 198.168 114.696 198.26 114.857C198.357 115.017 198.406 115.188 198.406 115.368C198.406 115.552 198.357 115.725 198.26 115.885C198.168 116.041 198.041 116.168 197.881 116.265C197.725 116.362 197.555 116.411 197.37 116.411Z" fill="#787878"/>
<circle cx="79.0704" cy="12.3175" r="12.3175" fill="#B6C3F3" fill-opacity="0.5"/>
<path d="M78.8018 6.74373L74.5958 8.84672C74.3923 8.94849 74.262 9.15508 74.2725 9.38243C74.384 11.8115 75.5743 16.0709 78.7947 17.8793C78.9652 17.975 79.1744 17.9714 79.3427 17.8718C82.7968 15.825 83.679 11.6043 83.8525 9.40244C83.8712 9.16525 83.74 8.94415 83.5272 8.83775L79.3392 6.74373C79.17 6.65915 78.9709 6.65915 78.8018 6.74373Z" fill="#2551F4"/>
<path d="M79.0702 3.60547L71.5596 7.27383C71.5596 10.9422 73.4372 18.2789 79.0702 21.0302C85.1726 17.8204 86.4244 10.4837 86.5809 7.27383L79.0702 3.60547Z" stroke="#2551F4" stroke-width="1.50213" stroke-linejoin="round"/>
</svg>
