<svg width="16" height="16" viewBox="0 0 16 16" fill="none" xmlns="http://www.w3.org/2000/svg">
<path d="M8.36477 0.931641C4.15648 0.931641 0.762695 3.66646 0.762695 6.98656C0.762695 9.14161 2.17451 11.0286 4.29223 12.1062L3.57546 14.8028C3.56195 14.8432 3.55987 14.8865 3.56946 14.9281C3.57905 14.9696 3.59993 15.0077 3.62976 15.0379C3.67326 15.0766 3.72923 15.0979 3.78724 15.0981C3.83533 15.0942 3.88095 15.0751 3.91756 15.0434L7.00183 12.9485C7.45711 13.0118 7.91604 13.0447 8.37563 13.0469C12.5785 13.0469 15.9777 10.3121 15.9777 6.98656C15.9777 3.66099 12.5676 0.931641 8.36477 0.931641Z" fill="#392020"/>
<path d="M3.42306 6.02899H2.59226C2.48929 6.032 2.38759 6.00543 2.29904 5.9524C2.25972 5.92759 2.22592 5.89485 2.19976 5.85626C2.1736 5.81767 2.15563 5.77404 2.147 5.72813C2.14436 5.69902 2.14436 5.66977 2.147 5.64066C2.14442 5.58619 2.15491 5.53186 2.1776 5.48235C2.20029 5.43284 2.23449 5.38959 2.27732 5.35623C2.37198 5.28717 2.48625 5.25068 2.60312 5.25227H5.10638C5.21017 5.24859 5.31256 5.27726 5.3996 5.33433C5.43984 5.35804 5.47435 5.39049 5.50065 5.42927C5.52694 5.46805 5.54436 5.51222 5.55164 5.5586C5.55429 5.58588 5.55429 5.61338 5.55164 5.64066C5.5542 5.69592 5.54373 5.75098 5.52108 5.80137C5.49842 5.85176 5.46424 5.89599 5.42132 5.9305C5.32896 5.99948 5.2158 6.03428 5.10095 6.02899H4.2973V8.90605C4.30056 8.96734 4.29115 9.02862 4.26965 9.08606C4.24815 9.14349 4.21503 9.19583 4.17241 9.23969C4.13153 9.28164 4.0824 9.31451 4.02815 9.33617C3.97391 9.35784 3.91577 9.36781 3.85746 9.36548C3.75548 9.36841 3.65567 9.33559 3.5751 9.27254C3.4984 9.21096 3.44634 9.12352 3.42849 9.02637C3.42313 8.98644 3.42313 8.94598 3.42849 8.90605L3.42306 6.02899Z" fill="#FEE500"/>
<path d="M5.79163 5.46463C5.81551 5.37462 5.8716 5.29668 5.9491 5.24583C6.03168 5.19868 6.12578 5.17593 6.2206 5.18019H6.42694C6.52756 5.17656 6.6272 5.20118 6.71474 5.2513C6.80749 5.31413 6.8734 5.4098 6.89936 5.51931L7.98537 8.6097C8.01353 8.69033 8.03709 8.77254 8.05596 8.85587C8.05782 8.89049 8.05782 8.92515 8.05596 8.95977C8.0578 9.01308 8.04806 9.06615 8.02742 9.11527C8.00679 9.1644 7.97576 9.20841 7.9365 9.2442C7.89845 9.28348 7.85278 9.31444 7.80233 9.33514C7.75188 9.35584 7.69773 9.36583 7.64327 9.36452C7.55952 9.37291 7.47541 9.35267 7.40448 9.30703C7.33356 9.26139 7.27995 9.19301 7.25231 9.11293L7.02425 8.44017H5.59615L5.36808 9.11293C5.34111 9.19459 5.28686 9.26429 5.21458 9.31017C5.1423 9.35605 5.05646 9.37525 4.97169 9.36452C4.87987 9.36694 4.78993 9.33802 4.71647 9.28246C4.64491 9.22513 4.59663 9.14347 4.58072 9.05278C4.57784 9.02185 4.57784 8.99069 4.58072 8.95977C4.5714 8.90547 4.5714 8.85001 4.58072 8.79572C4.58072 8.73555 4.61873 8.66987 4.64045 8.6097L5.79163 5.46463ZM6.33463 6.18119L5.81878 7.8221H6.84506L6.33463 6.18119Z" fill="#FEE500"/>
<path d="M8.18016 5.63965C8.17465 5.5169 8.21759 5.39695 8.29962 5.306C8.34132 5.26363 8.39138 5.23052 8.44656 5.20885C8.50175 5.18718 8.56083 5.17738 8.61999 5.18014C8.72171 5.17895 8.82098 5.21166 8.90235 5.27315C8.97777 5.33731 9.02787 5.42656 9.04354 5.52474C9.04888 5.56283 9.04888 5.60155 9.04354 5.63965V8.51671H10.5368C10.6403 8.51534 10.742 8.54376 10.83 8.5987C10.8696 8.62325 10.9035 8.65594 10.9297 8.69458C10.9559 8.73321 10.9737 8.77695 10.9821 8.82298C10.9821 8.82298 10.9821 8.87769 10.9821 8.90503C10.9846 8.9595 10.9741 9.01376 10.9515 9.06328C10.9288 9.11279 10.8946 9.15611 10.8517 9.18947C10.7571 9.25853 10.6428 9.29494 10.5259 9.29336H8.69058C8.57369 9.30094 8.4575 9.27029 8.35935 9.20589C8.27156 9.13977 8.21306 9.04156 8.19645 8.93241C8.19247 8.87231 8.19247 8.81197 8.19645 8.75187L8.18016 5.63965Z" fill="#FEE500"/>
<path d="M11.0801 5.64121C11.0768 5.51882 11.1195 5.39969 11.1995 5.30757C11.2809 5.23308 11.3853 5.18909 11.4951 5.18311C11.6049 5.17713 11.7134 5.2095 11.8023 5.27472C11.8793 5.33831 11.9313 5.42752 11.9489 5.5263C11.9516 5.56454 11.9516 5.60297 11.9489 5.64121V6.98126L13.3227 5.38408C13.3756 5.3296 13.4318 5.2785 13.491 5.23098C13.5468 5.19753 13.6107 5.18043 13.6756 5.18171C13.7705 5.18119 13.8633 5.20982 13.9417 5.26377C13.9786 5.28881 14.0101 5.32112 14.0344 5.35871C14.0587 5.3963 14.0751 5.43841 14.0829 5.48257C14.0851 5.4934 14.0851 5.50459 14.0829 5.51542C14.0802 5.52804 14.0802 5.54105 14.0829 5.55368C14.0827 5.61123 14.0677 5.66779 14.0394 5.71779C14.0106 5.77074 13.976 5.82022 13.9363 5.86542L13.0349 6.86094L14.1209 8.55653V8.61121C14.1773 8.6896 14.2212 8.77637 14.2512 8.86834V8.89565C14.2575 8.95902 14.2484 9.023 14.2248 9.08207C14.2011 9.14113 14.1636 9.19351 14.1155 9.23477C14.0249 9.30373 13.9141 9.34033 13.8005 9.33873C13.7251 9.34186 13.6502 9.32483 13.5833 9.28945C13.511 9.24059 13.4514 9.17495 13.4096 9.09802L12.3996 7.45712L11.9163 7.96583V8.87922C11.9195 9.00162 11.8769 9.12074 11.7968 9.21287C11.7539 9.25511 11.7029 9.28811 11.6468 9.30975C11.5908 9.33138 11.531 9.34125 11.471 9.33873C11.3708 9.34084 11.273 9.30796 11.1941 9.24572C11.1174 9.18413 11.0653 9.09676 11.0475 8.99961C11.0421 8.95968 11.0421 8.91915 11.0475 8.87922L11.0801 5.64121Z" fill="#FEE500"/>
</svg>
