<svg width="137" height="48" viewBox="0 0 137 48" fill="none" xmlns="http://www.w3.org/2000/svg">
<path d="M28.0889 29.6877L39.0119 8.14453L47.5494 29.6877H28.0889Z" fill="#2551F4"/>
<rect x="8.62891" y="29.1616" width="33.2554" height="15.7633" fill="#2551F4"/>
<path d="M61.204 3.576C62.932 3.576 64.38 3.872 65.548 4.464C65.9 4.64 66.124 4.904 66.22 5.256C66.316 5.608 66.268 5.96 66.076 6.312C65.884 6.68 65.636 6.912 65.332 7.008C65.028 7.088 64.708 7.056 64.372 6.912C63.86 6.688 63.372 6.536 62.908 6.456C62.444 6.36 61.892 6.312 61.252 6.312C60.724 6.312 60.26 6.376 59.86 6.504C59.476 6.616 59.148 6.776 58.876 6.984C58.604 7.176 58.396 7.4 58.252 7.656C58.124 7.896 58.06 8.144 58.06 8.4V8.544C58.06 8.848 58.108 9.112 58.204 9.336C58.316 9.56 58.5 9.768 58.756 9.96C59.028 10.136 59.396 10.304 59.86 10.464C60.324 10.608 60.924 10.752 61.66 10.896C63.66 11.312 65.092 11.928 65.956 12.744C66.82 13.56 67.252 14.608 67.252 15.888V16.104C67.252 17.752 66.716 19.008 65.644 19.872C64.572 20.736 62.988 21.168 60.892 21.168C59.9 21.168 58.932 21.048 57.988 20.808C57.06 20.552 56.276 20.224 55.636 19.824C55.252 19.584 55.036 19.28 54.988 18.912C54.94 18.528 55.028 18.168 55.252 17.832C55.476 17.48 55.748 17.264 56.068 17.184C56.388 17.104 56.732 17.168 57.1 17.376C57.66 17.696 58.276 17.952 58.948 18.144C59.62 18.32 60.316 18.408 61.036 18.408C62.14 18.408 62.94 18.216 63.436 17.832C63.932 17.432 64.18 16.936 64.18 16.344V16.176C64.18 15.504 63.916 14.984 63.388 14.616C62.876 14.232 62.044 13.928 60.892 13.704C59.884 13.512 59.012 13.288 58.276 13.032C57.54 12.776 56.924 12.456 56.428 12.072C55.948 11.672 55.588 11.2 55.348 10.656C55.124 10.096 55.012 9.416 55.012 8.616V8.448C55.012 7.776 55.14 7.144 55.396 6.552C55.668 5.96 56.068 5.448 56.596 5.016C57.124 4.568 57.772 4.216 58.54 3.96C59.308 3.704 60.196 3.576 61.204 3.576ZM74.6914 15.456C73.8914 15.456 73.3314 15.608 73.0114 15.912C72.7074 16.216 72.5554 16.624 72.5554 17.136V17.184C72.5554 18.112 73.1554 18.576 74.3554 18.576C75.2994 18.576 76.0434 18.416 76.5874 18.096C76.9714 17.872 77.2434 17.608 77.4034 17.304C77.5794 17 77.6674 16.592 77.6674 16.08V15.456H74.6914ZM75.3154 7.872C76.0834 7.872 76.7954 7.968 77.4514 8.16C78.1074 8.352 78.6674 8.632 79.1314 9C79.6114 9.352 79.9794 9.792 80.2354 10.32C80.5074 10.832 80.6434 11.424 80.6434 12.096V19.896C80.6434 20.296 80.4994 20.592 80.2114 20.784C79.9394 20.96 79.6274 21.048 79.2754 21.048C78.9234 21.048 78.6034 20.96 78.3154 20.784C78.0434 20.592 77.9074 20.296 77.9074 19.896V19.272H77.8834C77.7554 19.544 77.5714 19.784 77.3314 19.992C77.0914 20.2 76.8034 20.392 76.4674 20.568C76.1474 20.728 75.7794 20.856 75.3634 20.952C74.9474 21.048 74.5314 21.096 74.1154 21.096C72.6754 21.096 71.5634 20.768 70.7794 20.112C70.0114 19.456 69.6274 18.528 69.6274 17.328V16.944C69.6274 16.4 69.7074 15.896 69.8674 15.432C70.0434 14.968 70.3234 14.568 70.7074 14.232C71.1074 13.88 71.6194 13.608 72.2434 13.416C72.8834 13.224 73.6754 13.128 74.6194 13.128H77.6434V12.792C77.6434 11.976 77.4514 11.392 77.0674 11.04C76.6994 10.672 76.1074 10.488 75.2914 10.488C74.2034 10.488 73.1794 10.776 72.2194 11.352C71.8994 11.544 71.5794 11.6 71.2594 11.52C70.9554 11.424 70.7074 11.216 70.5154 10.896C70.3394 10.592 70.2674 10.28 70.2994 9.96C70.3474 9.624 70.5314 9.352 70.8514 9.144C71.4274 8.76 72.0994 8.456 72.8674 8.232C73.6514 7.992 74.4674 7.872 75.3154 7.872ZM89.2418 3.096C89.8338 3.096 90.3778 3.176 90.8738 3.336C91.1938 3.448 91.4258 3.616 91.5698 3.84C91.7298 4.064 91.7698 4.368 91.6898 4.752C91.6098 5.12 91.4738 5.4 91.2818 5.592C91.0898 5.768 90.8178 5.824 90.4658 5.76C90.2738 5.728 90.1058 5.704 89.9618 5.688C89.8338 5.672 89.6898 5.664 89.5298 5.664C88.9698 5.664 88.5618 5.808 88.3058 6.096C88.0658 6.368 87.9458 6.776 87.9458 7.32V8.16H90.3938C90.7618 8.16 91.0258 8.288 91.1858 8.544C91.3618 8.784 91.4498 9.072 91.4498 9.408C91.4498 9.744 91.3618 10.04 91.1858 10.296C91.0258 10.536 90.7618 10.656 90.3938 10.656H87.9458V19.776C87.9458 20.208 87.7938 20.528 87.4898 20.736C87.1858 20.944 86.8338 21.048 86.4338 21.048C86.0498 21.048 85.6978 20.944 85.3778 20.736C85.0738 20.528 84.9218 20.208 84.9218 19.776V10.656H83.6978C83.3298 10.656 83.0578 10.536 82.8818 10.296C82.7218 10.04 82.6418 9.744 82.6418 9.408C82.6418 9.072 82.7218 8.784 82.8818 8.544C83.0578 8.288 83.3298 8.16 83.6978 8.16H84.9218V7.248C84.9218 5.92 85.2738 4.896 85.9778 4.176C86.6978 3.456 87.7858 3.096 89.2418 3.096ZM98.9003 10.368C97.8923 10.368 97.1323 10.632 96.6203 11.16C96.1243 11.688 95.8763 12.36 95.8763 13.176V13.344H101.828V13.104C101.828 12.32 101.604 11.672 101.156 11.16C100.708 10.632 99.9563 10.368 98.9003 10.368ZM98.9483 7.872C99.8123 7.872 100.596 8 101.3 8.256C102.004 8.512 102.612 8.88 103.124 9.36C103.636 9.84 104.028 10.432 104.3 11.136C104.588 11.84 104.732 12.648 104.732 13.56V13.608C104.732 14.36 104.58 14.88 104.276 15.168C103.988 15.456 103.46 15.6 102.692 15.6H95.8763V15.648C95.8763 16.512 96.1403 17.216 96.6683 17.76C97.2123 18.304 98.0203 18.576 99.0923 18.576C99.7643 18.576 100.348 18.528 100.844 18.432C101.356 18.32 101.876 18.144 102.404 17.904C102.724 17.76 103.036 17.744 103.34 17.856C103.644 17.952 103.868 18.168 104.012 18.504C104.156 18.84 104.188 19.168 104.108 19.488C104.028 19.792 103.828 20.024 103.508 20.184C102.9 20.488 102.236 20.72 101.516 20.88C100.796 21.024 99.9483 21.096 98.9723 21.096C97.0523 21.096 95.5643 20.576 94.5083 19.536C93.4523 18.48 92.9243 16.904 92.9243 14.808V14.184C92.9243 12.104 93.4603 10.536 94.5323 9.48C95.6043 8.408 97.0763 7.872 98.9483 7.872ZM56.98 29.696C57.396 29.696 57.756 29.8 58.06 30.008C58.364 30.216 58.516 30.552 58.516 31.016V36.728H65.692V31.016C65.692 30.552 65.844 30.216 66.148 30.008C66.452 29.8 66.812 29.696 67.228 29.696C67.644 29.696 68.004 29.8 68.308 30.008C68.612 30.216 68.764 30.552 68.764 31.016V45.728C68.764 46.192 68.612 46.528 68.308 46.736C68.004 46.944 67.644 47.048 67.228 47.048C66.812 47.048 66.452 46.944 66.148 46.736C65.844 46.528 65.692 46.192 65.692 45.728V39.272H58.516V45.728C58.516 46.192 58.364 46.528 58.06 46.736C57.756 46.944 57.396 47.048 56.98 47.048C56.564 47.048 56.204 46.944 55.9 46.736C55.596 46.528 55.444 46.192 55.444 45.728V31.016C55.444 30.552 55.596 30.216 55.9 30.008C56.204 29.8 56.564 29.696 56.98 29.696ZM77.9991 33.872C79.9511 33.872 81.4711 34.408 82.5591 35.48C83.6471 36.536 84.1911 38.104 84.1911 40.184V40.784C84.1911 42.864 83.6471 44.44 82.5591 45.512C81.4711 46.568 79.9511 47.096 77.9991 47.096C76.0471 47.096 74.5271 46.568 73.4391 45.512C72.3511 44.44 71.8071 42.864 71.8071 40.784V40.184C71.8071 38.104 72.3511 36.536 73.4391 35.48C74.5271 34.408 76.0471 33.872 77.9991 33.872ZM77.9991 36.512C76.9111 36.512 76.1111 36.808 75.5991 37.4C75.1031 37.992 74.8551 38.936 74.8551 40.232V40.736C74.8551 42.032 75.1031 42.976 75.5991 43.568C76.1111 44.16 76.9111 44.456 77.9991 44.456C79.0871 44.456 79.8791 44.16 80.3751 43.568C80.8871 42.976 81.1431 42.032 81.1431 40.736V40.232C81.1431 38.936 80.8871 37.992 80.3751 37.4C79.8791 36.808 79.0871 36.512 77.9991 36.512ZM88.4967 34.016C88.8807 34.016 89.2247 34.12 89.5287 34.328C89.8487 34.536 90.0087 34.856 90.0087 35.288V41.576C90.0087 42.152 90.0727 42.632 90.2007 43.016C90.3287 43.384 90.5047 43.68 90.7287 43.904C90.9527 44.112 91.2167 44.264 91.5207 44.36C91.8247 44.44 92.1527 44.48 92.5047 44.48C92.8087 44.48 93.1207 44.432 93.4407 44.336C93.7767 44.24 94.0807 44.072 94.3527 43.832C94.6247 43.592 94.8487 43.272 95.0247 42.872C95.2167 42.472 95.3127 41.976 95.3127 41.384V35.288C95.3127 34.856 95.4647 34.536 95.7687 34.328C96.0727 34.12 96.4247 34.016 96.8247 34.016C97.2087 34.016 97.5527 34.12 97.8567 34.328C98.1767 34.536 98.3367 34.856 98.3367 35.288V45.824C98.3367 46.24 98.1847 46.552 97.8807 46.76C97.5927 46.952 97.2647 47.048 96.8967 47.048C96.5287 47.048 96.1927 46.952 95.8887 46.76C95.6007 46.552 95.4567 46.24 95.4567 45.824V45.32H95.4087C95.2167 45.64 94.9767 45.912 94.6887 46.136C94.4007 46.36 94.0807 46.544 93.7287 46.688C93.3927 46.832 93.0327 46.936 92.6487 47C92.2807 47.08 91.9207 47.12 91.5687 47.12C90.1767 47.12 89.0647 46.712 88.2327 45.896C87.4007 45.064 86.9847 43.84 86.9847 42.224V35.288C86.9847 34.856 87.1367 34.536 87.4407 34.328C87.7447 34.12 88.0967 34.016 88.4967 34.016ZM106.429 33.872C108.013 33.872 109.261 34.12 110.173 34.616C110.573 34.84 110.821 35.104 110.917 35.408C111.013 35.712 110.973 36.048 110.797 36.416C110.653 36.72 110.445 36.928 110.173 37.04C109.901 37.136 109.589 37.104 109.237 36.944C108.869 36.768 108.461 36.632 108.013 36.536C107.581 36.44 107.165 36.392 106.765 36.392C105.853 36.392 105.221 36.504 104.869 36.728C104.517 36.952 104.341 37.216 104.341 37.52V37.568C104.341 37.76 104.365 37.928 104.413 38.072C104.461 38.2 104.565 38.32 104.725 38.432C104.901 38.528 105.149 38.624 105.469 38.72C105.789 38.8 106.229 38.896 106.789 39.008C107.749 39.2 108.541 39.416 109.165 39.656C109.789 39.88 110.285 40.152 110.653 40.472C111.021 40.792 111.277 41.176 111.421 41.624C111.565 42.056 111.637 42.576 111.637 43.184V43.28C111.637 43.824 111.509 44.328 111.253 44.792C111.013 45.256 110.661 45.664 110.197 46.016C109.749 46.352 109.197 46.616 108.541 46.808C107.901 47 107.181 47.096 106.381 47.096C105.437 47.096 104.565 47 103.765 46.808C102.965 46.616 102.261 46.352 101.653 46.016C101.317 45.84 101.117 45.584 101.053 45.248C100.989 44.896 101.037 44.56 101.197 44.24C101.373 43.904 101.613 43.68 101.917 43.568C102.221 43.456 102.549 43.488 102.901 43.664C103.413 43.936 103.965 44.152 104.557 44.312C105.165 44.472 105.765 44.552 106.357 44.552C107.189 44.552 107.765 44.432 108.085 44.192C108.405 43.952 108.565 43.648 108.565 43.28V43.232C108.565 43.04 108.541 42.872 108.493 42.728C108.445 42.584 108.325 42.456 108.133 42.344C107.941 42.232 107.661 42.128 107.293 42.032C106.925 41.936 106.429 41.824 105.805 41.696C104.957 41.536 104.245 41.344 103.669 41.12C103.109 40.896 102.653 40.624 102.301 40.304C101.949 39.968 101.693 39.584 101.533 39.152C101.389 38.704 101.317 38.192 101.317 37.616V37.52C101.317 37.04 101.421 36.584 101.629 36.152C101.837 35.704 102.149 35.312 102.565 34.976C102.997 34.64 103.533 34.376 104.173 34.184C104.813 33.976 105.565 33.872 106.429 33.872ZM119.525 36.368C118.517 36.368 117.757 36.632 117.245 37.16C116.749 37.688 116.501 38.36 116.501 39.176V39.344H122.453V39.104C122.453 38.32 122.229 37.672 121.781 37.16C121.333 36.632 120.581 36.368 119.525 36.368ZM119.573 33.872C120.437 33.872 121.221 34 121.925 34.256C122.629 34.512 123.237 34.88 123.749 35.36C124.261 35.84 124.653 36.432 124.925 37.136C125.213 37.84 125.357 38.648 125.357 39.56V39.608C125.357 40.36 125.205 40.88 124.901 41.168C124.613 41.456 124.085 41.6 123.317 41.6H116.501V41.648C116.501 42.512 116.765 43.216 117.293 43.76C117.837 44.304 118.645 44.576 119.717 44.576C120.389 44.576 120.973 44.528 121.469 44.432C121.981 44.32 122.501 44.144 123.029 43.904C123.349 43.76 123.661 43.744 123.965 43.856C124.269 43.952 124.493 44.168 124.637 44.504C124.781 44.84 124.813 45.168 124.733 45.488C124.653 45.792 124.453 46.024 124.133 46.184C123.525 46.488 122.861 46.72 122.141 46.88C121.421 47.024 120.573 47.096 119.597 47.096C117.677 47.096 116.189 46.576 115.133 45.536C114.077 44.48 113.549 42.904 113.549 40.808V40.184C113.549 38.104 114.085 36.536 115.157 35.48C116.229 34.408 117.701 33.872 119.573 33.872Z" fill="black"/>
<path d="M0.5 32.5777L15.896 2.89014H41.8845L27.298 32.5777H0.5Z" fill="#2551F4"/>
<path d="M5.94824 15.28L9.32846 7.92383H28.1185L24.6389 15.28H5.94824Z" fill="#0E298D"/>
<path d="M13.3789 28.1647L17.0655 21.6597H37.5586L33.7635 28.1647H13.3789Z" fill="#0E298D"/>
<path d="M4.19531 8.14437L7.61309 0H26.6119L23.0936 8.14437H4.19531Z" fill="#5075FF" fill-opacity="0.6"/>
<path d="M12.5703 23.4911L16.2901 16.2891H36.9678L33.1386 23.4911H12.5703Z" fill="#5075FF" fill-opacity="0.6"/>
</svg>
