<svg width="328" height="63" viewBox="0 0 328 63" fill="none" xmlns="http://www.w3.org/2000/svg">
<path d="M148.159 52.8916H145.698V51.7271H148.159V52.8916ZM144.226 50.7603C144.226 51.7026 144.106 52.6133 143.867 53.4922C143.633 54.3711 143.286 55.1572 142.827 55.8506C142.368 56.5391 141.816 57.0811 141.172 57.4766L140.3 56.4365C140.901 56.0752 141.416 55.5942 141.846 54.9937C142.275 54.3882 142.598 53.7217 142.812 52.9941C143.032 52.2666 143.142 51.522 143.142 50.7603V48.314H144.226V50.7603ZM144.482 50.7017C144.482 51.4292 144.583 52.1396 144.783 52.833C144.983 53.5215 145.281 54.1538 145.676 54.73C146.077 55.3062 146.558 55.7676 147.119 56.1143L146.343 57.1836C145.708 56.8027 145.173 56.2729 144.739 55.5942C144.304 54.9106 143.977 54.1514 143.757 53.3164C143.542 52.4814 143.435 51.6099 143.435 50.7017V48.314H144.482V50.7017ZM151.777 60.2378H150.437V47.1128H151.777V60.2378ZM149.053 59.5933H147.742V47.3618H149.053V59.5933ZM164.324 60.2744H162.925V47.1128H164.324V60.2744ZM157.292 48.1016C157.947 48.1016 158.53 48.292 159.043 48.6729C159.556 49.0537 159.956 49.5908 160.244 50.2842C160.532 50.9775 160.676 51.7856 160.676 52.7085C160.676 53.6362 160.532 54.4468 160.244 55.1401C159.956 55.8335 159.556 56.3706 159.043 56.7515C158.53 57.1274 157.947 57.3154 157.292 57.3154C156.638 57.3154 156.052 57.1274 155.535 56.7515C155.022 56.3706 154.622 55.8335 154.333 55.1401C154.045 54.4468 153.901 53.6362 153.901 52.7085C153.901 51.7856 154.045 50.9775 154.333 50.2842C154.622 49.5908 155.022 49.0537 155.535 48.6729C156.052 48.292 156.638 48.1016 157.292 48.1016ZM157.292 49.3467C156.892 49.3467 156.536 49.4834 156.223 49.7568C155.911 50.0303 155.669 50.4209 155.498 50.9287C155.332 51.4316 155.249 52.0249 155.249 52.7085C155.249 53.3872 155.332 53.9805 155.498 54.4883C155.669 54.9961 155.911 55.3867 156.223 55.6602C156.536 55.9287 156.892 56.063 157.292 56.063C157.693 56.063 158.047 55.9287 158.354 55.6602C158.667 55.3867 158.909 54.9961 159.08 54.4883C159.25 53.9805 159.336 53.3872 159.336 52.7085C159.336 52.0249 159.25 51.4316 159.08 50.9287C158.909 50.4209 158.669 50.0303 158.362 49.7568C158.054 49.4834 157.698 49.3467 157.292 49.3467ZM178.423 58.6118H166.411V57.4399H178.423V58.6118ZM177.324 49.5151H167.429V48.3799H177.324V49.5151ZM177.288 55.0156H167.473V53.9023H177.288V55.0156ZM170.806 54.0269H169.421V49.4126H170.806V54.0269ZM175.325 54.0269H173.955V49.4126H175.325V54.0269ZM189.6 60.2378H188.223V47.1128H189.6V60.2378ZM191.716 53.5874H189.285V52.4375H191.716V53.5874ZM187.08 50.3062H179.302V49.1709H187.08V50.3062ZM183.25 51.2803C183.875 51.2803 184.434 51.4097 184.927 51.6685C185.425 51.9272 185.813 52.2886 186.091 52.7524C186.375 53.2163 186.516 53.7412 186.516 54.3271C186.516 54.918 186.375 55.4453 186.091 55.9092C185.813 56.373 185.425 56.7344 184.927 56.9932C184.434 57.252 183.875 57.3813 183.25 57.3813C182.62 57.3813 182.058 57.252 181.565 56.9932C181.072 56.7344 180.684 56.373 180.4 55.9092C180.122 55.4453 179.983 54.918 179.983 54.3271C179.983 53.7412 180.122 53.2163 180.4 52.7524C180.684 52.2886 181.072 51.9272 181.565 51.6685C182.058 51.4097 182.62 51.2803 183.25 51.2803ZM183.25 52.4302C182.878 52.4302 182.546 52.5107 182.253 52.6719C181.96 52.8281 181.729 53.0503 181.558 53.3384C181.392 53.6265 181.309 53.9561 181.309 54.3271C181.309 54.7031 181.392 55.0327 181.558 55.3159C181.729 55.5991 181.96 55.8213 182.253 55.9824C182.546 56.1387 182.878 56.2168 183.25 56.2168C183.621 56.2168 183.953 56.1387 184.246 55.9824C184.539 55.8213 184.768 55.5991 184.934 55.3159C185.1 55.0327 185.183 54.7031 185.183 54.3271C185.183 53.9561 185.1 53.6265 184.934 53.3384C184.768 53.0503 184.539 52.8281 184.246 52.6719C183.953 52.5107 183.621 52.4302 183.25 52.4302ZM183.931 49.6543H182.546V47.2886H183.931V49.6543ZM203.618 60.2378H202.3V47.1128H203.618V60.2378ZM199.875 53.5142H196.675V52.3936H199.875V53.5142ZM200.85 59.6079H199.531V47.4497H200.85V59.6079ZM198.03 48.7534C198.03 49.9692 197.864 51.1045 197.532 52.1592C197.205 53.209 196.675 54.1807 195.942 55.0742C195.21 55.9678 194.26 56.7563 193.093 57.4399L192.295 56.4438C193.311 55.8433 194.143 55.167 194.792 54.415C195.442 53.6582 195.92 52.833 196.228 51.9395C196.536 51.041 196.689 50.0669 196.689 49.0171V48.7534H198.03ZM197.18 49.8887H192.91V48.7534H197.18V49.8887ZM213.55 49.2148C213.55 49.9814 213.396 50.7017 213.088 51.3755C212.786 52.0493 212.351 52.6353 211.785 53.1333C211.223 53.6313 210.564 54.0073 209.807 54.2612L209.082 53.1699C209.761 52.9648 210.349 52.6621 210.847 52.2617C211.35 51.8564 211.736 51.3926 212.004 50.8701C212.278 50.3428 212.415 49.791 212.415 49.2148V48.248H213.55V49.2148ZM213.821 49.2148C213.821 49.7568 213.955 50.2769 214.224 50.7749C214.497 51.2729 214.883 51.7124 215.381 52.0933C215.879 52.4692 216.46 52.7549 217.124 52.9502L216.421 54.0415C215.664 53.8071 215.002 53.4531 214.436 52.9795C213.875 52.5059 213.44 51.9443 213.132 51.2949C212.83 50.6455 212.678 49.9521 212.678 49.2148V48.248H213.821V49.2148ZM216.721 49.0684H209.47V47.9478H216.721V49.0684ZM219.849 54.2246H218.464V47.1128H219.849V54.2246ZM212.634 56.312H218.472V54.8398H219.849V60.0767H211.257V54.8398H212.634V56.312ZM218.472 58.9487V57.4033H212.634V58.9487H218.472ZM231.685 49.0684H223.386V47.9404H231.685V49.0684ZM233.896 54.7007H221.929V53.5654H233.896V54.7007ZM228.572 60.2671H227.18V54.3345H228.572V60.2671ZM232.373 49.2222C232.373 49.813 232.363 50.3379 232.344 50.7969C232.324 51.251 232.278 51.7734 232.205 52.3643C232.136 52.9502 232.021 53.5825 231.86 54.2612L230.483 54.1001C230.645 53.4312 230.762 52.8062 230.835 52.2251C230.908 51.644 230.952 51.1289 230.967 50.6797C230.981 50.2305 230.989 49.7056 230.989 49.105V47.9404H232.373V49.0977V49.2222ZM245.117 60.2378H243.74V47.1128H245.117V60.2378ZM247.234 53.5874H244.802V52.4375H247.234V53.5874ZM242.598 50.3062H234.819V49.1709H242.598V50.3062ZM238.767 51.2803C239.392 51.2803 239.951 51.4097 240.444 51.6685C240.942 51.9272 241.331 52.2886 241.609 52.7524C241.892 53.2163 242.034 53.7412 242.034 54.3271C242.034 54.918 241.892 55.4453 241.609 55.9092C241.331 56.373 240.942 56.7344 240.444 56.9932C239.951 57.252 239.392 57.3813 238.767 57.3813C238.137 57.3813 237.576 57.252 237.083 56.9932C236.589 56.7344 236.201 56.373 235.918 55.9092C235.64 55.4453 235.5 54.918 235.5 54.3271C235.5 53.7412 235.64 53.2163 235.918 52.7524C236.201 52.2886 236.589 51.9272 237.083 51.6685C237.576 51.4097 238.137 51.2803 238.767 51.2803ZM238.767 52.4302C238.396 52.4302 238.064 52.5107 237.771 52.6719C237.478 52.8281 237.246 53.0503 237.075 53.3384C236.909 53.6265 236.826 53.9561 236.826 54.3271C236.826 54.7031 236.909 55.0327 237.075 55.3159C237.246 55.5991 237.478 55.8213 237.771 55.9824C238.064 56.1387 238.396 56.2168 238.767 56.2168C239.138 56.2168 239.47 56.1387 239.763 55.9824C240.056 55.8213 240.286 55.5991 240.452 55.3159C240.618 55.0327 240.701 54.7031 240.701 54.3271C240.701 53.9561 240.618 53.6265 240.452 53.3384C240.286 53.0503 240.056 52.8281 239.763 52.6719C239.47 52.5107 239.138 52.4302 238.767 52.4302ZM239.448 49.6543H238.064V47.2886H239.448V49.6543ZM258.491 52.064H249.431V50.9653H258.491V52.064ZM259.854 54.8398H247.842V53.7266H259.854V54.8398ZM250.815 51.522H249.431V47.5962H250.815V51.522ZM258.564 59.9302H249.343V58.7876H258.564V59.9302ZM250.735 59.1172H249.343V56.0923H250.735V59.1172ZM270.554 55.2939C271.453 55.2939 272.229 55.3892 272.883 55.5796C273.542 55.77 274.045 56.0508 274.392 56.4219C274.739 56.793 274.912 57.2373 274.912 57.7549C274.912 58.2773 274.739 58.7217 274.392 59.0879C274.045 59.459 273.545 59.7422 272.891 59.9375C272.241 60.1377 271.462 60.2402 270.554 60.2451C269.651 60.2402 268.867 60.1377 268.203 59.9375C267.544 59.7422 267.036 59.459 266.68 59.0879C266.328 58.7217 266.152 58.2773 266.152 57.7549C266.152 57.2373 266.328 56.793 266.68 56.4219C267.036 56.0508 267.544 55.77 268.203 55.5796C268.867 55.3892 269.651 55.2939 270.554 55.2939ZM270.554 56.3853C269.924 56.3853 269.385 56.439 268.936 56.5464C268.486 56.6538 268.142 56.8101 267.903 57.0151C267.668 57.2153 267.551 57.4619 267.551 57.7549C267.551 58.0381 267.668 58.2847 267.903 58.4946C268.142 58.6997 268.489 58.8584 268.943 58.9707C269.397 59.083 269.934 59.1392 270.554 59.1392C271.184 59.1392 271.724 59.083 272.173 58.9707C272.622 58.8584 272.964 58.6997 273.198 58.4946C273.438 58.2847 273.557 58.0381 273.557 57.7549C273.557 57.4619 273.44 57.2153 273.206 57.0151C272.971 56.8101 272.629 56.6538 272.18 56.5464C271.736 56.439 271.194 56.3853 270.554 56.3853ZM274.795 54.957H273.411V47.1128H274.795V54.957ZM276.707 51.5073H274.407V50.3354H276.707V51.5073ZM266.357 49.8301H269.792V47.9404H271.184V54.0342H264.988V47.9404H266.357V49.8301ZM269.792 52.9209V50.9214H266.357V52.9209H269.792ZM279.46 49.7056H282.756V47.7939H284.126V53.8438H278.076V47.7939H279.46V49.7056ZM282.756 52.7231V50.7896H279.46V52.7231H282.756ZM287.371 51.4194H283.767V50.2695H287.371V51.4194ZM288.389 54.2979H286.997V47.1128H288.389V54.2979ZM281.218 56.3706H286.997V54.8984H288.374V60.0693H279.827V54.8984H281.218V56.3706ZM286.997 58.9341V57.4692H281.218V58.9341H286.997ZM291.589 62.0322H290.352L291.128 57.9893H292.776L291.589 62.0322ZM305.586 52.8916H303.125V51.7271H305.586V52.8916ZM301.653 50.7603C301.653 51.7026 301.533 52.6133 301.294 53.4922C301.06 54.3711 300.713 55.1572 300.254 55.8506C299.795 56.5391 299.243 57.0811 298.599 57.4766L297.727 56.4365C298.328 56.0752 298.843 55.5942 299.272 54.9937C299.702 54.3882 300.024 53.7217 300.239 52.9941C300.459 52.2666 300.569 51.522 300.569 50.7603V48.314H301.653V50.7603ZM301.909 50.7017C301.909 51.4292 302.009 52.1396 302.209 52.833C302.41 53.5215 302.708 54.1538 303.103 54.73C303.503 55.3062 303.984 55.7676 304.546 56.1143L303.77 57.1836C303.135 56.8027 302.6 56.2729 302.166 55.5942C301.731 54.9106 301.404 54.1514 301.184 53.3164C300.969 52.4814 300.862 51.6099 300.862 50.7017V48.314H301.909V50.7017ZM309.204 60.2378H307.864V47.1128H309.204V60.2378ZM306.479 59.5933H305.168V47.3618H306.479V59.5933ZM315.459 49.2148C315.459 49.9814 315.305 50.7017 314.998 51.3755C314.695 52.0493 314.26 52.6353 313.694 53.1333C313.132 53.6313 312.473 54.0073 311.716 54.2612L310.991 53.1699C311.67 52.9648 312.258 52.6621 312.756 52.2617C313.259 51.8564 313.645 51.3926 313.914 50.8701C314.187 50.3428 314.324 49.791 314.324 49.2148V48.248H315.459V49.2148ZM315.73 49.2148C315.73 49.7568 315.864 50.2769 316.133 50.7749C316.406 51.2729 316.792 51.7124 317.29 52.0933C317.788 52.4692 318.369 52.7549 319.033 52.9502L318.33 54.0415C317.573 53.8071 316.912 53.4531 316.345 52.9795C315.784 52.5059 315.349 51.9443 315.042 51.2949C314.739 50.6455 314.587 49.9521 314.587 49.2148V48.248H315.73V49.2148ZM318.63 49.0684H311.379V47.9478H318.63V49.0684ZM321.758 54.2246H320.374V47.1128H321.758V54.2246ZM314.543 56.312H320.381V54.8398H321.758V60.0767H313.167V54.8398H314.543V56.312ZM320.381 58.9487V57.4033H314.543V58.9487H320.381ZM326.123 55.9531H324.68L324.541 48.3945H326.255L326.123 55.9531ZM325.398 59.1025C325.217 59.1025 325.046 59.0537 324.885 58.9561C324.724 58.8584 324.597 58.7314 324.504 58.5752C324.412 58.4141 324.365 58.2407 324.365 58.0552C324.365 57.8745 324.412 57.7036 324.504 57.5425C324.597 57.3813 324.724 57.2568 324.885 57.1689C325.046 57.0762 325.217 57.0298 325.398 57.0298C325.583 57.0298 325.754 57.0762 325.911 57.1689C326.072 57.2568 326.199 57.3813 326.292 57.5425C326.389 57.7036 326.438 57.8745 326.438 58.0552C326.438 58.2407 326.389 58.4141 326.292 58.5752C326.199 58.7314 326.072 58.8584 325.911 58.9561C325.754 59.0537 325.583 59.1025 325.398 59.1025Z" fill="#787878"/>
<circle cx="51.1204" cy="7.96414" r="7.96414" fill="#B6C3F3" fill-opacity="0.5"/>
<path d="M50.9459 4.36031L48.2265 5.72004C48.0949 5.78585 48.0106 5.91942 48.0174 6.06642C48.0895 7.637 48.8591 10.391 50.9414 11.5602C51.0516 11.6221 51.1869 11.6198 51.2957 11.5554C53.529 10.232 54.0994 7.50301 54.2116 6.07935C54.2237 5.92599 54.1389 5.78304 54.0013 5.71424L51.2934 4.36031C51.184 4.30562 51.0553 4.30562 50.9459 4.36031Z" fill="#2551F4"/>
<path d="M51.1179 2.33594L46.2617 4.7078C46.2617 7.07966 47.4758 11.8234 51.1179 13.6023C55.0635 11.5269 55.8729 6.78318 55.9741 4.7078L51.1179 2.33594Z" stroke="#2551F4" stroke-width="0.971236" stroke-linejoin="round"/>
<path d="M28.6211 44.7885L39.9513 23.8359L48.8071 44.7885H28.6211Z" fill="#2551F4"/>
<rect x="8.42969" y="44.2891" width="34.4951" height="15.3311" fill="#2551F4"/>
<path d="M66.1181 24.344C66.0694 23.8494 65.9032 23.4198 65.6195 23.0549C65.3438 22.6901 64.9628 22.4185 64.4764 22.2402C63.998 22.0537 63.4387 21.9605 62.7982 21.9605C62.1496 21.9605 61.5821 22.0577 61.0957 22.2523C60.6173 22.4469 60.2444 22.7185 59.9769 23.0671C59.7174 23.4157 59.5877 23.817 59.5877 24.271C59.5877 24.9358 59.8634 25.4506 60.4147 25.8154C60.9741 26.1803 61.7037 26.4762 62.6036 26.7032L64.2453 27.1166C65.81 27.4815 67.0626 28.0611 68.003 28.8556C68.9434 29.6501 69.4177 30.7568 69.4258 32.1755C69.4258 33.2052 69.1583 34.1132 68.6232 34.8996C68.0962 35.686 67.3301 36.2981 66.3248 36.7359C65.3276 37.1736 64.1318 37.3925 62.7374 37.3925C61.3754 37.3925 60.1877 37.1818 59.1743 36.7602C58.169 36.3305 57.3866 35.7062 56.8272 34.8874C56.2678 34.0686 55.9638 33.0836 55.9152 31.9323H59.0283C59.077 32.5323 59.2675 33.039 59.5999 33.4524C59.9323 33.8578 60.366 34.1659 60.9011 34.3767C61.4362 34.5793 62.0402 34.6807 62.7131 34.6807C63.4103 34.6807 64.0264 34.5753 64.5615 34.3645C65.0966 34.1537 65.51 33.8578 65.8019 33.4768C66.1019 33.0876 66.2519 32.6458 66.2519 32.1512C66.2519 31.7134 66.1262 31.3446 65.8749 31.0446C65.6235 30.7365 65.2668 30.4811 64.8047 30.2785C64.3507 30.0758 63.7751 29.8853 63.0779 29.7069L61.0713 29.1961C59.5634 28.7989 58.4041 28.2152 57.5933 27.445C56.7907 26.6748 56.3894 25.6776 56.3894 24.4534C56.3894 23.4319 56.6691 22.532 57.2285 21.7537C57.7879 20.9673 58.5581 20.3593 59.5391 19.9296C60.5201 19.4918 61.6226 19.2729 62.8468 19.2729C64.071 19.2729 65.1574 19.4878 66.1059 19.9174C67.0626 20.3471 67.8084 20.9471 68.3435 21.7172C68.8786 22.4793 69.1583 23.3549 69.1826 24.344H66.1181ZM79.7747 31.2756C79.499 31.2838 78.8788 31.3202 77.9141 31.3851L76.6858 31.4824C75.9238 31.5472 75.3319 31.7378 74.9104 32.0539C74.4888 32.3701 74.278 32.812 74.278 33.3795C74.278 33.7443 74.3712 34.0564 74.5577 34.3159C74.7442 34.5672 75.0076 34.7617 75.3481 34.8996C75.6968 35.0374 76.0859 35.1063 76.5156 35.1063C77.1317 35.1063 77.6709 34.9847 78.133 34.7415C78.6032 34.4902 78.964 34.1578 79.2153 33.7443C79.4747 33.3308 79.6044 32.8768 79.6044 32.3823L79.5801 28.1625C79.5801 27.7247 79.4909 27.3518 79.3126 27.0437C79.1342 26.7356 78.8626 26.5045 78.4978 26.3505C78.1411 26.1965 77.7033 26.1195 77.1844 26.1195C76.5196 26.1195 75.9724 26.2573 75.5427 26.5329C75.1211 26.8086 74.8496 27.1896 74.7279 27.676H71.7121C71.8012 26.9221 72.0769 26.2492 72.539 25.6573C73.0092 25.0574 73.6456 24.5912 74.4482 24.2589C75.259 23.9183 76.1994 23.7481 77.2696 23.7481C78.21 23.7481 79.0815 23.89 79.8841 24.1737C80.6867 24.4575 81.3515 24.9399 81.8785 25.6209C82.4055 26.2938 82.669 27.1815 82.669 28.2841V37.125H79.7017V35.3009H79.6044C79.4018 35.6981 79.1261 36.0508 78.7775 36.3589C78.437 36.6669 78.0073 36.9183 77.4885 37.1128C76.9696 37.2993 76.3778 37.3925 75.713 37.3925C74.8617 37.3925 74.1037 37.2385 73.4389 36.9304C72.7741 36.6224 72.2471 36.1683 71.858 35.5684C71.477 34.9685 71.2864 34.251 71.2864 33.4159C71.2864 32.0377 71.7445 31.0486 72.6606 30.4487C73.5767 29.8407 74.7604 29.4921 76.2116 29.4029C76.4224 29.3786 77.1804 29.338 78.4856 29.2813L79.7504 29.2326L79.7747 31.2756ZM92.276 26.3019H84.4809V23.9183H92.276V26.3019ZM86.4388 22.6536C86.4388 21.8024 86.605 21.0849 86.9374 20.5012C87.2779 19.9093 87.7562 19.4594 88.3724 19.1513C88.9966 18.8432 89.7303 18.6892 90.5735 18.6892C90.9302 18.6892 91.2707 18.7054 91.595 18.7378C91.9193 18.7703 92.2314 18.8189 92.5314 18.8838V21.3281C92.0612 21.2713 91.6923 21.243 91.4248 21.243C90.7924 21.243 90.3181 21.3808 90.0019 21.6564C89.6939 21.924 89.5398 22.3496 89.5398 22.9333V37.125H86.4388V22.6536ZM99.84 37.3804C98.5348 37.3804 97.3998 37.1047 96.435 36.5534C95.4703 36.0022 94.7244 35.2158 94.1974 34.1942C93.6786 33.1727 93.4191 31.9769 93.4191 30.6068C93.4191 29.2529 93.6786 28.0571 94.1974 27.0194C94.7244 25.9735 95.4581 25.1669 96.3985 24.5994C97.339 24.0318 98.4334 23.7481 99.6819 23.7481C100.809 23.7481 101.826 23.9873 102.734 24.4656C103.642 24.9439 104.364 25.6857 104.899 26.691C105.434 27.6882 105.702 28.9246 105.702 30.4001V31.3729H94.8906V29.2691H102.734C102.734 28.6692 102.609 28.1341 102.357 27.6639C102.106 27.1937 101.749 26.8248 101.287 26.5572C100.833 26.2897 100.31 26.1559 99.7184 26.1559C99.0861 26.1559 98.5267 26.3059 98.0402 26.6059C97.5538 26.9059 97.1728 27.3112 96.8971 27.822C96.6296 28.3246 96.4918 28.8759 96.4837 29.4758V31.2756C96.4837 32.0458 96.6215 32.7106 96.8971 33.27C97.1809 33.8213 97.5781 34.2429 98.0889 34.5347C98.5996 34.8266 99.1955 34.9725 99.8765 34.9725C100.314 34.9725 100.708 34.9117 101.056 34.7901C101.413 34.6685 101.717 34.5104 101.968 34.3159C102.22 34.1132 102.41 33.874 102.54 33.5984H105.58C105.393 34.3523 105.041 35.0171 104.522 35.5927C104.011 36.1602 103.355 36.6021 102.552 36.9183C101.749 37.2263 100.845 37.3804 99.84 37.3804ZM56.5597 41.5161H59.7215V48.995H67.9179V41.5161H71.0919V59.125H67.9179V51.6339H59.7215V59.125H56.5597V41.5161ZM79.9814 59.3804C78.7167 59.3804 77.602 59.0966 76.6372 58.5291C75.6805 57.9616 74.9428 57.1631 74.4239 56.1334C73.9051 55.1038 73.6456 53.9161 73.6456 52.5703C73.6456 51.2083 73.9051 50.0165 74.4239 48.995C74.9428 47.9654 75.6805 47.1669 76.6372 46.5994C77.602 46.0318 78.7167 45.7481 79.9814 45.7481C81.2543 45.7481 82.369 46.0318 83.3256 46.5994C84.2823 47.1669 85.016 47.9654 85.5268 48.995C86.0375 50.0165 86.2929 51.2083 86.2929 52.5703C86.2929 53.9161 86.0375 55.1038 85.5268 56.1334C85.016 57.1631 84.2823 57.9616 83.3256 58.5291C82.369 59.0966 81.2543 59.3804 79.9814 59.3804ZM80.0057 56.9117C80.6867 56.9117 81.2624 56.7212 81.7326 56.3402C82.2109 55.951 82.5676 55.4281 82.8027 54.7714C83.0378 54.1147 83.1554 53.377 83.1554 52.5582C83.1554 51.7312 83.0378 50.9894 82.8027 50.3327C82.5676 49.676 82.2109 49.1572 81.7326 48.7761C81.2624 48.387 80.6867 48.1924 80.0057 48.1924C79.3085 48.1924 78.7167 48.387 78.2303 48.7761C77.7438 49.1572 77.379 49.676 77.1358 50.3327C76.8926 50.9894 76.771 51.7312 76.771 52.5582C76.771 53.3851 76.8926 54.1269 77.1358 54.7836C77.379 55.4322 77.7438 55.951 78.2303 56.3402C78.7167 56.7212 79.3085 56.9117 80.0057 56.9117ZM97.1403 45.9183H100.217V59.125H97.2376V56.7901H97.0917C96.7674 57.5522 96.2648 58.1602 95.5838 58.6142C94.9109 59.0682 94.088 59.2953 93.1151 59.2953C92.2476 59.2953 91.4815 59.1007 90.8167 58.7115C90.16 58.3143 89.6452 57.7427 89.2723 56.9969C88.9075 56.251 88.7251 55.3592 88.7251 54.3215V45.9183H91.8139V53.8472C91.8139 54.3985 91.9152 54.8809 92.1179 55.2943C92.3287 55.7078 92.6246 56.028 93.0057 56.255C93.3867 56.4739 93.8204 56.5834 94.3069 56.5834C94.7933 56.5834 95.2514 56.4699 95.681 56.2429C96.1188 56.0078 96.4715 55.6632 96.739 55.2092C97.0066 54.7471 97.1403 54.1999 97.1403 53.5675V45.9183ZM110.687 49.676C110.59 49.1572 110.339 48.7559 109.934 48.4721C109.528 48.1884 109.001 48.0465 108.353 48.0465C107.915 48.0465 107.522 48.1113 107.173 48.2411C106.824 48.3708 106.549 48.5572 106.346 48.8005C106.152 49.0437 106.054 49.3153 106.054 49.6152C106.046 49.9638 106.196 50.2638 106.504 50.5151C106.812 50.7665 107.291 50.9651 107.939 51.111L110.189 51.5975C111.437 51.8569 112.366 52.2825 112.974 52.8743C113.59 53.4662 113.898 54.2323 113.898 55.1727C113.898 55.9916 113.667 56.7212 113.205 57.3617C112.743 57.994 112.09 58.4886 111.247 58.8453C110.404 59.202 109.411 59.3804 108.267 59.3804C107.157 59.3804 106.196 59.2223 105.385 58.9061C104.575 58.5899 103.934 58.1319 103.464 57.5319C102.994 56.9239 102.702 56.2023 102.588 55.3673H105.738C105.852 55.9186 106.119 56.3361 106.541 56.6199C106.962 56.8955 107.534 57.0333 108.255 57.0333C108.75 57.0333 109.184 56.9725 109.557 56.8509C109.929 56.7212 110.217 56.5388 110.42 56.3037C110.623 56.0605 110.724 55.7767 110.724 55.4524C110.724 55.0633 110.57 54.7431 110.262 54.4917C109.954 54.2404 109.471 54.0458 108.815 53.908L106.687 53.4702C105.462 53.2108 104.534 52.7689 103.902 52.1447C103.277 51.5123 102.965 50.73 102.965 49.7977C102.965 48.9869 103.184 48.2775 103.622 47.6695C104.068 47.0534 104.692 46.5791 105.495 46.2467C106.306 45.9143 107.246 45.7481 108.316 45.7481C109.346 45.7481 110.246 45.9102 111.016 46.2345C111.794 46.5507 112.406 47.0047 112.852 47.5965C113.298 48.1884 113.553 48.8815 113.618 49.676H110.687ZM122.119 59.3804C120.813 59.3804 119.678 59.1047 118.714 58.5534C117.749 58.0022 117.003 57.2158 116.476 56.1942C115.957 55.1727 115.698 53.9769 115.698 52.6068C115.698 51.2529 115.957 50.0571 116.476 49.0194C117.003 47.9735 117.737 47.1669 118.677 46.5994C119.618 46.0318 120.712 45.7481 121.961 45.7481C123.087 45.7481 124.105 45.9873 125.013 46.4656C125.921 46.9439 126.642 47.6857 127.178 48.691C127.713 49.6882 127.98 50.9246 127.98 52.4001V53.3729H117.169V51.2691H125.013C125.013 50.6692 124.887 50.1341 124.636 49.6639C124.385 49.1937 124.028 48.8248 123.566 48.5572C123.112 48.2897 122.589 48.1559 121.997 48.1559C121.365 48.1559 120.805 48.3059 120.319 48.6059C119.832 48.9059 119.451 49.3112 119.176 49.822C118.908 50.3246 118.77 50.8759 118.762 51.4758V53.2756C118.762 54.0458 118.9 54.7106 119.176 55.27C119.459 55.8213 119.857 56.2429 120.368 56.5347C120.878 56.8266 121.474 56.9725 122.155 56.9725C122.593 56.9725 122.986 56.9117 123.335 56.7901C123.691 56.6685 123.995 56.5104 124.247 56.3159C124.498 56.1132 124.689 55.874 124.818 55.5984H127.859C127.672 56.3523 127.319 57.0171 126.801 57.5927C126.29 58.1602 125.633 58.6021 124.831 58.9183C124.028 59.2263 123.124 59.3804 122.119 59.3804Z" fill="black"/>
<path d="M0 47.608L15.9699 18.7344H42.9272L27.797 47.608H0Z" fill="#2551F4"/>
<path d="M5.65234 30.7873L9.15857 23.6328H28.649L25.0397 30.7873H5.65234Z" fill="#0E298D"/>
<path d="M13.3594 43.3111L17.1834 36.9844H38.4403L34.5039 43.3111H13.3594Z" fill="#0E298D"/>
<path d="M3.82812 23.843L7.37331 15.9219H27.0803L23.4309 23.843H3.82812Z" fill="#5075FF" fill-opacity="0.6"/>
<path d="M12.5195 38.7702L16.378 31.7656H37.8265L33.8545 38.7702H12.5195Z" fill="#5075FF" fill-opacity="0.6"/>
</svg>
