<svg width="390" height="416" viewBox="0 0 390 416" fill="none" xmlns="http://www.w3.org/2000/svg">
<rect width="390" height="416" fill="#F2F3F6"/>
<path d="M81.5 71.9H76.75V48.575H81.5V71.9ZM59.45 64.75V55.5C59.45 51.2 62.45 48.825 66.55 48.825C70.675 48.825 73.675 51.175 73.675 55.5V64.75C73.675 69.075 70.675 71.425 66.575 71.425C62.475 71.425 59.45 69.075 59.45 64.75ZM64.075 55.1V65.15C64.075 66.775 65.175 67.575 66.55 67.575C67.925 67.575 69.05 66.775 69.05 65.15V55.1C69.05 53.5 67.925 52.65 66.55 52.675C65.175 52.7 64.075 53.525 64.075 55.1ZM106.5 66.15H101.75V57.1H97.9V53.075H101.75V48.575H106.5V66.15ZM89.2 59.925H99.825V63.5H84.35V54.675H92.375V52.725H84.35V49.15H97.15V57.975H89.2V59.925ZM90.575 64.55V68.35H106.975V71.9H85.75V64.55H90.575ZM133.232 48.7H138.082V58.5H116.882V48.7H121.757V50.375H133.232V48.7ZM121.757 53.475V55.225H133.232V53.475H121.757ZM116.007 63.525V59.8H139.007V63.525H130.182V66.65H125.332V63.525H116.007ZM117.057 64.625H121.932V68.325H138.232V71.9H117.057V64.625ZM141.907 48.85H162.907V51.975H146.532V53.425H162.957V56.55H141.907V48.85ZM141.007 57.675H164.007V60.9H141.007V57.675ZM163.582 71.9H141.732V65.7H158.032V64.675H141.732V62H163.182V68.175H146.882V69.2H163.582V71.9ZM177.307 57.875H179.257V48.575H183.257V71.9H179.257V61.775H177.307V65.25C177.307 68.95 175.507 71.3 171.832 71.3C168.132 71.3 166.332 68.95 166.332 65.25V55C166.332 51.325 168.107 48.95 171.807 48.95C175.507 48.95 177.307 51.3 177.307 55V57.875ZM184.757 71.9V48.575H188.882V71.9H184.757ZM173.157 66.025V54.2C173.157 53.15 172.607 52.55 171.807 52.575C171.007 52.6 170.482 53.15 170.482 54.2V66.025C170.482 67.075 171.007 67.675 171.807 67.675C172.607 67.675 173.157 67.075 173.157 66.025ZM202.132 57.825H204.132V48.575H208.257V71.9H204.132V61.6H201.632C200.332 67.05 196.532 70.475 191.082 71.4V67.1C195.107 65.925 197.832 62.8 197.832 57.2V53.35H191.207V49.375H202.132V57.175V57.825ZM209.757 71.9V48.575H213.882V71.9H209.757ZM240.764 48.575H245.514V60.525H240.764V48.575ZM223.489 49.05H238.414V52.525H223.489V49.05ZM236.664 57.125H239.339V60.275H223.189V57.125H225.389V53.55H229.814V57.125H232.239V53.55H236.664V57.125ZM229.589 67.875V69.05H245.889V71.9H224.689V65.375H240.789V64.2H224.689V61.4H245.489V67.875H229.589ZM263.914 62.175H255.089C251.014 62.175 248.564 59.25 248.564 55.9V55.325C248.564 51.975 251.014 49.05 255.089 49.05H263.914C267.989 49.05 270.464 51.975 270.464 55.325V55.9C270.464 59.25 267.989 62.175 263.914 62.175ZM253.489 55.525V55.725C253.489 57.25 254.539 58.325 256.339 58.325H262.664C264.464 58.325 265.539 57.25 265.539 55.725V55.525C265.539 54 264.464 52.9 262.664 52.9H256.339C254.539 52.9 253.489 54 253.489 55.525ZM266.564 63.425V67.55H271.014V71.275H248.014V67.55H252.464V63.425H257.064V67.55H261.964V63.425H266.564ZM291.764 57.625V48.575H295.889V71.9H291.764V61.525H290.264V71.9H286.139V48.575H290.264V57.625H291.764ZM276.664 48.675H281.114V51.125H285.164V54.8H283.839C284.164 55.525 284.339 56.375 284.339 57.35V65.35C284.339 69.525 282.414 71.55 278.964 71.55C275.514 71.55 273.564 69.525 273.564 65.35V57.35C273.564 56.375 273.739 55.525 274.064 54.8H272.739V51.125H276.664V48.675ZM280.239 66.2V56.225C280.239 55.075 279.764 54.6 278.964 54.6C278.139 54.6 277.664 55.075 277.664 56.225V66.2C277.664 67.325 278.139 67.825 278.964 67.825C279.764 67.825 280.239 67.325 280.239 66.2ZM313.914 62.175H305.089C301.014 62.175 298.564 59.25 298.564 55.9V55.325C298.564 51.975 301.014 49.05 305.089 49.05H313.914C317.989 49.05 320.464 51.975 320.464 55.325V55.9C320.464 59.25 317.989 62.175 313.914 62.175ZM303.489 55.525V55.725C303.489 57.25 304.539 58.325 306.339 58.325H312.664C314.464 58.325 315.539 57.25 315.539 55.725V55.525C315.539 54 314.464 52.9 312.664 52.9H306.339C304.539 52.9 303.489 54 303.489 55.525ZM316.564 63.425V67.55H321.014V71.275H298.014V67.55H302.464V63.425H307.064V67.55H311.964V63.425H316.564ZM328.564 65.125H323.714V49.425H328.564V65.125ZM328.564 71.4H323.714V66.6H328.564V71.4Z" fill="#2551F4"/>
<g filter="url(#filter0_d_1655_2533)">
<path d="M384 274.324C384 244.874 360.126 221 330.676 221H120.5C101.998 221 87 235.998 87 254.5C87 273.002 101.998 288 120.5 288H384V274.324Z" fill="#0094FF" fill-opacity="0.12" shape-rendering="crispEdges"/>
</g>
<g filter="url(#filter1_d_1655_2533)">
<path d="M7 187.324C7 157.874 30.8738 134 60.3236 134H273.5C292.002 134 307 148.998 307 167.5C307 186.002 292.002 201 273.5 201H7V187.324Z" fill="#0094FF" fill-opacity="0.12" shape-rendering="crispEdges"/>
</g>
<g filter="url(#filter2_d_1655_2533)">
<path d="M11 361.324C11 331.874 34.8738 308 64.3236 308H277.5C296.002 308 311 322.998 311 341.5C311 360.002 296.002 375 277.5 375H11V361.324Z" fill="#0094FF" fill-opacity="0.12" shape-rendering="crispEdges"/>
</g>
<path d="M67.2656 169.625H54.5469V168.625H67.2656V169.625ZM61.4688 174.266H60.2656V169.062H61.4688V174.266ZM57.3906 162.875H64.3906V160.953H65.625V166.938H56.1719V160.953H57.3906V162.875ZM64.3906 165.938V163.875H57.3906V165.938H64.3906ZM81.0625 168.234H68.3906V167.25H81.0625V168.234ZM75.3125 167.672H74.125V165.016H75.3125V167.672ZM79.5781 165.625H70V164.625H79.5781V165.625ZM79.4844 162.016H71.2031V165.234H70V161.031H79.4844V162.016ZM74.7188 169.25C75.7083 169.25 76.5625 169.346 77.2812 169.539C78 169.732 78.5495 170.016 78.9297 170.391C79.3099 170.766 79.5 171.219 79.5 171.75C79.5 172.281 79.3099 172.734 78.9297 173.109C78.5495 173.484 78.0026 173.768 77.2891 173.961C76.5755 174.154 75.7188 174.255 74.7188 174.266C73.7188 174.255 72.8594 174.154 72.1406 173.961C71.4219 173.768 70.8724 173.484 70.4922 173.109C70.112 172.734 69.9219 172.281 69.9219 171.75C69.9219 171.219 70.112 170.766 70.4922 170.391C70.8724 170.016 71.4219 169.732 72.1406 169.539C72.8594 169.346 73.7188 169.25 74.7188 169.25ZM74.7188 170.219C73.9792 170.219 73.3438 170.279 72.8125 170.398C72.2812 170.518 71.875 170.693 71.5938 170.922C71.3125 171.151 71.1719 171.427 71.1719 171.75C71.1719 172.073 71.3125 172.349 71.5938 172.578C71.875 172.807 72.2812 172.982 72.8125 173.102C73.3438 173.221 73.9792 173.281 74.7188 173.281C75.4583 173.281 76.0938 173.221 76.625 173.102C77.1562 172.982 77.5625 172.805 77.8438 172.57C78.125 172.336 78.2656 172.062 78.2656 171.75C78.2656 171.427 78.125 171.151 77.8438 170.922C77.5625 170.693 77.1536 170.518 76.6172 170.398C76.0807 170.279 75.4479 170.219 74.7188 170.219ZM86.7031 162.953C86.7031 163.839 86.5443 164.664 86.2266 165.43C85.9089 166.195 85.4583 166.859 84.875 167.422C84.2917 167.984 83.6146 168.417 82.8438 168.719L82.1719 167.734C82.8698 167.484 83.4844 167.12 84.0156 166.641C84.5469 166.161 84.9583 165.604 85.25 164.969C85.5417 164.333 85.6875 163.661 85.6875 162.953V161.234H86.7031V162.953ZM86.8906 163C86.8906 163.625 87.0365 164.229 87.3281 164.812C87.6198 165.396 88.0312 165.911 88.5625 166.359C89.0938 166.807 89.6979 167.151 90.375 167.391L89.75 168.375C88.9896 168.094 88.3203 167.688 87.7422 167.156C87.1641 166.625 86.7135 166 86.3906 165.281C86.0677 164.562 85.9062 163.802 85.9062 163V161.234H86.8906V163ZM93.0781 170.641H91.8594V160.375H93.0781V170.641ZM95.1719 165.688H92.6875V164.641H95.1719V165.688ZM93.7188 173.969H84.4062V172.938H93.7188V173.969ZM85.6562 173.438H84.4062V169.656H85.6562V173.438ZM108.625 165.266H105.5V164.25H108.625V165.266ZM108.609 168.75H105.391V167.734H108.609V168.75ZM111.953 174.266H110.781V160.375H111.953V174.266ZM109.141 173.562H107.969V160.75H109.141V173.562ZM106.047 162.156C106.047 163.396 105.865 164.568 105.5 165.672C105.135 166.776 104.565 167.802 103.789 168.75C103.013 169.698 102.016 170.536 100.797 171.266L100.047 170.375C101.13 169.729 102.029 168.995 102.742 168.172C103.456 167.349 103.987 166.451 104.336 165.477C104.685 164.503 104.859 163.469 104.859 162.375V162.156H106.047ZM105.344 163.172H100.672V162.156H105.344V163.172ZM126.812 163.531H124.391V162.531H126.812V163.531ZM126.812 166.531H124.391V165.484H126.812V166.531ZM124.75 168.641H123.531V160.375H124.75V168.641ZM124.75 174.266H123.531V170.297H115.656V169.281H124.75V174.266ZM117.797 161.219C118.495 161.208 119.12 161.341 119.672 161.617C120.224 161.893 120.659 162.281 120.977 162.781C121.294 163.281 121.453 163.849 121.453 164.484C121.453 165.12 121.294 165.688 120.977 166.188C120.659 166.688 120.224 167.078 119.672 167.359C119.12 167.641 118.495 167.781 117.797 167.781C117.099 167.781 116.474 167.641 115.922 167.359C115.37 167.078 114.938 166.688 114.625 166.188C114.312 165.688 114.156 165.12 114.156 164.484C114.156 163.849 114.312 163.284 114.625 162.789C114.938 162.294 115.37 161.906 115.922 161.625C116.474 161.344 117.099 161.208 117.797 161.219ZM117.797 162.266C117.339 162.266 116.922 162.359 116.547 162.547C116.172 162.734 115.88 162.995 115.672 163.328C115.464 163.661 115.359 164.047 115.359 164.484C115.359 164.922 115.464 165.31 115.672 165.648C115.88 165.987 116.172 166.25 116.547 166.438C116.922 166.625 117.339 166.719 117.797 166.719C118.266 166.719 118.688 166.625 119.062 166.438C119.438 166.25 119.729 165.987 119.938 165.648C120.146 165.31 120.25 164.922 120.25 164.484C120.25 164.047 120.146 163.661 119.938 163.328C119.729 162.995 119.438 162.734 119.062 162.547C118.688 162.359 118.266 162.266 117.797 162.266ZM138.625 166.125H134.719V165.125H138.625V166.125ZM132.375 164.109C132.375 165.109 132.206 166.091 131.867 167.055C131.529 168.018 131.065 168.872 130.477 169.617C129.888 170.362 129.229 170.932 128.5 171.328L127.703 170.344C128.38 170.01 128.997 169.516 129.555 168.859C130.112 168.203 130.552 167.456 130.875 166.617C131.198 165.779 131.359 164.943 131.359 164.109V161.578H132.375V164.109ZM132.609 164.109C132.609 164.932 132.771 165.745 133.094 166.547C133.417 167.349 133.854 168.06 134.406 168.68C134.958 169.299 135.568 169.766 136.234 170.078L135.5 171.078C134.76 170.693 134.096 170.143 133.508 169.43C132.919 168.716 132.456 167.896 132.117 166.969C131.779 166.042 131.609 165.089 131.609 164.109V161.578H132.609V164.109ZM139.234 174.297H138.016V160.375H139.234V174.297ZM158.281 172.484H145.562V171.469H158.281V172.484ZM152.484 171.781H151.281V168.109H152.484V171.781ZM148.297 163.875H155.516V161.359H156.719V168.469H147.062V161.359H148.297V163.875ZM155.516 167.469V164.875H148.297V167.469H155.516ZM170.625 165.578H161.109V164.594H170.625V165.578ZM172.094 168.469H159.375V167.469H172.094V168.469ZM162.328 165.094H161.109V160.891H162.328V165.094ZM170.703 173.922H161.031V172.906H170.703V173.922ZM162.25 173.203H161.031V169.891H162.25V173.203ZM179.156 163.25H183.031V161.094H184.234V167.453H177.938V161.094H179.156V163.25ZM183.031 166.453V164.219H179.156V166.453H183.031ZM187.891 164.828H183.891V163.797H187.891V164.828ZM188.75 167.969H187.516V160.375H188.75V167.969ZM181.031 170.344H187.516V168.641H188.734V174.078H179.797V168.641H181.031V170.344ZM187.516 173.062V171.328H181.031V173.062H187.516ZM197.391 160.625C198.422 160.625 199.305 160.716 200.039 160.898C200.773 161.081 201.333 161.352 201.719 161.711C202.104 162.07 202.297 162.505 202.297 163.016C202.297 163.536 202.104 163.977 201.719 164.336C201.333 164.695 200.773 164.969 200.039 165.156C199.305 165.344 198.422 165.443 197.391 165.453C196.359 165.443 195.477 165.344 194.742 165.156C194.008 164.969 193.445 164.695 193.055 164.336C192.664 163.977 192.469 163.536 192.469 163.016C192.469 162.505 192.664 162.07 193.055 161.711C193.445 161.352 194.008 161.081 194.742 160.898C195.477 160.716 196.359 160.625 197.391 160.625ZM197.391 161.547C196.63 161.547 195.977 161.604 195.43 161.719C194.883 161.833 194.466 162.003 194.18 162.227C193.893 162.451 193.75 162.714 193.75 163.016C193.75 163.339 193.891 163.612 194.172 163.836C194.453 164.06 194.867 164.229 195.414 164.344C195.961 164.458 196.62 164.516 197.391 164.516C198.161 164.516 198.82 164.458 199.367 164.344C199.914 164.229 200.331 164.057 200.617 163.828C200.904 163.599 201.047 163.328 201.047 163.016C201.047 162.714 200.901 162.453 200.609 162.234C200.318 162.016 199.898 161.846 199.352 161.727C198.805 161.607 198.151 161.547 197.391 161.547ZM203.719 167.391H191.062V166.391H203.719V167.391ZM202.094 171.703H193.844V173.391H192.625V170.797H200.891V169.531H192.594V168.594H202.094V171.703ZM202.516 174.109H192.625V173.141H202.516V174.109ZM221.625 172.484H208.906V171.453H221.625V172.484ZM215.828 171.75H214.625V167.812H215.828V171.75ZM220.047 168.062H210.406V161.547H220.047V168.062ZM211.609 167.078H218.859V162.531H211.609V167.078ZM235.453 172.516H222.734V171.484H235.453V172.516ZM233.844 165.641H225.547V168.453H224.328V164.641H232.641V162.453H224.297V161.438H233.844V165.641ZM234.172 168.906H224.328V167.922H234.172V168.906ZM242.719 161.406C242.719 162.5 242.513 163.505 242.102 164.422C241.69 165.339 241.086 166.154 240.289 166.867C239.492 167.581 238.51 168.188 237.344 168.688L236.703 167.781C237.734 167.354 238.607 166.844 239.32 166.25C240.034 165.656 240.573 164.984 240.938 164.234C241.302 163.484 241.484 162.672 241.484 161.797V161.406H242.719ZM241.969 162.422H237.297V161.406H241.969V162.422ZM248.359 168.422H247.188V160.391H248.359V168.422ZM244.703 165.359H241.297V164.344H244.703V165.359ZM245.562 168.203H244.391V160.688H245.562V168.203ZM241.172 169.828C241.172 170.432 241.047 171.023 240.797 171.602C240.547 172.18 240.182 172.698 239.703 173.156C239.224 173.615 238.661 173.969 238.016 174.219L237.391 173.312C237.964 173.104 238.464 172.812 238.891 172.438C239.318 172.062 239.648 171.646 239.883 171.188C240.117 170.729 240.234 170.276 240.234 169.828V168.891H241.172V169.828ZM241.406 169.828C241.406 170.307 241.5 170.779 241.688 171.242C241.875 171.706 242.161 172.125 242.547 172.5C242.932 172.875 243.396 173.177 243.938 173.406L243.406 174.344C242.76 174.083 242.221 173.719 241.789 173.25C241.357 172.781 241.034 172.25 240.82 171.656C240.607 171.062 240.5 170.453 240.5 169.828V168.891H241.406V169.828ZM246.297 169.828C246.297 170.391 246.188 170.966 245.969 171.555C245.75 172.143 245.424 172.688 244.992 173.188C244.56 173.688 244.031 174.073 243.406 174.344L242.859 173.406C243.391 173.156 243.846 172.831 244.227 172.43C244.607 172.029 244.896 171.596 245.094 171.133C245.292 170.669 245.391 170.234 245.391 169.828V168.891H246.297V169.828ZM246.578 169.828C246.578 170.307 246.693 170.776 246.922 171.234C247.151 171.693 247.482 172.104 247.914 172.469C248.346 172.833 248.849 173.115 249.422 173.312L248.812 174.219C248.156 173.979 247.586 173.638 247.102 173.195C246.617 172.753 246.25 172.24 246 171.656C245.75 171.073 245.625 170.464 245.625 169.828V168.891H246.578V169.828ZM254.125 161.453C254.802 161.453 255.401 161.654 255.922 162.055C256.443 162.456 256.852 163.021 257.148 163.75C257.445 164.479 257.594 165.328 257.594 166.297C257.594 167.266 257.445 168.115 257.148 168.844C256.852 169.573 256.443 170.135 255.922 170.531C255.401 170.927 254.802 171.125 254.125 171.125C253.448 171.125 252.846 170.927 252.32 170.531C251.794 170.135 251.383 169.573 251.086 168.844C250.789 168.115 250.641 167.266 250.641 166.297C250.641 165.328 250.789 164.479 251.086 163.75C251.383 163.021 251.794 162.456 252.32 162.055C252.846 161.654 253.448 161.453 254.125 161.453ZM254.125 162.547C253.677 162.547 253.276 162.703 252.922 163.016C252.568 163.328 252.294 163.766 252.102 164.328C251.909 164.891 251.812 165.547 251.812 166.297C251.812 167.036 251.909 167.69 252.102 168.258C252.294 168.826 252.568 169.263 252.922 169.57C253.276 169.878 253.677 170.031 254.125 170.031C254.573 170.031 254.974 169.878 255.328 169.57C255.682 169.263 255.956 168.826 256.148 168.258C256.341 167.69 256.438 167.036 256.438 166.297C256.438 165.547 256.341 164.891 256.148 164.328C255.956 163.766 255.685 163.328 255.336 163.016C254.987 162.703 254.583 162.547 254.125 162.547ZM261.906 174.297H260.688V160.375H261.906V174.297ZM261.234 166.703H257.188V165.688H261.234V166.703ZM268.578 171.703H267.375V167.547H268.578V171.703ZM273.781 171.703H272.547V167.547H273.781V171.703ZM276.938 172.484H264.219V171.453H276.938V172.484ZM270.547 161.25C271.536 161.25 272.414 161.398 273.18 161.695C273.945 161.992 274.544 162.411 274.977 162.953C275.409 163.495 275.625 164.12 275.625 164.828C275.625 165.536 275.409 166.159 274.977 166.695C274.544 167.232 273.945 167.648 273.18 167.945C272.414 168.242 271.536 168.391 270.547 168.391C269.568 168.391 268.693 168.242 267.922 167.945C267.151 167.648 266.549 167.232 266.117 166.695C265.685 166.159 265.469 165.536 265.469 164.828C265.469 164.12 265.685 163.495 266.117 162.953C266.549 162.411 267.151 161.992 267.922 161.695C268.693 161.398 269.568 161.25 270.547 161.25ZM270.547 162.266C269.797 162.255 269.128 162.357 268.539 162.57C267.951 162.784 267.49 163.086 267.156 163.477C266.823 163.867 266.656 164.318 266.656 164.828C266.656 165.339 266.823 165.789 267.156 166.18C267.49 166.57 267.951 166.875 268.539 167.094C269.128 167.312 269.797 167.422 270.547 167.422C271.297 167.422 271.966 167.312 272.555 167.094C273.143 166.875 273.604 166.57 273.938 166.18C274.271 165.789 274.438 165.339 274.438 164.828C274.438 164.318 274.271 163.867 273.938 163.477C273.604 163.086 273.143 162.784 272.555 162.57C271.966 162.357 271.297 162.255 270.547 162.266Z" fill="#000A2F"/>
<path d="M114.484 257.734H113.281V255.312H114.484V257.734ZM120.219 255.891H107.562V254.875H120.219V255.891ZM113.891 257.359C114.891 257.359 115.747 257.453 116.461 257.641C117.174 257.828 117.721 258.107 118.102 258.477C118.482 258.846 118.672 259.292 118.672 259.812C118.672 260.323 118.482 260.758 118.102 261.117C117.721 261.477 117.174 261.753 116.461 261.945C115.747 262.138 114.891 262.234 113.891 262.234C112.891 262.234 112.031 262.138 111.312 261.945C110.594 261.753 110.044 261.477 109.664 261.117C109.284 260.758 109.094 260.323 109.094 259.812C109.094 259.292 109.284 258.846 109.664 258.477C110.044 258.107 110.594 257.828 111.312 257.641C112.031 257.453 112.891 257.359 113.891 257.359ZM113.891 258.312C113.151 258.312 112.516 258.372 111.984 258.492C111.453 258.612 111.047 258.784 110.766 259.008C110.484 259.232 110.344 259.5 110.344 259.812C110.344 260.115 110.484 260.375 110.766 260.594C111.047 260.812 111.453 260.982 111.984 261.102C112.516 261.221 113.151 261.281 113.891 261.281C114.62 261.281 115.253 261.221 115.789 261.102C116.326 260.982 116.734 260.812 117.016 260.594C117.297 260.375 117.438 260.115 117.438 259.812C117.438 259.5 117.297 259.232 117.016 259.008C116.734 258.784 116.328 258.612 115.797 258.492C115.266 258.372 114.63 258.312 113.891 258.312ZM114.188 249.938C114.188 250.656 113.938 251.305 113.438 251.883C112.938 252.461 112.271 252.932 111.438 253.297C110.604 253.661 109.698 253.906 108.719 254.031L108.281 253.062C109.115 252.969 109.901 252.776 110.641 252.484C111.38 252.193 111.974 251.823 112.422 251.375C112.87 250.927 113.094 250.448 113.094 249.938V249.516H114.188V249.938ZM114.688 249.938C114.688 250.448 114.911 250.927 115.359 251.375C115.807 251.823 116.401 252.193 117.141 252.484C117.88 252.776 118.672 252.969 119.516 253.062L119.062 254.031C118.094 253.906 117.193 253.661 116.359 253.297C115.526 252.932 114.857 252.461 114.352 251.883C113.846 251.305 113.594 250.656 113.594 249.938V249.516H114.688V249.938ZM119.094 250.031H108.719V249.031H119.094V250.031ZM133.25 262.266H132.047V248.375H133.25V262.266ZM132.5 255H129.766V253.984H132.5V255ZM127.375 250.188C127.375 251.438 127.208 252.612 126.875 253.711C126.542 254.81 125.987 255.836 125.211 256.789C124.435 257.742 123.406 258.573 122.125 259.281L121.406 258.422C122.552 257.786 123.479 257.052 124.188 256.219C124.896 255.385 125.409 254.484 125.727 253.516C126.044 252.547 126.203 251.505 126.203 250.391V250.188H127.375ZM126.609 251.203H121.938V250.188H126.609V251.203ZM130.125 261.578H128.953V248.75H130.125V261.578ZM146.688 258.547H145.469V248.391H146.688V258.547ZM147.125 261.969H137.719V260.938H147.125V261.969ZM138.938 261.281H137.719V257.516H138.938V261.281ZM139.188 249.359C139.875 249.359 140.497 249.503 141.055 249.789C141.612 250.076 142.047 250.479 142.359 251C142.672 251.521 142.828 252.109 142.828 252.766C142.828 253.432 142.672 254.023 142.359 254.539C142.047 255.055 141.612 255.458 141.055 255.75C140.497 256.042 139.875 256.188 139.188 256.188C138.5 256.188 137.88 256.042 137.328 255.75C136.776 255.458 136.341 255.055 136.023 254.539C135.706 254.023 135.547 253.432 135.547 252.766C135.547 252.109 135.706 251.521 136.023 251C136.341 250.479 136.776 250.076 137.328 249.789C137.88 249.503 138.5 249.359 139.188 249.359ZM139.188 250.438C138.729 250.438 138.312 250.536 137.938 250.734C137.562 250.932 137.271 251.208 137.062 251.562C136.854 251.917 136.75 252.318 136.75 252.766C136.75 253.214 136.854 253.617 137.062 253.977C137.271 254.336 137.562 254.615 137.938 254.812C138.312 255.01 138.729 255.109 139.188 255.109C139.646 255.109 140.06 255.01 140.43 254.812C140.799 254.615 141.091 254.336 141.305 253.977C141.518 253.617 141.625 253.214 141.625 252.766C141.625 252.318 141.518 251.917 141.305 251.562C141.091 251.208 140.799 250.932 140.43 250.734C140.06 250.536 139.646 250.438 139.188 250.438ZM155.375 248.625C156.406 248.625 157.289 248.716 158.023 248.898C158.758 249.081 159.318 249.352 159.703 249.711C160.089 250.07 160.281 250.505 160.281 251.016C160.281 251.536 160.089 251.977 159.703 252.336C159.318 252.695 158.758 252.969 158.023 253.156C157.289 253.344 156.406 253.443 155.375 253.453C154.344 253.443 153.461 253.344 152.727 253.156C151.992 252.969 151.43 252.695 151.039 252.336C150.648 251.977 150.453 251.536 150.453 251.016C150.453 250.505 150.648 250.07 151.039 249.711C151.43 249.352 151.992 249.081 152.727 248.898C153.461 248.716 154.344 248.625 155.375 248.625ZM155.375 249.547C154.615 249.547 153.961 249.604 153.414 249.719C152.867 249.833 152.451 250.003 152.164 250.227C151.878 250.451 151.734 250.714 151.734 251.016C151.734 251.339 151.875 251.612 152.156 251.836C152.438 252.06 152.852 252.229 153.398 252.344C153.945 252.458 154.604 252.516 155.375 252.516C156.146 252.516 156.805 252.458 157.352 252.344C157.898 252.229 158.315 252.057 158.602 251.828C158.888 251.599 159.031 251.328 159.031 251.016C159.031 250.714 158.885 250.453 158.594 250.234C158.302 250.016 157.883 249.846 157.336 249.727C156.789 249.607 156.135 249.547 155.375 249.547ZM161.703 255.391H149.047V254.391H161.703V255.391ZM160.078 259.703H151.828V261.391H150.609V258.797H158.875V257.531H150.578V256.594H160.078V259.703ZM160.5 262.109H150.609V261.141H160.5V262.109ZM178.359 258.578H177.141V248.391H178.359V258.578ZM178.797 261.969H169.391V260.938H178.797V261.969ZM170.609 261.438H169.391V257.641H170.609V261.438ZM171.594 250.562C171.594 251.458 171.43 252.305 171.102 253.102C170.773 253.898 170.315 254.596 169.727 255.195C169.138 255.794 168.464 256.25 167.703 256.562L167.031 255.609C167.729 255.339 168.346 254.945 168.883 254.43C169.419 253.914 169.833 253.32 170.125 252.648C170.417 251.977 170.562 251.281 170.562 250.562V249.172H171.594V250.562ZM171.812 250.562C171.812 251.25 171.958 251.911 172.25 252.547C172.542 253.182 172.956 253.742 173.492 254.227C174.029 254.711 174.635 255.078 175.312 255.328L174.672 256.312C173.901 256.01 173.224 255.578 172.641 255.016C172.057 254.453 171.602 253.789 171.273 253.023C170.945 252.258 170.781 251.438 170.781 250.562V249.172H171.812V250.562ZM188.812 253.328H183.047V255.516H181.828V252.406H187.609V250.672H181.797V249.672H188.812V253.328ZM189.203 256.078H181.828V255.094H189.203V256.078ZM185.984 258.75H184.766V255.781H185.984V258.75ZM192.109 262.297H190.891V248.375H192.109V262.297ZM180.797 258.5C182.516 258.5 184.138 258.474 185.664 258.422C187.19 258.37 188.625 258.266 189.969 258.109L190.062 259.031C188.677 259.24 187.221 259.38 185.695 259.453C184.169 259.526 182.594 259.557 180.969 259.547L180.797 258.5ZM205.406 256.016H204.188V248.328H205.406V256.016ZM207.516 252.719H204.875V251.703H207.516V252.719ZM205.406 259.812H197.781V261.516H196.578V258.906H204.188V257.656H196.547V256.734H205.406V259.812ZM205.922 262.109H196.578V261.172H205.922V262.109ZM202.859 250.625H194.578V249.641H202.859V250.625ZM198.719 251.25C199.385 251.25 199.971 251.341 200.477 251.523C200.982 251.706 201.372 251.969 201.648 252.312C201.924 252.656 202.062 253.062 202.062 253.531C202.062 253.99 201.924 254.391 201.648 254.734C201.372 255.078 200.982 255.344 200.477 255.531C199.971 255.719 199.385 255.812 198.719 255.812C198.052 255.812 197.464 255.719 196.953 255.531C196.443 255.344 196.052 255.078 195.781 254.734C195.51 254.391 195.375 253.99 195.375 253.531C195.375 253.062 195.51 252.656 195.781 252.312C196.052 251.969 196.443 251.706 196.953 251.523C197.464 251.341 198.052 251.25 198.719 251.25ZM198.719 252.156C198.292 252.156 197.911 252.214 197.578 252.328C197.245 252.443 196.99 252.604 196.812 252.812C196.635 253.021 196.547 253.26 196.547 253.531C196.547 253.802 196.635 254.042 196.812 254.25C196.99 254.458 197.242 254.617 197.57 254.727C197.898 254.836 198.281 254.891 198.719 254.891C199.156 254.891 199.539 254.836 199.867 254.727C200.195 254.617 200.451 254.458 200.633 254.25C200.815 254.042 200.906 253.802 200.906 253.531C200.906 253.25 200.815 253.008 200.633 252.805C200.451 252.602 200.195 252.443 199.867 252.328C199.539 252.214 199.156 252.156 198.719 252.156ZM199.328 250.328H198.109V248.234H199.328V250.328ZM219.172 249.672C219.172 250.516 218.909 251.289 218.383 251.992C217.857 252.695 217.161 253.276 216.297 253.734C215.432 254.193 214.516 254.505 213.547 254.672L213.047 253.672C213.891 253.557 214.701 253.305 215.477 252.914C216.253 252.523 216.883 252.044 217.367 251.477C217.852 250.909 218.094 250.307 218.094 249.672V248.875H219.172V249.672ZM219.359 249.672C219.359 250.297 219.604 250.896 220.094 251.469C220.583 252.042 221.219 252.523 222 252.914C222.781 253.305 223.589 253.557 224.422 253.672L223.922 254.672C222.953 254.505 222.039 254.19 221.18 253.727C220.32 253.263 219.625 252.68 219.094 251.977C218.562 251.273 218.297 250.505 218.297 249.672V248.875H219.359V249.672ZM219.297 262.266H218.094V256.969H219.297V262.266ZM225.047 257.234H212.391V256.203H225.047V257.234ZM234.719 257.703C234.719 258.307 234.591 258.898 234.336 259.477C234.081 260.055 233.716 260.57 233.242 261.023C232.768 261.477 232.203 261.828 231.547 262.078L230.922 261.172C231.495 260.953 231.992 260.659 232.414 260.289C232.836 259.919 233.164 259.508 233.398 259.055C233.633 258.602 233.75 258.151 233.75 257.703V256.938H234.719V257.703ZM234.938 257.703C234.938 258.172 235.034 258.638 235.227 259.102C235.419 259.565 235.706 259.984 236.086 260.359C236.466 260.734 236.927 261.031 237.469 261.25L236.953 262.188C236.307 261.938 235.766 261.578 235.328 261.109C234.891 260.641 234.565 260.112 234.352 259.523C234.138 258.935 234.031 258.328 234.031 257.703V256.938H234.938V257.703ZM239.859 257.703C239.859 258.266 239.75 258.841 239.531 259.43C239.312 260.018 238.984 260.557 238.547 261.047C238.109 261.536 237.578 261.917 236.953 262.188L236.422 261.25C236.953 261.01 237.409 260.69 237.789 260.289C238.169 259.888 238.456 259.458 238.648 259C238.841 258.542 238.938 258.109 238.938 257.703V256.938H239.859V257.703ZM240.141 257.703C240.141 258.182 240.255 258.648 240.484 259.102C240.714 259.555 241.042 259.964 241.469 260.328C241.896 260.693 242.396 260.974 242.969 261.172L242.359 262.078C241.693 261.839 241.12 261.497 240.641 261.055C240.161 260.612 239.797 260.102 239.547 259.523C239.297 258.945 239.172 258.339 239.172 257.703V256.938H240.141V257.703ZM241.703 256.328H240.484V248.391H241.703V256.328ZM234.203 249.203C234.901 249.203 235.526 249.339 236.078 249.609C236.63 249.88 237.062 250.263 237.375 250.758C237.688 251.253 237.844 251.818 237.844 252.453C237.844 253.078 237.688 253.635 237.375 254.125C237.062 254.615 236.63 254.995 236.078 255.266C235.526 255.536 234.901 255.672 234.203 255.672C233.505 255.672 232.88 255.536 232.328 255.266C231.776 254.995 231.344 254.615 231.031 254.125C230.719 253.635 230.562 253.078 230.562 252.453C230.562 251.818 230.719 251.253 231.031 250.758C231.344 250.263 231.776 249.88 232.328 249.609C232.88 249.339 233.505 249.203 234.203 249.203ZM234.203 250.25C233.734 250.24 233.315 250.328 232.945 250.516C232.576 250.703 232.286 250.966 232.078 251.305C231.87 251.643 231.766 252.026 231.766 252.453C231.766 252.87 231.87 253.245 232.078 253.578C232.286 253.911 232.576 254.172 232.945 254.359C233.315 254.547 233.734 254.646 234.203 254.656C234.672 254.646 235.091 254.547 235.461 254.359C235.831 254.172 236.12 253.911 236.328 253.578C236.536 253.245 236.641 252.87 236.641 252.453C236.641 252.026 236.536 251.643 236.328 251.305C236.12 250.966 235.831 250.703 235.461 250.516C235.091 250.328 234.672 250.24 234.203 250.25ZM250.391 248.625C251.422 248.625 252.305 248.716 253.039 248.898C253.773 249.081 254.333 249.352 254.719 249.711C255.104 250.07 255.297 250.505 255.297 251.016C255.297 251.536 255.104 251.977 254.719 252.336C254.333 252.695 253.773 252.969 253.039 253.156C252.305 253.344 251.422 253.443 250.391 253.453C249.359 253.443 248.477 253.344 247.742 253.156C247.008 252.969 246.445 252.695 246.055 252.336C245.664 251.977 245.469 251.536 245.469 251.016C245.469 250.505 245.664 250.07 246.055 249.711C246.445 249.352 247.008 249.081 247.742 248.898C248.477 248.716 249.359 248.625 250.391 248.625ZM250.391 249.547C249.63 249.547 248.977 249.604 248.43 249.719C247.883 249.833 247.466 250.003 247.18 250.227C246.893 250.451 246.75 250.714 246.75 251.016C246.75 251.339 246.891 251.612 247.172 251.836C247.453 252.06 247.867 252.229 248.414 252.344C248.961 252.458 249.62 252.516 250.391 252.516C251.161 252.516 251.82 252.458 252.367 252.344C252.914 252.229 253.331 252.057 253.617 251.828C253.904 251.599 254.047 251.328 254.047 251.016C254.047 250.714 253.901 250.453 253.609 250.234C253.318 250.016 252.898 249.846 252.352 249.727C251.805 249.607 251.151 249.547 250.391 249.547ZM256.719 255.391H244.062V254.391H256.719V255.391ZM255.094 259.703H246.844V261.391H245.625V258.797H253.891V257.531H245.594V256.594H255.094V259.703ZM255.516 262.109H245.625V261.141H255.516V262.109ZM268.891 262.266H267.656V248.375H268.891V262.266ZM271 255.141H268.484V254.109H271V255.141ZM262.109 249.891C262.109 251.068 262.005 252.188 261.797 253.25C261.589 254.312 261.245 255.344 260.766 256.344C260.286 257.344 259.641 258.271 258.828 259.125L257.844 258.422C258.594 257.651 259.201 256.818 259.664 255.922C260.128 255.026 260.461 254.091 260.664 253.117C260.867 252.143 260.969 251.115 260.969 250.031V249.891H262.109ZM261.406 250.922H258.281V249.891H261.406V250.922ZM265.922 249.891C265.922 251.151 265.839 252.354 265.672 253.5C265.505 254.646 265.193 255.784 264.734 256.914C264.276 258.044 263.641 259.089 262.828 260.047L261.828 259.359C262.589 258.495 263.188 257.547 263.625 256.516C264.062 255.484 264.365 254.432 264.531 253.359C264.698 252.286 264.781 251.167 264.781 250V249.891H265.922ZM265.266 250.922H262.547V249.891H265.266V250.922ZM280.281 249.391C281.01 249.391 281.656 249.529 282.219 249.805C282.781 250.081 283.221 250.466 283.539 250.961C283.857 251.456 284.016 252.021 284.016 252.656C284.016 253.292 283.857 253.857 283.539 254.352C283.221 254.846 282.781 255.232 282.219 255.508C281.656 255.784 281.01 255.922 280.281 255.922C279.562 255.922 278.917 255.784 278.344 255.508C277.771 255.232 277.326 254.846 277.008 254.352C276.69 253.857 276.531 253.292 276.531 252.656C276.531 252.021 276.69 251.456 277.008 250.961C277.326 250.466 277.771 250.081 278.344 249.805C278.917 249.529 279.562 249.391 280.281 249.391ZM280.281 250.469C279.792 250.469 279.354 250.56 278.969 250.742C278.583 250.924 278.281 251.182 278.062 251.516C277.844 251.849 277.734 252.229 277.734 252.656C277.734 253.083 277.844 253.461 278.062 253.789C278.281 254.117 278.583 254.375 278.969 254.562C279.354 254.75 279.792 254.844 280.281 254.844C280.771 254.844 281.208 254.75 281.594 254.562C281.979 254.375 282.279 254.117 282.492 253.789C282.706 253.461 282.812 253.083 282.812 252.656C282.812 252.229 282.706 251.849 282.492 251.516C282.279 251.182 281.979 250.924 281.594 250.742C281.208 250.56 280.771 250.469 280.281 250.469ZM287.125 262.297H285.906V248.375H287.125V262.297ZM276.031 258.188C277.75 258.188 279.341 258.156 280.805 258.094C282.268 258.031 283.661 257.906 284.984 257.719L285.078 258.625C284.099 258.802 283.083 258.935 282.031 259.023C280.979 259.112 279.992 259.169 279.07 259.195C278.148 259.221 277.12 259.234 275.984 259.234L275.812 258.188H276.031ZM302.266 256.5H289.547V255.484H302.266V256.5ZM296.609 259.344H295.391V256.109H296.609V259.344ZM300.609 253.891H291.203V249.062H300.609V253.891ZM292.406 252.906H299.391V250.031H292.406V252.906ZM300.844 261.969H291.172V260.938H300.844V261.969ZM292.406 261.297H291.172V257.969H292.406V261.297ZM314.844 262.297H313.609V248.375H314.844V262.297ZM307.453 249.453C308.141 249.453 308.753 249.654 309.289 250.055C309.826 250.456 310.245 251.021 310.547 251.75C310.849 252.479 311 253.328 311 254.297C311 255.266 310.849 256.115 310.547 256.844C310.245 257.573 309.826 258.135 309.289 258.531C308.753 258.927 308.141 259.125 307.453 259.125C306.766 259.125 306.154 258.927 305.617 258.531C305.081 258.135 304.661 257.573 304.359 256.844C304.057 256.115 303.906 255.266 303.906 254.297C303.906 253.328 304.057 252.479 304.359 251.75C304.661 251.021 305.081 250.456 305.617 250.055C306.154 249.654 306.766 249.453 307.453 249.453ZM307.453 250.547C306.995 250.547 306.586 250.703 306.227 251.016C305.867 251.328 305.589 251.766 305.391 252.328C305.193 252.891 305.094 253.547 305.094 254.297C305.094 255.036 305.193 255.69 305.391 256.258C305.589 256.826 305.867 257.263 306.227 257.57C306.586 257.878 306.995 258.031 307.453 258.031C307.911 258.031 308.32 257.878 308.68 257.57C309.039 257.263 309.318 256.826 309.516 256.258C309.714 255.69 309.812 255.036 309.812 254.297C309.812 253.547 309.714 252.891 309.516 252.328C309.318 251.766 309.042 251.328 308.688 251.016C308.333 250.703 307.922 250.547 307.453 250.547ZM333.906 255.203H321.234V254.219H333.906V255.203ZM332.391 253.078H322.922V252.078H332.391V253.078ZM332.25 249.844H324.156V252.859H322.922V248.859H332.25V249.844ZM332.266 259.672H324.016V261.453H322.797V258.75H331.062V257.406H322.766V256.453H332.266V259.672ZM332.688 262.109H322.797V261.109H332.688V262.109ZM338.797 249.453C339.474 249.453 340.073 249.654 340.594 250.055C341.115 250.456 341.523 251.021 341.82 251.75C342.117 252.479 342.266 253.328 342.266 254.297C342.266 255.266 342.117 256.115 341.82 256.844C341.523 257.573 341.115 258.135 340.594 258.531C340.073 258.927 339.474 259.125 338.797 259.125C338.12 259.125 337.518 258.927 336.992 258.531C336.466 258.135 336.055 257.573 335.758 256.844C335.461 256.115 335.312 255.266 335.312 254.297C335.312 253.328 335.461 252.479 335.758 251.75C336.055 251.021 336.466 250.456 336.992 250.055C337.518 249.654 338.12 249.453 338.797 249.453ZM338.797 250.547C338.349 250.547 337.948 250.703 337.594 251.016C337.24 251.328 336.966 251.766 336.773 252.328C336.581 252.891 336.484 253.547 336.484 254.297C336.484 255.036 336.581 255.69 336.773 256.258C336.966 256.826 337.24 257.263 337.594 257.57C337.948 257.878 338.349 258.031 338.797 258.031C339.245 258.031 339.646 257.878 340 257.57C340.354 257.263 340.628 256.826 340.82 256.258C341.013 255.69 341.109 255.036 341.109 254.297C341.109 253.547 341.013 252.891 340.82 252.328C340.628 251.766 340.357 251.328 340.008 251.016C339.659 250.703 339.255 250.547 338.797 250.547ZM346.578 262.297H345.359V248.375H346.578V262.297ZM345.906 254.703H341.859V253.688H345.906V254.703ZM353.25 259.703H352.047V255.547H353.25V259.703ZM358.453 259.703H357.219V255.547H358.453V259.703ZM361.609 260.484H348.891V259.453H361.609V260.484ZM355.219 249.25C356.208 249.25 357.086 249.398 357.852 249.695C358.617 249.992 359.216 250.411 359.648 250.953C360.081 251.495 360.297 252.12 360.297 252.828C360.297 253.536 360.081 254.159 359.648 254.695C359.216 255.232 358.617 255.648 357.852 255.945C357.086 256.242 356.208 256.391 355.219 256.391C354.24 256.391 353.365 256.242 352.594 255.945C351.823 255.648 351.221 255.232 350.789 254.695C350.357 254.159 350.141 253.536 350.141 252.828C350.141 252.12 350.357 251.495 350.789 250.953C351.221 250.411 351.823 249.992 352.594 249.695C353.365 249.398 354.24 249.25 355.219 249.25ZM355.219 250.266C354.469 250.255 353.799 250.357 353.211 250.57C352.622 250.784 352.161 251.086 351.828 251.477C351.495 251.867 351.328 252.318 351.328 252.828C351.328 253.339 351.495 253.789 351.828 254.18C352.161 254.57 352.622 254.875 353.211 255.094C353.799 255.312 354.469 255.422 355.219 255.422C355.969 255.422 356.638 255.312 357.227 255.094C357.815 254.875 358.276 254.57 358.609 254.18C358.943 253.789 359.109 253.339 359.109 252.828C359.109 252.318 358.943 251.867 358.609 251.477C358.276 251.086 357.815 250.784 357.227 250.57C356.638 250.357 355.969 250.255 355.219 250.266Z" fill="#000A2F"/>
<path d="M62.2656 344.625H49.5469V343.625H62.2656V344.625ZM56.4688 349.266H55.2656V344.062H56.4688V349.266ZM52.3906 337.875H59.3906V335.953H60.625V341.938H51.1719V335.953H52.3906V337.875ZM59.3906 340.938V338.875H52.3906V340.938H59.3906ZM76.0625 343.234H63.3906V342.25H76.0625V343.234ZM70.3125 342.672H69.125V340.016H70.3125V342.672ZM74.5781 340.625H65V339.625H74.5781V340.625ZM74.4844 337.016H66.2031V340.234H65V336.031H74.4844V337.016ZM69.7188 344.25C70.7083 344.25 71.5625 344.346 72.2812 344.539C73 344.732 73.5495 345.016 73.9297 345.391C74.3099 345.766 74.5 346.219 74.5 346.75C74.5 347.281 74.3099 347.734 73.9297 348.109C73.5495 348.484 73.0026 348.768 72.2891 348.961C71.5755 349.154 70.7188 349.255 69.7188 349.266C68.7188 349.255 67.8594 349.154 67.1406 348.961C66.4219 348.768 65.8724 348.484 65.4922 348.109C65.112 347.734 64.9219 347.281 64.9219 346.75C64.9219 346.219 65.112 345.766 65.4922 345.391C65.8724 345.016 66.4219 344.732 67.1406 344.539C67.8594 344.346 68.7188 344.25 69.7188 344.25ZM69.7188 345.219C68.9792 345.219 68.3438 345.279 67.8125 345.398C67.2812 345.518 66.875 345.693 66.5938 345.922C66.3125 346.151 66.1719 346.427 66.1719 346.75C66.1719 347.073 66.3125 347.349 66.5938 347.578C66.875 347.807 67.2812 347.982 67.8125 348.102C68.3438 348.221 68.9792 348.281 69.7188 348.281C70.4583 348.281 71.0938 348.221 71.625 348.102C72.1562 347.982 72.5625 347.805 72.8438 347.57C73.125 347.336 73.2656 347.062 73.2656 346.75C73.2656 346.427 73.125 346.151 72.8438 345.922C72.5625 345.693 72.1536 345.518 71.6172 345.398C71.0807 345.279 70.4479 345.219 69.7188 345.219ZM81.7031 337.953C81.7031 338.839 81.5443 339.664 81.2266 340.43C80.9089 341.195 80.4583 341.859 79.875 342.422C79.2917 342.984 78.6146 343.417 77.8438 343.719L77.1719 342.734C77.8698 342.484 78.4844 342.12 79.0156 341.641C79.5469 341.161 79.9583 340.604 80.25 339.969C80.5417 339.333 80.6875 338.661 80.6875 337.953V336.234H81.7031V337.953ZM81.8906 338C81.8906 338.625 82.0365 339.229 82.3281 339.812C82.6198 340.396 83.0312 340.911 83.5625 341.359C84.0938 341.807 84.6979 342.151 85.375 342.391L84.75 343.375C83.9896 343.094 83.3203 342.688 82.7422 342.156C82.1641 341.625 81.7135 341 81.3906 340.281C81.0677 339.562 80.9062 338.802 80.9062 338V336.234H81.8906V338ZM88.0781 345.641H86.8594V335.375H88.0781V345.641ZM90.1719 340.688H87.6875V339.641H90.1719V340.688ZM88.7188 348.969H79.4062V347.938H88.7188V348.969ZM80.6562 348.438H79.4062V344.656H80.6562V348.438ZM100.328 345.75H99.125V342.703H100.328V345.75ZM100.094 338.156C100.094 338.948 99.9271 339.68 99.5938 340.352C99.2604 341.023 98.7995 341.599 98.2109 342.078C97.6224 342.557 96.9375 342.917 96.1562 343.156L95.5625 342.219C96.2604 342.01 96.875 341.708 97.4062 341.312C97.9375 340.917 98.3516 340.448 98.6484 339.906C98.9453 339.365 99.0938 338.781 99.0938 338.156V337.828H100.094V338.156ZM100.328 338.156C100.328 338.75 100.482 339.307 100.789 339.828C101.096 340.349 101.518 340.802 102.055 341.188C102.591 341.573 103.208 341.865 103.906 342.062L103.328 343.031C102.547 342.792 101.854 342.438 101.25 341.969C100.646 341.5 100.174 340.938 99.8359 340.281C99.4974 339.625 99.3281 338.917 99.3281 338.156V337.828H100.328V338.156ZM103.594 338.219H95.9062V337.203H103.594V338.219ZM100.328 337.656H99.125V335.484H100.328V337.656ZM106.453 349.297H105.234V335.375H106.453V349.297ZM95.25 345.375C97.1354 345.365 98.7865 345.331 100.203 345.273C101.62 345.216 102.99 345.089 104.312 344.891L104.406 345.797C103.427 345.974 102.411 346.107 101.359 346.195C100.307 346.284 99.3203 346.339 98.3984 346.359C97.4766 346.38 96.4479 346.391 95.3125 346.391L95.1406 345.375H95.25ZM120.359 345.578H119.141V335.391H120.359V345.578ZM120.797 348.969H111.391V347.938H120.797V348.969ZM112.609 348.438H111.391V344.641H112.609V348.438ZM113.594 337.562C113.594 338.458 113.43 339.305 113.102 340.102C112.773 340.898 112.315 341.596 111.727 342.195C111.138 342.794 110.464 343.25 109.703 343.562L109.031 342.609C109.729 342.339 110.346 341.945 110.883 341.43C111.419 340.914 111.833 340.32 112.125 339.648C112.417 338.977 112.562 338.281 112.562 337.562V336.172H113.594V337.562ZM113.812 337.562C113.812 338.25 113.958 338.911 114.25 339.547C114.542 340.182 114.956 340.742 115.492 341.227C116.029 341.711 116.635 342.078 117.312 342.328L116.672 343.312C115.901 343.01 115.224 342.578 114.641 342.016C114.057 341.453 113.602 340.789 113.273 340.023C112.945 339.258 112.781 338.438 112.781 337.562V336.172H113.812V337.562ZM137.391 340.016H134.219V339H137.391V340.016ZM138.25 343.656H137.016V335.375H138.25V343.656ZM133.641 344.094C134.609 344.094 135.443 344.195 136.141 344.398C136.839 344.602 137.372 344.896 137.742 345.281C138.112 345.667 138.297 346.13 138.297 346.672C138.297 347.214 138.112 347.677 137.742 348.062C137.372 348.448 136.839 348.742 136.141 348.945C135.443 349.148 134.609 349.255 133.641 349.266C132.682 349.255 131.854 349.148 131.156 348.945C130.458 348.742 129.922 348.448 129.547 348.062C129.172 347.677 128.984 347.214 128.984 346.672C128.984 346.13 129.172 345.667 129.547 345.281C129.922 344.896 130.458 344.602 131.156 344.398C131.854 344.195 132.682 344.094 133.641 344.094ZM133.641 345.047C132.943 345.047 132.333 345.112 131.812 345.242C131.292 345.372 130.893 345.56 130.617 345.805C130.341 346.049 130.203 346.339 130.203 346.672C130.203 346.995 130.341 347.279 130.617 347.523C130.893 347.768 131.292 347.956 131.812 348.086C132.333 348.216 132.943 348.281 133.641 348.281C134.349 348.281 134.961 348.216 135.477 348.086C135.992 347.956 136.388 347.768 136.664 347.523C136.94 347.279 137.078 346.995 137.078 346.672C137.078 346.339 136.94 346.049 136.664 345.805C136.388 345.56 135.992 345.372 135.477 345.242C134.961 345.112 134.349 345.047 133.641 345.047ZM131.344 337.938C131.344 338.771 131.177 339.56 130.844 340.305C130.51 341.049 130.049 341.701 129.461 342.258C128.872 342.815 128.198 343.24 127.438 343.531L126.797 342.547C127.484 342.297 128.096 341.935 128.633 341.461C129.169 340.987 129.586 340.443 129.883 339.828C130.18 339.214 130.328 338.583 130.328 337.938V336.781H131.344V337.938ZM131.562 337.922C131.562 338.516 131.706 339.094 131.992 339.656C132.279 340.219 132.682 340.716 133.203 341.148C133.724 341.581 134.318 341.917 134.984 342.156L134.344 343.141C133.594 342.87 132.935 342.471 132.367 341.945C131.799 341.419 131.357 340.807 131.039 340.109C130.721 339.411 130.562 338.682 130.562 337.922V336.781H131.562V337.922ZM134.672 337.422H127.188V336.391H134.672V337.422ZM144.469 338.391C144.469 339.13 144.341 339.836 144.086 340.508C143.831 341.18 143.466 341.773 142.992 342.289C142.518 342.805 141.948 343.203 141.281 343.484L140.672 342.562C141.255 342.323 141.76 341.987 142.188 341.555C142.615 341.122 142.943 340.633 143.172 340.086C143.401 339.539 143.516 338.974 143.516 338.391V337.906H144.469V338.391ZM144.672 338.391C144.672 338.932 144.789 339.461 145.023 339.977C145.258 340.492 145.591 340.953 146.023 341.359C146.456 341.766 146.958 342.073 147.531 342.281L146.938 343.234C146.271 342.964 145.698 342.583 145.219 342.094C144.74 341.604 144.375 341.039 144.125 340.398C143.875 339.758 143.75 339.089 143.75 338.391V337.906H144.672V338.391ZM147.188 338.219H140.953V337.219H147.188V338.219ZM144.672 337.641H143.516V335.547H144.672V337.641ZM152.359 343.891H151.188V335.391H152.359V343.891ZM151.562 340.125H148.891V339.109H151.562V340.125ZM149.375 343.828H148.188V335.641H149.375V343.828ZM152.359 349.266H151.156V345.641H143V344.641H152.359V349.266ZM160.719 335.625C161.75 335.625 162.633 335.716 163.367 335.898C164.102 336.081 164.661 336.352 165.047 336.711C165.432 337.07 165.625 337.505 165.625 338.016C165.625 338.536 165.432 338.977 165.047 339.336C164.661 339.695 164.102 339.969 163.367 340.156C162.633 340.344 161.75 340.443 160.719 340.453C159.688 340.443 158.805 340.344 158.07 340.156C157.336 339.969 156.773 339.695 156.383 339.336C155.992 338.977 155.797 338.536 155.797 338.016C155.797 337.505 155.992 337.07 156.383 336.711C156.773 336.352 157.336 336.081 158.07 335.898C158.805 335.716 159.688 335.625 160.719 335.625ZM160.719 336.547C159.958 336.547 159.305 336.604 158.758 336.719C158.211 336.833 157.794 337.003 157.508 337.227C157.221 337.451 157.078 337.714 157.078 338.016C157.078 338.339 157.219 338.612 157.5 338.836C157.781 339.06 158.195 339.229 158.742 339.344C159.289 339.458 159.948 339.516 160.719 339.516C161.49 339.516 162.148 339.458 162.695 339.344C163.242 339.229 163.659 339.057 163.945 338.828C164.232 338.599 164.375 338.328 164.375 338.016C164.375 337.714 164.229 337.453 163.938 337.234C163.646 337.016 163.227 336.846 162.68 336.727C162.133 336.607 161.479 336.547 160.719 336.547ZM167.047 342.391H154.391V341.391H167.047V342.391ZM165.422 346.703H157.172V348.391H155.953V345.797H164.219V344.531H155.922V343.594H165.422V346.703ZM165.844 349.109H155.953V348.141H165.844V349.109ZM183.094 343.5H181.875V335.375H183.094V343.5ZM185.188 339.766H182.75V338.734H185.188V339.766ZM174.031 338.297H178.078V336.172H179.297V342.625H172.828V336.172H174.031V338.297ZM178.078 341.641V339.281H174.031V341.641H178.078ZM183.203 345.266H175.594V348.781H174.375V344.281H183.203V345.266ZM183.469 349.078H174.375V348.078H183.469V349.078ZM189.781 336.453C190.469 336.453 191.076 336.654 191.602 337.055C192.128 337.456 192.542 338.021 192.844 338.75C193.146 339.479 193.297 340.328 193.297 341.297C193.297 342.266 193.146 343.115 192.844 343.844C192.542 344.573 192.125 345.135 191.594 345.531C191.062 345.927 190.458 346.125 189.781 346.125C189.104 346.125 188.5 345.927 187.969 345.531C187.438 345.135 187.023 344.573 186.727 343.844C186.43 343.115 186.281 342.266 186.281 341.297C186.281 340.328 186.43 339.479 186.727 338.75C187.023 338.021 187.438 337.456 187.969 337.055C188.5 336.654 189.104 336.453 189.781 336.453ZM189.781 337.547C189.323 337.547 188.917 337.703 188.562 338.016C188.208 338.328 187.932 338.766 187.734 339.328C187.536 339.891 187.438 340.547 187.438 341.297C187.438 342.036 187.536 342.69 187.734 343.258C187.932 343.826 188.211 344.263 188.57 344.57C188.93 344.878 189.333 345.031 189.781 345.031C190.24 345.031 190.646 344.878 191 344.57C191.354 344.263 191.628 343.826 191.82 343.258C192.013 342.69 192.109 342.036 192.109 341.297C192.109 340.547 192.013 339.891 191.82 339.328C191.628 338.766 191.354 338.328 191 338.016C190.646 337.703 190.24 337.547 189.781 337.547ZM196.812 349.266H195.594V335.375H196.812V349.266ZM199.141 341.984H196.531V340.922H199.141V341.984ZM212.609 347.484H199.891V346.469H212.609V347.484ZM206.812 346.781H205.609V343.109H206.812V346.781ZM202.625 338.875H209.844V336.359H211.047V343.469H201.391V336.359H202.625V338.875ZM209.844 342.469V339.875H202.625V342.469H209.844ZM224.094 337.797H215.062V336.781H224.094V337.797ZM226.375 347.297H213.719V346.281H226.375V347.297ZM219.891 346.812H218.688V341.312H219.891V346.812ZM224.859 338.344C224.849 339.49 224.815 340.516 224.758 341.422C224.701 342.328 224.562 343.38 224.344 344.578L223.094 344.438C223.323 343.302 223.469 342.276 223.531 341.359C223.594 340.443 223.625 339.443 223.625 338.359V338.172V336.781H224.859V338.172V338.344ZM243.031 343.109H241.812V335.391H243.031V343.109ZM236.266 337.266C236.266 338.099 236.096 338.888 235.758 339.633C235.419 340.378 234.951 341.023 234.352 341.57C233.753 342.117 233.062 342.531 232.281 342.812L231.656 341.844C232.354 341.594 232.974 341.237 233.516 340.773C234.057 340.31 234.479 339.773 234.781 339.164C235.083 338.555 235.234 337.922 235.234 337.266V335.906H236.266V337.266ZM236.484 337.266C236.484 337.891 236.635 338.492 236.938 339.07C237.24 339.648 237.659 340.156 238.195 340.594C238.732 341.031 239.344 341.365 240.031 341.594L239.438 342.562C238.656 342.292 237.966 341.898 237.367 341.383C236.768 340.867 236.299 340.255 235.961 339.547C235.622 338.839 235.453 338.078 235.453 337.266V335.906H236.484V337.266ZM243.125 344.938H233.781V343.938H243.125V344.938ZM243.266 349.078H233.656V348.078H243.266V349.078ZM236.938 348.672H235.734V344.359H236.938V348.672ZM241.203 348.672H239.984V344.359H241.203V348.672ZM249.125 336.453C249.802 336.453 250.401 336.654 250.922 337.055C251.443 337.456 251.852 338.021 252.148 338.75C252.445 339.479 252.594 340.328 252.594 341.297C252.594 342.266 252.445 343.115 252.148 343.844C251.852 344.573 251.443 345.135 250.922 345.531C250.401 345.927 249.802 346.125 249.125 346.125C248.448 346.125 247.846 345.927 247.32 345.531C246.794 345.135 246.383 344.573 246.086 343.844C245.789 343.115 245.641 342.266 245.641 341.297C245.641 340.328 245.789 339.479 246.086 338.75C246.383 338.021 246.794 337.456 247.32 337.055C247.846 336.654 248.448 336.453 249.125 336.453ZM249.125 337.547C248.677 337.547 248.276 337.703 247.922 338.016C247.568 338.328 247.294 338.766 247.102 339.328C246.909 339.891 246.812 340.547 246.812 341.297C246.812 342.036 246.909 342.69 247.102 343.258C247.294 343.826 247.568 344.263 247.922 344.57C248.276 344.878 248.677 345.031 249.125 345.031C249.573 345.031 249.974 344.878 250.328 344.57C250.682 344.263 250.956 343.826 251.148 343.258C251.341 342.69 251.438 342.036 251.438 341.297C251.438 340.547 251.341 339.891 251.148 339.328C250.956 338.766 250.685 338.328 250.336 338.016C249.987 337.703 249.583 337.547 249.125 337.547ZM256.906 349.297H255.688V335.375H256.906V349.297ZM256.234 341.703H252.188V340.688H256.234V341.703ZM263.578 346.703H262.375V342.547H263.578V346.703ZM268.781 346.703H267.547V342.547H268.781V346.703ZM271.938 347.484H259.219V346.453H271.938V347.484ZM265.547 336.25C266.536 336.25 267.414 336.398 268.18 336.695C268.945 336.992 269.544 337.411 269.977 337.953C270.409 338.495 270.625 339.12 270.625 339.828C270.625 340.536 270.409 341.159 269.977 341.695C269.544 342.232 268.945 342.648 268.18 342.945C267.414 343.242 266.536 343.391 265.547 343.391C264.568 343.391 263.693 343.242 262.922 342.945C262.151 342.648 261.549 342.232 261.117 341.695C260.685 341.159 260.469 340.536 260.469 339.828C260.469 339.12 260.685 338.495 261.117 337.953C261.549 337.411 262.151 336.992 262.922 336.695C263.693 336.398 264.568 336.25 265.547 336.25ZM265.547 337.266C264.797 337.255 264.128 337.357 263.539 337.57C262.951 337.784 262.49 338.086 262.156 338.477C261.823 338.867 261.656 339.318 261.656 339.828C261.656 340.339 261.823 340.789 262.156 341.18C262.49 341.57 262.951 341.875 263.539 342.094C264.128 342.312 264.797 342.422 265.547 342.422C266.297 342.422 266.966 342.312 267.555 342.094C268.143 341.875 268.604 341.57 268.938 341.18C269.271 340.789 269.438 340.339 269.438 339.828C269.438 339.318 269.271 338.867 268.938 338.477C268.604 338.086 268.143 337.784 267.555 337.57C266.966 337.357 266.297 337.255 265.547 337.266Z" fill="#000A2F"/>
<defs>
<filter id="filter0_d_1655_2533" x="72.119" y="212.319" width="326.762" height="96.762" filterUnits="userSpaceOnUse" color-interpolation-filters="sRGB">
<feFlood flood-opacity="0" result="BackgroundImageFix"/>
<feColorMatrix in="SourceAlpha" type="matrix" values="0 0 0 0 0 0 0 0 0 0 0 0 0 0 0 0 0 0 127 0" result="hardAlpha"/>
<feOffset dy="6.20042"/>
<feGaussianBlur stdDeviation="7.4405"/>
<feComposite in2="hardAlpha" operator="out"/>
<feColorMatrix type="matrix" values="0 0 0 0 0 0 0 0 0 0.58 0 0 0 0 1 0 0 0 0.1 0"/>
<feBlend mode="normal" in2="BackgroundImageFix" result="effect1_dropShadow_1655_2533"/>
<feBlend mode="normal" in="SourceGraphic" in2="effect1_dropShadow_1655_2533" result="shape"/>
</filter>
<filter id="filter1_d_1655_2533" x="-7.881" y="125.319" width="329.762" height="96.762" filterUnits="userSpaceOnUse" color-interpolation-filters="sRGB">
<feFlood flood-opacity="0" result="BackgroundImageFix"/>
<feColorMatrix in="SourceAlpha" type="matrix" values="0 0 0 0 0 0 0 0 0 0 0 0 0 0 0 0 0 0 127 0" result="hardAlpha"/>
<feOffset dy="6.20042"/>
<feGaussianBlur stdDeviation="7.4405"/>
<feComposite in2="hardAlpha" operator="out"/>
<feColorMatrix type="matrix" values="0 0 0 0 0 0 0 0 0 0.58 0 0 0 0 1 0 0 0 0.1 0"/>
<feBlend mode="normal" in2="BackgroundImageFix" result="effect1_dropShadow_1655_2533"/>
<feBlend mode="normal" in="SourceGraphic" in2="effect1_dropShadow_1655_2533" result="shape"/>
</filter>
<filter id="filter2_d_1655_2533" x="-3.881" y="299.319" width="329.762" height="96.762" filterUnits="userSpaceOnUse" color-interpolation-filters="sRGB">
<feFlood flood-opacity="0" result="BackgroundImageFix"/>
<feColorMatrix in="SourceAlpha" type="matrix" values="0 0 0 0 0 0 0 0 0 0 0 0 0 0 0 0 0 0 127 0" result="hardAlpha"/>
<feOffset dy="6.20042"/>
<feGaussianBlur stdDeviation="7.4405"/>
<feComposite in2="hardAlpha" operator="out"/>
<feColorMatrix type="matrix" values="0 0 0 0 0 0 0 0 0 0.58 0 0 0 0 1 0 0 0 0.1 0"/>
<feBlend mode="normal" in2="BackgroundImageFix" result="effect1_dropShadow_1655_2533"/>
<feBlend mode="normal" in="SourceGraphic" in2="effect1_dropShadow_1655_2533" result="shape"/>
</filter>
</defs>
</svg>
