<svg width="189" height="44" viewBox="0 0 189 44" fill="none" xmlns="http://www.w3.org/2000/svg">
<path d="M12.325 0.668999H15.623V8.795H1.343V0.668999H4.658V2.148H12.325V0.668999ZM4.658 4.664V6.177H12.325V4.664H4.658ZM0.68 10.019H16.32V12.637H10.149V16.377H6.851V12.637H0.68V10.019ZM27.149 6.194V7.299H33.32V9.662H17.68V7.299H23.851V6.194H18.309V0.533H32.538V2.726H21.471V4.001H32.589V6.194H27.149ZM21.182 10.563H29.818C31.96 10.563 32.98 11.736 32.98 13.453C32.98 15.17 31.96 16.343 29.818 16.343H21.182C19.04 16.343 18.02 15.17 18.02 13.453C18.02 11.736 19.04 10.563 21.182 10.563ZM22.355 14.235H28.645C29.308 14.235 29.699 14.031 29.699 13.453C29.699 12.875 29.308 12.671 28.645 12.671H22.355C21.692 12.671 21.301 12.875 21.301 13.453C21.301 14.031 21.692 14.235 22.355 14.235ZM49.555 0.430999V4.664H51.085V7.452H49.555V12.382H46.325V0.430999H49.555ZM40.307 6.432C39.236 8.217 37.366 9.458 35.003 9.815V7.044C36.975 6.347 38.097 4.749 38.114 2.063V0.736999H41.31V2.641C41.31 3.1 41.276 3.542 41.208 3.967C43.622 4.341 45.237 6.33 45.186 9.441H42.058C42.109 8.098 41.412 6.806 40.307 6.432ZM35.87 10.529H39.151V13.776H49.963V16.292H35.87V10.529ZM66.98 16.292H63.75V0.430999H66.98V16.292ZM51.969 6.551V4.919C51.969 1.961 54.145 0.618 56.933 0.618C59.721 0.618 61.88 1.961 61.88 4.919V6.551C61.88 9.509 59.721 10.852 56.933 10.852C54.145 10.852 51.969 9.509 51.969 6.551ZM55.131 4.63V6.84C55.131 7.945 56.032 8.353 56.933 8.353C57.834 8.353 58.735 7.945 58.735 6.84V4.63C58.735 3.542 57.834 3.117 56.933 3.117C56.032 3.117 55.131 3.542 55.131 4.63ZM59.347 15.612H51.68V12.909H59.347C61.098 12.909 62.016 12.841 62.917 12.705V15.408C62.016 15.544 61.098 15.612 59.347 15.612ZM80.9246 4.035H82.4546V0.430999H85.1746V16.292H82.4546V12.212H79.3946C78.1196 14.218 76.0796 15.493 73.4956 15.952V13.028C76.1986 12.212 78.0176 10.121 78.0176 6.347V3.678H73.5806V0.974999H80.9246V4.035ZM86.1946 16.292V0.430999H88.9996V16.292H86.1946ZM80.5336 9.56H82.4546V6.687H80.9246C80.8906 7.724 80.7716 8.676 80.5336 9.56ZM106.765 1.978V4.511H105.32V5.633H106.765V8.166H105.32V9.492H102.09V0.430999H105.32V1.978H106.765ZM95.5106 9.339C92.7396 9.339 90.7506 8.047 90.7506 5.565V4.29C90.7506 1.825 92.7226 0.515999 95.4936 0.515999C98.2646 0.515999 100.254 1.808 100.254 4.29V5.565C100.254 8.047 98.2646 9.339 95.5106 9.339ZM93.8786 4.256V5.599C93.8786 6.415 94.4736 6.993 95.4936 6.993C96.5136 6.993 97.1256 6.415 97.1256 5.599V4.256C97.1256 3.44 96.5136 2.845 95.4936 2.862C94.4736 2.879 93.8786 3.44 93.8786 4.256ZM102.073 12.705H91.4646V10.189H105.337V16.292H102.073V12.705ZM126.999 6.364H128.614V9.152H126.999V16.292H123.769V0.430999H126.999V6.364ZM119.349 4.919V3.593H112.532V0.856H122.426V4.766C122.426 7.282 122.222 9.186 121.746 11.226H118.669C119.179 8.71 119.349 7.01 119.349 4.919ZM117.343 6.449V13.028H119.434C121.117 13.028 122.035 12.96 122.936 12.824V15.442C122.035 15.578 121.117 15.646 119.434 15.646H112.209V13.028H114.385V6.449H117.343ZM139.001 6.313V3.746H141.279V0.430999H144.509V9.322H141.279V6.313H139.001ZM134.564 6.959C133.408 8.353 131.555 9.271 129.447 9.424V6.908C131.538 6.5 132.796 5.191 132.796 3.423V3.389H129.651V0.872999H139.052V3.389H135.822V3.423C135.822 3.899 135.771 4.375 135.652 4.817C137.981 5.021 139.511 6.636 139.511 9.152H136.536C136.485 8.03 135.652 7.061 134.564 6.959ZM133.714 9.849H141.092C143.455 9.849 144.696 11.175 144.696 13.096C144.696 15.017 143.455 16.343 141.092 16.343H133.714C131.317 16.343 130.11 14.983 130.11 13.096C130.11 11.209 131.317 9.849 133.714 9.849ZM134.564 14.167H140.242C141.024 14.167 141.415 13.742 141.415 13.096C141.415 12.45 141.024 12.008 140.242 12.008H134.564C133.799 12.008 133.391 12.45 133.391 13.096C133.391 13.742 133.799 14.167 134.564 14.167ZM146.651 3.253V3.185C146.651 1.434 147.841 0.498999 149.949 0.498999H158.092C160.2 0.498999 161.407 1.434 161.407 3.185V3.253C161.407 4.987 160.2 5.939 158.092 5.939H149.949C147.841 5.939 146.651 4.987 146.651 3.253ZM158.126 3.236V3.219C158.126 2.879 157.922 2.641 157.463 2.641H150.595C150.119 2.641 149.932 2.879 149.932 3.219V3.236C149.932 3.576 150.119 3.797 150.595 3.797H157.463C157.922 3.797 158.126 3.576 158.126 3.236ZM146.209 6.619H161.849V8.812H146.209V6.619ZM161.56 16.292H146.702V12.076H157.786V11.379H146.702V9.56H161.288V13.759H150.204V14.456H161.56V16.292ZM12.75 32.786V27.431H15.98V43.292H12.75V35.523H9.282V32.786H12.75ZM7.225 35.217C9.792 36.101 11.169 38.515 10.999 42.34H8.024C8.262 40.215 7.48 38.668 6.443 37.954C5.372 40.181 3.298 41.966 0.51 42.663V39.671C3.026 38.566 4.182 36.815 4.182 33.211V30.712H0.697V27.975H10.761V30.712H7.276V34.316C7.276 34.622 7.259 34.928 7.225 35.217ZM18.377 33.959V33.109C18.377 32.429 18.496 31.851 18.734 31.358H17.544V28.978H21.403V27.38H24.735V28.978H28.577V31.358H27.404C27.642 31.851 27.761 32.429 27.761 33.109V33.959C27.761 36.917 25.84 38.175 23.069 38.175C20.298 38.175 18.377 36.917 18.377 33.959ZM29.75 43.292V27.431H32.98V43.292H29.75ZM24.735 34.214V32.769C24.735 31.8 24.055 31.256 23.069 31.256C22.083 31.256 21.403 31.8 21.403 32.769V34.214C21.403 35.2 22.083 35.727 23.069 35.727C24.055 35.727 24.735 35.2 24.735 34.214ZM17.68 42.612V39.909H25.347C27.098 39.909 28.016 39.841 28.917 39.705V42.408C28.016 42.544 27.098 42.612 25.347 42.612H17.68ZM88.7446 43.292H85.5146V27.431H88.7446V43.292ZM73.7506 38.43V32.14C73.7506 29.216 75.7906 27.601 78.5786 27.601C81.3836 27.601 83.4236 29.199 83.4236 32.14V38.43C83.4236 41.371 81.3836 42.969 78.5956 42.969C75.8076 42.969 73.7506 41.371 73.7506 38.43ZM76.8956 31.868V38.702C76.8956 39.807 77.6436 40.351 78.5786 40.351C79.5136 40.351 80.2786 39.807 80.2786 38.702V31.868C80.2786 30.78 79.5136 30.202 78.5786 30.219C77.6436 30.236 76.8956 30.797 76.8956 31.868ZM95.7703 33.092V32.038C95.7703 31.63 95.8553 31.256 96.0253 30.916H95.0223V28.706H98.6263V27.329H101.907V28.706H105.477V30.916H104.457C104.627 31.256 104.712 31.63 104.712 32.038V33.092C104.712 35.285 102.91 36.594 100.241 36.594C97.5723 36.594 95.7703 35.285 95.7703 33.092ZM110.084 27.431V30.304H111.614V33.092H110.084V36.662H106.854V27.431H110.084ZM101.771 32.939V32.004C101.771 31.188 101.159 30.729 100.241 30.729C99.3233 30.729 98.7113 31.188 98.7113 32.004V32.939C98.7113 33.738 99.1873 34.265 100.241 34.265C101.159 34.265 101.771 33.738 101.771 32.939ZM110.186 43.292H96.2123V37.257H110.186V43.292ZM107.007 39.399H99.3913V41.133H107.007V39.399ZM120.505 33.636H121.474V27.431H124.194V43.292H121.474V36.373H120.505C120.488 39.705 119.128 42.408 116.221 43.428V40.453C117.343 39.688 117.921 38.294 117.921 36.322V30.44H116.51V35.455C116.51 38.702 114.844 41.371 112.073 42.17V39.348C113.229 38.736 113.994 37.325 113.994 35.438V30.491H112.328V27.975H120.505V33.636ZM125.044 43.292V27.431H127.849V43.292H125.044ZM134.535 32.344V31.817C134.535 31.426 134.62 31.069 134.773 30.746H133.787V28.57H137.391V27.244H140.672V28.57H144.242V30.746H143.239C143.392 31.069 143.477 31.426 143.477 31.817V32.344C143.477 34.452 141.692 35.744 139.006 35.744C136.32 35.744 134.535 34.452 134.535 32.344ZM148.849 27.431V30.134H150.379V32.922H148.849V35.727H145.619V27.431H148.849ZM140.553 32.174V31.783C140.553 31.001 139.924 30.542 139.006 30.542C138.088 30.542 137.459 31.001 137.459 31.783V32.174C137.459 32.939 137.935 33.466 139.006 33.466C139.924 33.466 140.553 32.939 140.553 32.174ZM148.917 40.589H138.445V41.354H149.189V43.292H135.113V38.906H145.721V38.124H135.113V36.237H148.917V40.589ZM158.539 33.721H159.899V27.431H162.704V43.292H159.899V36.288H158.199C157.315 39.994 154.731 42.323 151.025 42.952V40.028C153.762 39.229 155.615 37.104 155.615 33.296V30.678H151.11V27.975H158.539V33.279V33.721ZM163.724 43.292V27.431H166.529V43.292H163.724ZM178.786 36.679H172.785C170.014 36.679 168.348 34.69 168.348 32.412V32.021C168.348 29.743 170.014 27.754 172.785 27.754H178.786C181.557 27.754 183.24 29.743 183.24 32.021V32.412C183.24 34.69 181.557 36.679 178.786 36.679ZM171.697 32.157V32.293C171.697 33.33 172.411 34.061 173.635 34.061H177.936C179.16 34.061 179.891 33.33 179.891 32.293V32.157C179.891 31.12 179.16 30.372 177.936 30.372H173.635C172.411 30.372 171.697 31.12 171.697 32.157ZM180.588 37.529V40.334H183.614V42.867H167.974V40.334H171V37.529H174.128V40.334H177.46V37.529H180.588ZM188.748 38.685H185.45V28.009H188.748V38.685ZM188.748 42.952H185.45V39.688H188.748V42.952Z" fill="black"/>
<path d="M46.0066 32.191H48.4546V27.431H51.1746V43.292H48.4546V34.928H46.0066V32.191ZM52.1946 43.292V27.431H54.9996V43.292H52.1946ZM44.5956 34.877C46.8226 36.152 47.7916 38.753 47.6046 42.323H44.6976C44.8166 40.691 44.7486 39.076 43.9666 38.022C43.1506 40.385 41.6716 41.898 39.3086 42.799V39.45C40.9746 38.226 41.7906 36.407 41.7906 32.514V28.009H44.7146V32.327C44.7146 33.245 44.6806 34.095 44.5956 34.877ZM68.5146 27.431H71.7446V35.982H68.5146V27.431ZM61.8676 33.772C60.6946 35.132 58.8416 35.999 56.6826 36.135V33.67C58.8246 33.296 60.0826 32.038 60.1336 30.372H56.8866V27.873H66.5596V30.372H63.1766C63.1766 30.814 63.1086 31.239 63.0066 31.63C65.3526 31.834 66.9846 33.415 67.0016 35.982H63.9926C63.9416 34.826 63.0236 33.806 61.8676 33.772ZM68.5316 37.937V36.696H71.7616V43.292H57.4646V36.696H60.6946V37.937H68.5316ZM60.6946 39.96V41.167H68.5316V39.96H60.6946Z" fill="#2551F4"/>
</svg>
