<svg width="64" height="64" viewBox="0 0 64 64" fill="none" xmlns="http://www.w3.org/2000/svg">
<circle cx="32" cy="32" r="32" fill="#2551F4"/>
<path d="M24.4382 31H15V42H50V31H38.5955" stroke="white" stroke-width="1.4" stroke-linecap="round" stroke-linejoin="round"/>
<path d="M32.5303 17.4697C32.2374 17.1768 31.7626 17.1768 31.4697 17.4697L26.6967 22.2426C26.4038 22.5355 26.4038 23.0104 26.6967 23.3033C26.9896 23.5962 27.4645 23.5962 27.7574 23.3033L32 19.0607L36.2426 23.3033C36.5355 23.5962 37.0104 23.5962 37.3033 23.3033C37.5962 23.0104 37.5962 22.5355 37.3033 22.2426L32.5303 17.4697ZM32.75 33L32.75 18L31.25 18L31.25 33L32.75 33Z" fill="white"/>
</svg>
