<svg width="64" height="64" viewBox="0 0 64 64" fill="none" xmlns="http://www.w3.org/2000/svg">
<circle cx="32" cy="32" r="32" fill="#2551F4"/>
<rect x="16.5" y="15.5" width="24" height="34" rx="0.5" stroke="white"/>
<path d="M20 21H37" stroke="white" stroke-width="0.7" stroke-linecap="round"/>
<path d="M20 27H37" stroke="white" stroke-width="0.7" stroke-linecap="round"/>
<path d="M20 32H37" stroke="white" stroke-width="0.7" stroke-linecap="round"/>
<path d="M20 38H37" stroke="white" stroke-width="0.7" stroke-linecap="round"/>
<path d="M20 44H37" stroke="white" stroke-width="0.7" stroke-linecap="round"/>
<path d="M22 17L24.4074 11.75H26.8148V10H30.1852V11.75H32.5926L35 17H22Z" fill="#2551F4" stroke="white" stroke-width="0.8" stroke-linejoin="round"/>
<path d="M47.0261 33.1204C46.0308 37.8236 41.4112 40.8293 36.708 39.8339C32.0049 38.8385 28.9992 34.2189 29.9946 29.5158C30.9899 24.8127 35.6095 21.8069 40.3127 22.8023C45.0158 23.7977 48.0215 28.4173 47.0261 33.1204Z" fill="#2551F4"/>
<path fill-rule="evenodd" clip-rule="evenodd" d="M36.8883 38.9823C41.1211 39.8782 45.2787 37.173 46.1746 32.9402C47.0704 28.7074 44.3653 24.5498 40.1324 23.6539C35.8996 22.758 31.742 25.4632 30.8461 29.696C29.9503 33.9289 32.6554 38.0865 36.8883 38.9823ZM36.708 39.8339C41.4112 40.8293 46.0308 37.8236 47.0261 33.1204C48.0215 28.4173 45.0158 23.7977 40.3127 22.8023C35.6095 21.8069 30.9899 24.8127 29.9946 29.5158C28.9992 34.2189 32.0049 38.8385 36.708 39.8339Z" fill="white"/>
<path fill-rule="evenodd" clip-rule="evenodd" d="M43.6967 39.2343L43.6464 39.2673L44.9734 41.2949L45.0238 41.2619L43.6967 39.2343ZM42.4414 39.0156L44.7218 42.4998L46.2288 41.5136L43.9484 38.0293L42.4414 39.0156Z" fill="white"/>
<path fill-rule="evenodd" clip-rule="evenodd" d="M47.0189 41.9857L44.8339 43.4157L49.9759 51.2724C50.3708 51.8758 51.1801 52.0448 51.7834 51.6499C52.3868 51.255 52.5558 50.4457 52.1609 49.8424L47.0189 41.9857ZM43.6289 43.1641L49.2476 51.7491C49.9058 52.7547 51.2545 53.0363 52.2601 52.3782C53.2657 51.72 53.5474 50.3713 52.8892 49.3657L47.2705 40.7807L43.6289 43.1641Z" fill="white"/>
<path d="M44.4691 32.5859C43.7723 35.8781 40.5386 37.9821 37.2464 37.2853C33.9542 36.5885 31.8502 33.3548 32.547 30.0626C33.2437 26.7704 36.4775 24.6664 39.7697 25.3632C43.0619 26.06 45.1659 29.2937 44.4691 32.5859Z" fill="#2551F4"/>
<path fill-rule="evenodd" clip-rule="evenodd" d="M37.4266 36.4337C40.2485 37.031 43.0203 35.2275 43.6175 32.4056C44.2147 29.5838 42.4113 26.812 39.5894 26.2148C36.7675 25.6175 33.9958 27.421 33.3985 30.2429C32.8013 33.0647 34.6047 35.8365 37.4266 36.4337ZM37.2464 37.2853C40.5386 37.9821 43.7723 35.8781 44.4691 32.5859C45.1659 29.2937 43.0619 26.06 39.7697 25.3632C36.4775 24.6664 33.2437 26.7704 32.547 30.0626C31.8502 33.3548 33.9542 36.5885 37.2464 37.2853Z" fill="white"/>
</svg>
