<svg width="204" height="135" viewBox="0 0 204 135" fill="none" xmlns="http://www.w3.org/2000/svg">
<path d="M19.5677 124.13H11.7414V98.7948H19.5677V124.13ZM19.5677 134.256H11.7414V126.51H19.5677V134.256Z" fill="#2551F4"/>
<path d="M203.173 84.0623H195.508V46.4232H203.173V84.0623ZM167.793 82.8521V75.7922C175.942 74.5819 182.518 68.2886 182.518 57.4769V54.2495H167.995V47.7141H190.062V57.1945C190.062 72.6455 180.219 81.9646 167.793 82.8521Z" fill="black"/>
<path d="M134.471 46.3828H142.257V50.6187H150.688V56.549H148.106C148.631 57.6383 148.913 58.9292 148.913 60.3815V73.0086C148.913 80.0281 144.556 83.2958 138.384 83.2958C132.252 83.2958 127.855 80.0281 127.855 73.0086V60.3815C127.855 58.9292 128.137 57.6383 128.661 56.549H126.08V50.6187H134.471V46.3828ZM161.621 60.5026H165.453V67.1187H161.621V84.0623H153.956V46.4232H161.621V60.5026ZM141.652 73.4524V59.615C141.652 57.1542 140.361 56.2263 138.384 56.2263C136.407 56.2263 135.076 57.1542 135.076 59.615V73.4524C135.076 75.9132 136.407 77.0025 138.384 77.0025C140.361 77.0025 141.652 75.9132 141.652 73.4524Z" fill="black"/>
<path d="M119.786 66.7556H123.296V72.9683H108.652V84.264H100.825V72.9683H86.1812V66.7556H112.121C113.13 63.6896 113.654 60.5025 113.654 56.9121V53.7251H87.5125V47.1897H121.198V56.9121C121.198 60.8253 120.714 63.8913 119.786 66.7556Z" fill="black"/>
<path d="M29.2547 46.4232H36.9197V66.7152H29.2547V46.4232ZM13.4809 61.4708C10.6973 64.6981 6.30004 66.7556 1.17659 67.0783V61.2287C6.2597 60.3412 9.24501 57.3559 9.36604 53.4023H1.6607V47.472H24.6154V53.4023H16.5873C16.5873 54.4512 16.4259 55.4598 16.1839 56.3877C21.7511 56.8718 25.6239 60.6236 25.6642 66.7152H18.5237C18.4027 63.972 16.2242 61.5514 13.4809 61.4708ZM29.295 71.3546V68.4096H36.96V84.0623H3.03233V68.4096H10.6973V71.3546H29.295ZM10.6973 76.1553V79.0196H29.295V76.1553H10.6973Z" fill="#2551F4"/>
<path d="M179.932 15.3497H183.16V0.423157H189.816V38.0623H183.16V21.4414H179.126C177.028 30.236 170.896 35.7628 162.101 37.2555V30.3167C168.596 28.4206 172.994 23.3778 172.994 14.3412V8.1285H162.303V1.7141H179.932V15.3497ZM192.237 38.0623V0.423157H198.893V38.0623H192.237Z" fill="black"/>
<path d="M129.586 0.382812H137.372V4.61873H145.803V10.549H143.221C143.746 11.6383 144.028 12.9292 144.028 14.3815V27.0086C144.028 34.0281 139.671 37.2958 133.499 37.2958C127.367 37.2958 122.969 34.0281 122.969 27.0086V14.3815C122.969 12.9292 123.252 11.6383 123.776 10.549H121.194V4.61873H129.586V0.382812ZM156.736 14.5026H160.568V21.1187H156.736V38.0623H149.071V0.423154H156.736V14.5026ZM136.766 27.4524V13.615C136.766 11.1542 135.475 10.2263 133.499 10.2263C131.522 10.2263 130.191 11.1542 130.191 13.615V27.4524C130.191 29.9132 131.522 31.0025 133.499 31.0025C135.475 31.0025 136.766 29.9132 136.766 27.4524Z" fill="black"/>
<path d="M82.7887 1.51239H116.918V7.88644H82.7887V1.51239ZM111.472 17.8913H117.402V23.9426H82.3046V17.8913H88.2349V9.78252H96.0612V17.8913H103.646V9.78252H111.472V17.8913ZM81.296 37.0538V30.6394H118.411V37.0538H81.296Z" fill="black"/>
<path d="M77.2618 38.0623H69.5968V0.423157H77.2618V38.0623ZM41.6801 26.5245V11.5979C41.6801 4.65908 46.5211 0.826577 53.1372 0.826577C59.7937 0.826577 64.6347 4.61874 64.6347 11.5979V26.5245C64.6347 33.5037 59.7937 37.2958 53.1776 37.2958C46.5615 37.2958 41.6801 33.5037 41.6801 26.5245ZM49.1433 10.9524V27.17C49.1433 29.7922 50.9184 31.0832 53.1372 31.0832C55.356 31.0832 57.1714 29.7922 57.1714 27.17V10.9524C57.1714 8.37055 55.356 6.99892 53.1372 7.03926C50.9184 7.07961 49.1433 8.41089 49.1433 10.9524Z" fill="black"/>
<path d="M16.1839 11.7189H21.9931V0.423157H28.4479V38.0623H21.9931V18.214H16.1839V11.7189ZM30.8684 38.0623V0.423157H37.5248V38.0623H30.8684ZM12.8355 18.093C18.1203 21.1187 20.4198 27.291 19.976 35.7628H13.0775C13.3599 31.89 13.1985 28.0575 11.3428 25.5563C9.40638 31.1638 5.89662 34.7543 0.289062 36.8924V28.945C4.24259 26.0404 6.17901 21.7238 6.17901 12.4854V1.79479H13.1179V12.0417C13.1179 14.2202 13.0372 16.2373 12.8355 18.093Z" fill="#2551F4"/>
</svg>
