<svg width="212" height="93" viewBox="0 0 212 93" fill="none" xmlns="http://www.w3.org/2000/svg">
<g filter="url(#filter0_d_1624_2156)">
<path d="M20.1857 11.7226H25.995V0.426813H32.4497V38.066H25.995V18.2177H20.1857V11.7226ZM34.8703 38.066V0.426813H41.5267V38.066H34.8703ZM16.8373 18.0967C22.1222 21.1223 24.4217 27.2947 23.9779 35.7665H17.0794C17.3618 31.8937 17.2004 28.0612 15.3447 25.5599C13.4083 31.1675 9.8985 34.7579 4.29095 36.8961V28.9487C8.24447 26.0441 10.1809 21.7274 10.1809 12.4891V1.79845H17.1197V12.0453C17.1197 14.2238 17.0391 16.2409 16.8373 18.0967ZM33.2566 46.4268H40.9216V66.7189H33.2566V46.4268ZM17.4828 61.4744C14.6992 64.7018 10.3019 66.7592 5.17847 67.082V61.2324C10.2616 60.3448 13.2469 57.3595 13.3679 53.406H5.66258V47.4757H28.6172V53.406H20.5892C20.5892 54.4549 20.4278 55.4634 20.1857 56.3913C25.7529 56.8754 29.6258 60.6272 29.6661 66.7189H22.5256C22.4046 63.9756 20.2261 61.5551 17.4828 61.4744ZM33.2969 71.3582V68.4133H40.9619V84.066H7.03421V68.4133H14.6992V71.3582H33.2969ZM14.6992 76.1589V79.0232H33.2969V76.1589H14.6992Z" fill="#2551F4"/>
<path d="M81.2637 38.066H73.5987V0.426813H81.2637V38.066ZM45.6819 26.5282V11.6016C45.6819 4.66274 50.523 0.830234 57.1391 0.830234C63.7956 0.830234 68.6366 4.62239 68.6366 11.6016V26.5282C68.6366 33.5073 63.7956 37.2995 57.1794 37.2995C50.5633 37.2995 45.6819 33.5073 45.6819 26.5282ZM53.1452 10.9561V27.1736C53.1452 29.7959 54.9203 31.0868 57.1391 31.0868C59.3579 31.0868 61.1733 29.7959 61.1733 27.1736V10.9561C61.1733 8.37421 59.3579 7.00258 57.1391 7.04292C54.9203 7.08326 53.1452 8.41455 53.1452 10.9561ZM86.7906 1.51605H120.92V7.8901H86.7906V1.51605ZM115.474 17.8949H121.404V23.9463H86.3064V17.8949H92.2367V9.78618H100.063V17.8949H107.647V9.78618H115.474V17.8949ZM85.2979 37.0574V30.6431H122.413V37.0574H85.2979ZM133.587 0.386472H141.373V4.62239H149.805V10.5527H147.223C147.747 11.6419 148.03 12.9329 148.03 14.3852V27.0123C148.03 34.0318 143.673 37.2995 137.501 37.2995C131.369 37.2995 126.971 34.0318 126.971 27.0123V14.3852C126.971 12.9329 127.254 11.6419 127.778 10.5527H125.196V4.62239H133.587V0.386472ZM160.738 14.5062H164.57V21.1223H160.738V38.066H153.073V0.426813H160.738V14.5062ZM140.768 27.456V13.6187C140.768 11.1578 139.477 10.2299 137.501 10.2299C135.524 10.2299 134.193 11.1578 134.193 13.6187V27.456C134.193 29.9169 135.524 31.0061 137.501 31.0061C139.477 31.0061 140.768 29.9169 140.768 27.456ZM183.934 15.3534H187.162V0.426813H193.818V38.066H187.162V21.4451H183.128C181.03 30.2396 174.898 35.7665 166.103 37.2592V30.3203C172.598 28.4242 176.996 23.3815 176.996 14.3448V8.13216H166.305V1.71776H183.934V14.3045V15.3534ZM196.239 38.066V0.426813H202.895V38.066H196.239ZM123.788 66.7592H127.298V72.9719H112.654V84.2677H104.827V72.9719H90.1831V66.7592H116.123C117.132 63.6932 117.656 60.5062 117.656 56.9158V53.7287H91.5144V47.1933H125.2V56.9158C125.2 60.8289 124.716 63.8949 123.788 66.7592ZM138.473 46.3865H146.259V50.6224H154.69V56.5527H152.108C152.633 57.6419 152.915 58.9329 152.915 60.3852V73.0123C152.915 80.0318 148.558 83.2995 142.386 83.2995C136.254 83.2995 131.856 80.0318 131.856 73.0123V60.3852C131.856 58.9329 132.139 57.6419 132.663 56.5527H130.081V50.6224H138.473V46.3865ZM165.623 60.5062H169.455V67.1223H165.623V84.066H157.958V46.4268H165.623V60.5062ZM145.653 73.456V59.6187C145.653 57.1578 144.363 56.2299 142.386 56.2299C140.409 56.2299 139.078 57.1578 139.078 59.6187V73.456C139.078 75.9169 140.409 77.0061 142.386 77.0061C144.363 77.0061 145.653 75.9169 145.653 73.456ZM207.175 84.066H199.51V46.4268H207.175V84.066ZM171.795 82.8557V75.7959C179.944 74.5856 186.52 68.2922 186.52 57.4806V54.2532H171.997V47.7178H194.064V57.1982C194.064 72.6492 184.221 81.9682 171.795 82.8557Z" fill="black"/>
</g>
<defs>
<filter id="filter0_d_1624_2156" x="0.289062" y="0.382812" width="210.887" height="91.8828" filterUnits="userSpaceOnUse" color-interpolation-filters="sRGB">
<feFlood flood-opacity="0" result="BackgroundImageFix"/>
<feColorMatrix in="SourceAlpha" type="matrix" values="0 0 0 0 0 0 0 0 0 0 0 0 0 0 0 0 0 0 127 0" result="hardAlpha"/>
<feOffset dy="4"/>
<feGaussianBlur stdDeviation="2"/>
<feComposite in2="hardAlpha" operator="out"/>
<feColorMatrix type="matrix" values="0 0 0 0 0 0 0 0 0 0 0 0 0 0 0 0 0 0 0.25 0"/>
<feBlend mode="normal" in2="BackgroundImageFix" result="effect1_dropShadow_1624_2156"/>
<feBlend mode="normal" in="SourceGraphic" in2="effect1_dropShadow_1624_2156" result="shape"/>
</filter>
</defs>
</svg>
