<svg width="183" height="110" viewBox="0 0 183 110" fill="none" xmlns="http://www.w3.org/2000/svg">
<path d="M19.0245 100.75H16.7868V99.6915H19.0245V100.75ZM15.4482 98.8124C15.4482 99.6693 15.3394 100.497 15.1218 101.297C14.9087 102.096 14.5935 102.811 14.1762 103.441C13.7588 104.067 13.2571 104.56 12.671 104.919L11.8785 103.974C12.4246 103.645 12.893 103.208 13.2837 102.662C13.6744 102.111 13.9675 101.505 14.1628 100.844C14.3626 100.182 14.4625 99.505 14.4625 98.8124V96.588H15.4482V98.8124ZM15.6813 98.7591C15.6813 99.4207 15.7723 100.067 15.9543 100.697C16.1364 101.323 16.4072 101.898 16.7668 102.422C17.1309 102.946 17.5682 103.365 18.0788 103.681L17.3729 104.653C16.7957 104.307 16.3095 103.825 15.9144 103.208C15.5192 102.586 15.2217 101.896 15.0219 101.137C14.8266 100.377 14.7289 99.5849 14.7289 98.7591V96.588H15.6813V98.7591ZM22.3144 107.43H21.0957V95.4958H22.3144V107.43ZM19.837 106.844H18.6449V95.7223H19.837V106.844ZM78.4832 97.4072C78.4832 98.1043 78.3434 98.7591 78.0636 99.3718C77.7884 99.9845 77.3932 100.517 76.8782 100.97C76.3676 101.423 75.7682 101.765 75.0801 101.996L74.4207 101.003C75.0379 100.817 75.5729 100.542 76.0257 100.178C76.483 99.8092 76.8338 99.3874 77.078 98.9123C77.3266 98.4328 77.4509 97.9311 77.4509 97.4072V96.5281H78.4832V97.4072ZM78.7296 97.4072C78.7296 97.9 78.8517 98.3729 79.0959 98.8257C79.3445 99.2786 79.6953 99.6782 80.1482 100.024C80.601 100.366 81.1294 100.626 81.7332 100.804L81.0939 101.796C80.4057 101.583 79.8041 101.261 79.289 100.83C78.7785 100.4 78.3833 99.8891 78.1036 99.2986C77.8283 98.7081 77.6907 98.0776 77.6907 97.4072V96.5281H78.7296V97.4072ZM81.3669 97.274H74.7737V96.255H81.3669V97.274ZM84.2106 101.962H82.9519V95.4958H84.2106V101.962ZM77.6507 103.861H82.9586V102.522H84.2106V107.284H76.3987V102.522H77.6507V103.861ZM82.9586 106.258V104.853H77.6507V106.258H82.9586Z" fill="#2551F4"/>
<path d="M33.7227 107.463H32.4507V95.4958H33.7227V107.463ZM27.3293 96.3949C27.9242 96.3949 28.4548 96.5681 28.921 96.9144C29.3871 97.2607 29.7512 97.7491 30.0132 98.3795C30.2751 99.01 30.4061 99.7448 30.4061 100.584C30.4061 101.427 30.2751 102.165 30.0132 102.795C29.7512 103.425 29.3871 103.914 28.921 104.26C28.4548 104.602 27.9242 104.773 27.3293 104.773C26.7343 104.773 26.2015 104.602 25.7309 104.26C25.2647 103.914 24.9007 103.425 24.6387 102.795C24.3768 102.165 24.2458 101.427 24.2458 100.584C24.2458 99.7448 24.3768 99.01 24.6387 98.3795C24.9007 97.7491 25.2647 97.2607 25.7309 96.9144C26.2015 96.5681 26.7343 96.3949 27.3293 96.3949ZM27.3293 97.5271C26.9652 97.5271 26.6411 97.6514 26.3569 97.9C26.0728 98.1486 25.853 98.5038 25.6976 98.9656C25.5467 99.4229 25.4712 99.9623 25.4712 100.584C25.4712 101.201 25.5467 101.741 25.6976 102.202C25.853 102.664 26.0728 103.019 26.3569 103.268C26.6411 103.512 26.9652 103.634 27.3293 103.634C27.6933 103.634 28.0152 103.512 28.2949 103.268C28.5791 103.019 28.7989 102.664 28.9543 102.202C29.1097 101.741 29.1873 101.201 29.1873 100.584C29.1873 99.9623 29.1097 99.4229 28.9543 98.9656C28.7989 98.5038 28.5813 98.1486 28.3016 97.9C28.0219 97.6514 27.6978 97.5271 27.3293 97.5271ZM46.5428 105.952H35.6207V104.886H46.5428V105.952ZM45.5438 97.6802H36.5464V96.648H45.5438V97.6802ZM45.5105 102.682H36.5864V101.669H45.5105V102.682ZM39.6166 101.783H38.3579V97.587H39.6166V101.783ZM43.7257 101.783H42.4803V97.587H43.7257V101.783ZM56.7057 107.43H55.4536V95.4958H56.7057V107.43ZM58.6303 101.383H56.4193V100.338H58.6303V101.383ZM54.4147 98.3995H47.342V97.3672H54.4147V98.3995ZM50.9316 99.2853C51.4999 99.2853 52.0083 99.4029 52.4567 99.6382C52.9096 99.8735 53.2625 100.202 53.5156 100.624C53.7731 101.046 53.9019 101.523 53.9019 102.056C53.9019 102.593 53.7731 103.072 53.5156 103.494C53.2625 103.916 52.9096 104.245 52.4567 104.48C52.0083 104.715 51.4999 104.833 50.9316 104.833C50.3589 104.833 49.8483 104.715 49.3999 104.48C48.9514 104.245 48.5985 103.916 48.3409 103.494C48.0879 103.072 47.9613 102.593 47.9613 102.056C47.9613 101.523 48.0879 101.046 48.3409 100.624C48.5985 100.202 48.9514 99.8735 49.3999 99.6382C49.8483 99.4029 50.3589 99.2853 50.9316 99.2853ZM50.9316 100.331C50.5942 100.331 50.2923 100.404 50.0259 100.551C49.7595 100.693 49.5486 100.895 49.3932 101.157C49.2422 101.419 49.1668 101.718 49.1668 102.056C49.1668 102.398 49.2422 102.697 49.3932 102.955C49.5486 103.212 49.7595 103.414 50.0259 103.561C50.2923 103.703 50.5942 103.774 50.9316 103.774C51.269 103.774 51.5709 103.703 51.8373 103.561C52.1037 103.414 52.3124 103.212 52.4634 102.955C52.6143 102.697 52.6898 102.398 52.6898 102.056C52.6898 101.718 52.6143 101.419 52.4634 101.157C52.3124 100.895 52.1037 100.693 51.8373 100.551C51.5709 100.404 51.269 100.331 50.9316 100.331ZM51.551 97.8068H50.2923V95.6557H51.551V97.8068ZM69.4525 107.43H68.2538V95.4958H69.4525V107.43ZM66.0494 101.316H63.139V100.298H66.0494V101.316ZM66.9351 106.857H65.7363V95.8022H66.9351V106.857ZM64.3711 96.9876C64.3711 98.0932 64.2201 99.1254 63.9182 100.084C63.6208 101.039 63.139 101.923 62.473 102.735C61.8071 103.548 60.9435 104.265 59.8824 104.886L59.1565 103.98C60.08 103.434 60.837 102.819 61.4275 102.136C62.018 101.447 62.4531 100.697 62.7328 99.8846C63.0125 99.0677 63.1523 98.1819 63.1523 97.2274V96.9876H64.3711ZM63.5986 98.0199H59.7159V96.9876H63.5986V98.0199ZM94.9729 97.274H87.4273V96.2484H94.9729V97.274ZM96.9841 102.395H86.102V101.363H96.9841V102.395ZM92.1425 107.457H90.8771V102.062H92.1425V107.457ZM95.5989 97.4139C95.5989 97.9511 95.59 98.4284 95.5723 98.8457C95.5545 99.2586 95.5123 99.7337 95.4457 100.271C95.3836 100.804 95.2792 101.379 95.1327 101.996L93.8807 101.849C94.0272 101.241 94.1337 100.673 94.2003 100.144C94.2669 99.616 94.3069 99.1476 94.3202 98.7392C94.3335 98.3307 94.3402 97.8534 94.3402 97.3073V96.2484H95.5989V97.3006V97.4139ZM107.187 107.43H105.935V95.4958H107.187V107.43ZM109.112 101.383H106.901V100.338H109.112V101.383ZM104.896 98.3995H97.8233V97.3672H104.896V98.3995ZM101.413 99.2853C101.981 99.2853 102.49 99.4029 102.938 99.6382C103.391 99.8735 103.744 100.202 103.997 100.624C104.254 101.046 104.383 101.523 104.383 102.056C104.383 102.593 104.254 103.072 103.997 103.494C103.744 103.916 103.391 104.245 102.938 104.48C102.49 104.715 101.981 104.833 101.413 104.833C100.84 104.833 100.33 104.715 99.8812 104.48C99.4327 104.245 99.0798 103.916 98.8223 103.494C98.5692 103.072 98.4426 102.593 98.4426 102.056C98.4426 101.523 98.5692 101.046 98.8223 100.624C99.0798 100.202 99.4327 99.8735 99.8812 99.6382C100.33 99.4029 100.84 99.2853 101.413 99.2853ZM101.413 100.331C101.075 100.331 100.774 100.404 100.507 100.551C100.241 100.693 100.03 100.895 99.8745 101.157C99.7235 101.419 99.6481 101.718 99.6481 102.056C99.6481 102.398 99.7235 102.697 99.8745 102.955C100.03 103.212 100.241 103.414 100.507 103.561C100.774 103.703 101.075 103.774 101.413 103.774C101.75 103.774 102.052 103.703 102.319 103.561C102.585 103.414 102.794 103.212 102.945 102.955C103.096 102.697 103.171 102.398 103.171 102.056C103.171 101.718 103.096 101.419 102.945 101.157C102.794 100.895 102.585 100.693 102.319 100.551C102.052 100.404 101.75 100.331 101.413 100.331ZM102.032 97.8068H100.774V95.6557H102.032V97.8068ZM119.348 99.9979H111.11V98.9989H119.348V99.9979ZM120.586 102.522H109.664V101.51H120.586V102.522ZM112.368 99.505H111.11V95.9354H112.368V99.505ZM119.414 107.15H111.03V106.112H119.414V107.15ZM112.295 106.411H111.03V103.661H112.295V106.411ZM130.316 102.935C131.133 102.935 131.839 103.021 132.434 103.195C133.034 103.368 133.491 103.623 133.806 103.96C134.121 104.298 134.279 104.702 134.279 105.173C134.279 105.648 134.121 106.052 133.806 106.385C133.491 106.722 133.036 106.98 132.441 107.157C131.85 107.339 131.142 107.432 130.316 107.437C129.495 107.432 128.782 107.339 128.179 107.157C127.579 106.98 127.118 106.722 126.793 106.385C126.474 106.052 126.314 105.648 126.314 105.173C126.314 104.702 126.474 104.298 126.793 103.96C127.118 103.623 127.579 103.368 128.179 103.195C128.782 103.021 129.495 102.935 130.316 102.935ZM130.316 103.927C129.744 103.927 129.253 103.976 128.845 104.074C128.436 104.171 128.123 104.313 127.906 104.5C127.692 104.682 127.586 104.906 127.586 105.173C127.586 105.43 127.692 105.654 127.906 105.845C128.123 106.032 128.438 106.176 128.851 106.278C129.264 106.38 129.753 106.431 130.316 106.431C130.889 106.431 131.38 106.38 131.788 106.278C132.197 106.176 132.508 106.032 132.721 105.845C132.938 105.654 133.047 105.43 133.047 105.173C133.047 104.906 132.94 104.682 132.727 104.5C132.514 104.313 132.203 104.171 131.795 104.074C131.391 103.976 130.898 103.927 130.316 103.927ZM134.172 102.628H132.914V95.4958H134.172V102.628ZM135.911 99.4917H133.82V98.4261H135.911V99.4917ZM126.5 97.9666H129.624V96.2484H130.889V101.789H125.255V96.2484H126.5V97.9666ZM129.624 100.777V98.9589H126.5V100.777H129.624ZM138.415 97.8534H141.412V96.1152H142.657V101.616H137.156V96.1152H138.415V97.8534ZM141.412 100.597V98.839H138.415V100.597H141.412ZM145.607 99.4118H142.331V98.3662H145.607V99.4118ZM146.533 102.029H145.268V95.4958H146.533V102.029ZM140.013 103.914H145.268V102.575H146.52V107.277H138.748V102.575H140.013V103.914ZM145.268 106.245V104.913H140.013V106.245H145.268ZM149.443 109.062H148.318L149.024 105.386H150.522L149.443 109.062ZM162.17 100.75H159.933V99.6915H162.17V100.75ZM158.594 98.8124C158.594 99.6693 158.485 100.497 158.268 101.297C158.055 102.096 157.739 102.811 157.322 103.441C156.905 104.067 156.403 104.56 155.817 104.919L155.024 103.974C155.57 103.645 156.039 103.208 156.43 102.662C156.82 102.111 157.113 101.505 157.309 100.844C157.508 100.182 157.608 99.505 157.608 98.8124V96.588H158.594V98.8124ZM158.827 98.7591C158.827 99.4207 158.918 100.067 159.1 100.697C159.282 101.323 159.553 101.898 159.913 102.422C160.277 102.946 160.714 103.365 161.225 103.681L160.519 104.653C159.941 104.307 159.455 103.825 159.06 103.208C158.665 102.586 158.368 101.896 158.168 101.137C157.972 100.377 157.875 99.5849 157.875 98.7591V96.588H158.827V98.7591ZM165.46 107.43H164.242V95.4958H165.46V107.43ZM162.983 106.844H161.791V95.7223H162.983V106.844ZM171.148 97.4072C171.148 98.1043 171.008 98.7591 170.728 99.3718C170.453 99.9845 170.058 100.517 169.543 100.97C169.032 101.423 168.433 101.765 167.745 101.996L167.085 101.003C167.702 100.817 168.237 100.542 168.69 100.178C169.148 99.8092 169.498 99.3874 169.742 98.9123C169.991 98.4328 170.115 97.9311 170.115 97.4072V96.5281H171.148V97.4072ZM171.394 97.4072C171.394 97.9 171.516 98.3729 171.76 98.8257C172.009 99.2786 172.36 99.6782 172.813 100.024C173.266 100.366 173.794 100.626 174.398 100.804L173.758 101.796C173.07 101.583 172.469 101.261 171.954 100.83C171.443 100.4 171.048 99.8891 170.768 99.2986C170.493 98.7081 170.355 98.0776 170.355 97.4072V96.5281H171.394V97.4072ZM174.031 97.274H167.438V96.255H174.031V97.274ZM176.875 101.962H175.616V95.4958H176.875V101.962ZM170.315 103.861H175.623V102.522H176.875V107.284H169.063V102.522H170.315V103.861ZM175.623 106.258V104.853H170.315V106.258H175.623ZM180.844 103.534H179.532L179.406 96.6613H180.964L180.844 103.534ZM180.185 106.398C180.021 106.398 179.865 106.354 179.719 106.265C179.572 106.176 179.457 106.06 179.373 105.918C179.288 105.772 179.246 105.614 179.246 105.446C179.246 105.281 179.288 105.126 179.373 104.979C179.457 104.833 179.572 104.72 179.719 104.64C179.865 104.555 180.021 104.513 180.185 104.513C180.354 104.513 180.509 104.555 180.651 104.64C180.798 104.72 180.913 104.833 180.998 104.979C181.086 105.126 181.131 105.281 181.131 105.446C181.131 105.614 181.086 105.772 180.998 105.918C180.913 106.06 180.798 106.176 180.651 106.265C180.509 106.354 180.354 106.398 180.185 106.398Z" fill="#787878"/>
<circle cx="72.1826" cy="11.2451" r="11.2451" fill="#B6C3F3" fill-opacity="0.5"/>
<path d="M71.9321 6.16172L68.0923 8.08162C67.9065 8.17454 67.7876 8.36314 67.7971 8.5707C67.8989 10.7883 68.9855 14.6769 71.9256 16.3278C72.0813 16.4152 72.2723 16.412 72.4259 16.321C75.5793 14.4524 76.3847 10.5991 76.5431 8.58896C76.5602 8.37243 76.4404 8.17057 76.2462 8.07344L72.4227 6.16172C72.2683 6.08451 72.0865 6.08451 71.9321 6.16172Z" fill="#2551F4"/>
<path d="M72.181 3.29688L65.3242 6.64588C65.3242 9.99488 67.0384 16.6929 72.181 19.2046C77.7522 16.2743 78.895 9.57626 79.0378 6.64588L72.181 3.29688Z" stroke="#2551F4" stroke-width="1.37136" stroke-linejoin="round"/>
<path d="M40.4141 63.2485L56.412 33.6641L68.9161 63.2485H40.4141Z" fill="#2551F4"/>
<rect x="11.9062" y="62.5234" width="48.7061" height="21.6472" fill="#2551F4"/>
<path d="M93.3572 34.1254C93.2885 33.4271 93.0539 32.8204 92.6532 32.3053C92.264 31.7902 91.726 31.4067 91.0392 31.1549C90.3638 30.8916 89.5739 30.76 88.6696 30.76C87.7538 30.76 86.9525 30.8973 86.2657 31.172C85.5903 31.4468 85.0638 31.8303 84.686 32.3225C84.3197 32.8147 84.1365 33.3814 84.1365 34.0224C84.1365 34.9611 84.5257 35.688 85.3041 36.2031C86.094 36.7182 87.1242 37.136 88.3949 37.4565L90.7129 38.0403C92.9222 38.5555 94.6908 39.3739 96.0187 40.4958C97.3466 41.6176 98.0162 43.1801 98.0277 45.1834C98.0277 46.6372 97.6499 47.9193 96.8944 49.0296C96.1503 50.14 95.0686 51.0043 93.6491 51.6224C92.2411 52.2406 90.5527 52.5496 88.5838 52.5496C86.6606 52.5496 84.9836 52.252 83.5527 51.6568C82.1333 51.0501 81.0286 50.1686 80.2388 49.0125C79.4489 47.8563 79.0197 46.4655 78.951 44.84H83.3467C83.4154 45.6871 83.6844 46.4025 84.1537 46.9863C84.623 47.5587 85.2355 47.9937 85.991 48.2913C86.7465 48.5775 87.5993 48.7206 88.5494 48.7206C89.5339 48.7206 90.4039 48.5717 91.1594 48.2741C91.9149 47.9765 92.4987 47.5587 92.9108 47.0207C93.3343 46.4712 93.5461 45.8473 93.5461 45.149C93.5461 44.5309 93.3687 44.01 93.0138 43.5865C92.659 43.1515 92.1553 42.7909 91.5028 42.5047C90.8617 42.2186 90.049 41.9496 89.0645 41.6977L86.2314 40.9765C84.1022 40.4156 82.4653 39.5914 81.3205 38.504C80.1873 37.4165 79.6206 36.0085 79.6206 34.28C79.6206 32.8376 80.0156 31.567 80.8054 30.468C81.5953 29.3577 82.6827 28.4991 84.0679 27.8924C85.453 27.2743 87.0098 26.9652 88.7383 26.9652C90.4668 26.9652 92.0007 27.2686 93.3401 27.8753C94.6908 28.482 95.744 29.3291 96.4995 30.4165C97.255 31.4926 97.6499 32.7289 97.6843 34.1254H93.3572ZM112.64 43.9127C112.251 43.9242 111.375 43.9757 110.013 44.0673L108.279 44.2046C107.203 44.2962 106.367 44.5652 105.772 45.0117C105.176 45.4581 104.879 46.082 104.879 46.8833C104.879 47.3984 105.01 47.8391 105.274 48.2054C105.537 48.5603 105.909 48.835 106.39 49.0296C106.882 49.2242 107.432 49.3215 108.038 49.3215C108.908 49.3215 109.669 49.1498 110.322 48.8064C110.986 48.4515 111.495 47.9822 111.85 47.3984C112.216 46.8146 112.4 46.1736 112.4 45.4753L112.365 39.517C112.365 38.8989 112.239 38.3723 111.987 37.9373C111.736 37.5023 111.352 37.1761 110.837 36.9586C110.333 36.7411 109.715 36.6323 108.983 36.6323C108.044 36.6323 107.271 36.8269 106.665 37.2162C106.069 37.6054 105.686 38.1434 105.514 38.8302H101.256C101.382 37.7656 101.771 36.8155 102.423 35.9799C103.087 35.1328 103.986 34.4746 105.119 34.0052C106.264 33.5244 107.592 33.2841 109.103 33.2841C110.431 33.2841 111.661 33.4844 112.795 33.885C113.928 34.2857 114.866 34.9668 115.611 35.9283C116.355 36.8785 116.727 38.1319 116.727 39.6887V52.1719H112.537V49.5963H112.4C112.113 50.1572 111.724 50.6551 111.232 51.0901C110.751 51.5251 110.144 51.88 109.412 52.1547C108.679 52.418 107.844 52.5496 106.905 52.5496C105.703 52.5496 104.633 52.3321 103.694 51.8971C102.755 51.4622 102.011 50.8211 101.462 49.974C100.924 49.1269 100.655 48.1139 100.655 46.9348C100.655 44.9888 101.302 43.5922 102.595 42.7451C103.889 41.8866 105.56 41.3944 107.609 41.2684C107.907 41.2341 108.977 41.1769 110.82 41.0967L112.606 41.0281L112.64 43.9127ZM130.292 36.8899H119.285V33.5244H130.292V36.8899ZM122.05 31.7387C122.05 30.5367 122.284 29.5237 122.754 28.6995C123.234 27.8638 123.91 27.2285 124.78 26.7935C125.661 26.3585 126.697 26.141 127.888 26.141C128.391 26.141 128.872 26.1639 129.33 26.2097C129.788 26.2555 130.229 26.3242 130.652 26.4158V29.8671C129.988 29.7869 129.467 29.7469 129.09 29.7469C128.197 29.7469 127.527 29.9415 127.081 30.3307C126.646 30.7084 126.428 31.3094 126.428 32.1336V52.1719H122.05V31.7387ZM140.972 52.5325C139.129 52.5325 137.526 52.1433 136.164 51.3648C134.802 50.5864 133.749 49.4761 133.004 48.0337C132.272 46.5914 131.906 44.9029 131.906 42.9684C131.906 41.0567 132.272 39.3682 133.004 37.903C133.749 36.4263 134.785 35.2873 136.112 34.486C137.44 33.6847 138.986 33.2841 140.748 33.2841C142.34 33.2841 143.776 33.6217 145.058 34.2971C146.34 34.9725 147.359 36.0199 148.115 37.4394C148.87 38.8474 149.248 40.5931 149.248 42.6765V44.0501H133.983V41.0796H145.058C145.058 40.2325 144.881 39.477 144.526 38.813C144.171 38.1491 143.668 37.6283 143.015 37.2505C142.374 36.8727 141.636 36.6839 140.8 36.6839C139.907 36.6839 139.117 36.8956 138.43 37.3192C137.744 37.7427 137.206 38.3151 136.816 39.0363C136.439 39.746 136.244 40.5244 136.233 41.3715V43.9127C136.233 45.0002 136.427 45.9389 136.816 46.7287C137.217 47.5072 137.778 48.1024 138.499 48.5145C139.22 48.9266 140.062 49.1327 141.023 49.1327C141.641 49.1327 142.197 49.0468 142.689 48.8751C143.192 48.7034 143.622 48.4802 143.977 48.2054C144.331 47.9193 144.6 47.5816 144.784 47.1924H149.076C148.813 48.2569 148.315 49.1956 147.582 50.0084C146.861 50.8097 145.934 51.4335 144.801 51.88C143.668 52.315 142.391 52.5325 140.972 52.5325ZM79.861 58.3086H84.3254V68.8686H95.8985V58.3086H100.38V83.1719H95.8985V72.5947H84.3254V83.1719H79.861V58.3086ZM112.932 83.5325C111.146 83.5325 109.572 83.1318 108.21 82.3305C106.859 81.5292 105.817 80.4017 105.085 78.9479C104.352 77.4941 103.986 75.8171 103.986 73.9168C103.986 71.9937 104.352 70.311 105.085 68.8686C105.817 67.4149 106.859 66.2873 108.21 65.486C109.572 64.6847 111.146 64.2841 112.932 64.2841C114.729 64.2841 116.303 64.6847 117.654 65.486C119.005 66.2873 120.041 67.4149 120.762 68.8686C121.483 70.311 121.844 71.9937 121.844 73.9168C121.844 75.8171 121.483 77.4941 120.762 78.9479C120.041 80.4017 119.005 81.5292 117.654 82.3305C116.303 83.1318 114.729 83.5325 112.932 83.5325ZM112.966 80.0468C113.928 80.0468 114.741 79.7778 115.404 79.2398C116.08 78.6903 116.584 77.952 116.915 77.0247C117.247 76.0975 117.413 75.0558 117.413 73.8997C117.413 72.7321 117.247 71.6846 116.915 70.7574C116.584 69.8302 116.08 69.0976 115.404 68.5596C114.741 68.0101 113.928 67.7354 112.966 67.7354C111.982 67.7354 111.146 68.0101 110.459 68.5596C109.772 69.0976 109.257 69.8302 108.914 70.7574C108.571 71.6846 108.399 72.7321 108.399 73.8997C108.399 75.0673 108.571 76.1147 108.914 77.0419C109.257 77.9577 109.772 78.6903 110.459 79.2398C111.146 79.7778 111.982 80.0468 112.966 80.0468ZM137.16 64.5244H141.504V83.1719H137.297V79.8751H137.091C136.633 80.9511 135.924 81.8097 134.962 82.4507C134.012 83.0917 132.85 83.4123 131.476 83.4123C130.251 83.4123 129.17 83.1375 128.231 82.5881C127.304 82.0272 126.577 81.2201 126.05 80.167C125.535 79.1139 125.278 77.8547 125.278 76.3894V64.5244H129.639V75.7198C129.639 76.4982 129.782 77.1793 130.068 77.7631C130.366 78.3469 130.784 78.7991 131.322 79.1196C131.86 79.4287 132.472 79.5832 133.159 79.5832C133.846 79.5832 134.493 79.4229 135.099 79.1024C135.717 78.7704 136.215 78.2839 136.593 77.6429C136.971 76.9904 137.16 76.2177 137.16 75.3248V64.5244ZM156.288 69.8302C156.151 69.0976 155.796 68.5309 155.223 68.1303C154.651 67.7296 153.907 67.5293 152.991 67.5293C152.373 67.5293 151.818 67.6209 151.326 67.8041C150.833 67.9872 150.444 68.2505 150.158 68.5939C149.883 68.9373 149.746 69.3208 149.746 69.7443C149.735 70.2366 149.946 70.6601 150.381 71.015C150.816 71.3698 151.492 71.6503 152.407 71.8564L155.584 72.5432C157.347 72.9095 158.658 73.5105 159.516 74.3461C160.386 75.1818 160.821 76.2635 160.821 77.5914C160.821 78.7475 160.495 79.7778 159.842 80.6821C159.19 81.575 158.268 82.2733 157.078 82.7769C155.887 83.2806 154.485 83.5325 152.871 83.5325C151.303 83.5325 149.946 83.3092 148.802 82.8628C147.657 82.4164 146.753 81.7696 146.089 80.9225C145.425 80.064 145.013 79.0452 144.852 77.8661H149.3C149.46 78.6445 149.838 79.234 150.433 79.6347C151.028 80.0239 151.835 80.2185 152.854 80.2185C153.552 80.2185 154.165 80.1327 154.691 79.9609C155.218 79.7778 155.624 79.5202 155.91 79.1883C156.196 78.8448 156.34 78.4442 156.34 77.9863C156.34 77.4368 156.122 76.9847 155.687 76.6298C155.252 76.275 154.571 76.0002 153.644 75.8056L150.639 75.1875C148.91 74.8212 147.6 74.1973 146.707 73.3159C145.825 72.423 145.385 71.3183 145.385 70.0019C145.385 68.8572 145.694 67.8556 146.312 66.997C146.941 66.127 147.823 65.4574 148.956 64.9881C150.101 64.5187 151.429 64.2841 152.94 64.2841C154.394 64.2841 155.664 64.513 156.752 64.9709C157.851 65.4173 158.715 66.0584 159.344 66.894C159.974 67.7296 160.335 68.7084 160.426 69.8302H156.288ZM172.429 83.5325C170.586 83.5325 168.983 83.1433 167.621 82.3648C166.259 81.5864 165.205 80.4761 164.461 79.0337C163.729 77.5914 163.362 75.9029 163.362 73.9684C163.362 72.0567 163.729 70.3682 164.461 68.903C165.205 67.4263 166.241 66.2873 167.569 65.486C168.897 64.6847 170.442 64.2841 172.205 64.2841C173.796 64.2841 175.233 64.6217 176.515 65.2971C177.797 65.9725 178.816 67.0199 179.572 68.4394C180.327 69.8474 180.705 71.5931 180.705 73.6765V75.0501H165.44V72.0796H176.515C176.515 71.2325 176.338 70.477 175.983 69.813C175.628 69.1491 175.124 68.6283 174.472 68.2505C173.831 67.8727 173.092 67.6839 172.257 67.6839C171.364 67.6839 170.574 67.8956 169.887 68.3192C169.2 68.7427 168.662 69.3151 168.273 70.0363C167.895 70.746 167.701 71.5244 167.689 72.3715V74.9127C167.689 76.0002 167.884 76.9389 168.273 77.7287C168.674 78.5072 169.235 79.1024 169.956 79.5145C170.677 79.9266 171.518 80.1327 172.48 80.1327C173.098 80.1327 173.653 80.0468 174.146 79.8751C174.649 79.7034 175.079 79.4802 175.433 79.2054C175.788 78.9193 176.057 78.5816 176.24 78.1924H180.533C180.27 79.2569 179.772 80.1956 179.039 81.0084C178.318 81.8097 177.391 82.4335 176.258 82.88C175.124 83.315 173.848 83.5325 172.429 83.5325Z" fill="black"/>
<path d="M0 67.2141L22.5491 26.4453H60.612L39.2486 67.2141H0Z" fill="#2551F4"/>
<path d="M7.98438 43.4614L12.9351 33.3594H40.4551L35.3588 43.4614H7.98438Z" fill="#0E298D"/>
<path d="M18.8594 61.1519L24.2588 52.2188H54.273L48.7148 61.1519H18.8594Z" fill="#0E298D"/>
<path d="M5.41016 33.6609L10.4159 22.4766H38.2417L33.0887 33.6609H5.41016Z" fill="#5075FF" fill-opacity="0.6"/>
<path d="M17.6797 54.7341L23.1277 44.8438H53.4124L47.8041 54.7341H17.6797Z" fill="#5075FF" fill-opacity="0.6"/>
</svg>
