<svg width="35" height="35" viewBox="0 0 35 35" fill="none" xmlns="http://www.w3.org/2000/svg">
<path d="M28.0288 22.2708L24.3246 21.8479C23.435 21.7458 22.56 22.0521 21.933 22.6792L19.2496 25.3625C15.1225 23.2625 11.7392 19.8937 9.63921 15.7521L12.3371 13.0542C12.9642 12.4271 13.2705 11.5521 13.1684 10.6625L12.7455 6.9875C12.5705 5.51458 11.3309 4.40625 9.84338 4.40625H7.32046C5.67255 4.40625 4.30171 5.77708 4.40379 7.425C5.17671 19.8792 15.1371 29.825 27.5767 30.5979C29.2246 30.7 30.5955 29.3292 30.5955 27.6812V25.1583C30.61 23.6854 29.5017 22.4458 28.0288 22.2708Z" fill="#6C9BF3"/>
</svg>
