<svg width="213" height="60" viewBox="0 0 213 60" fill="none" xmlns="http://www.w3.org/2000/svg">
<path d="M71.7466 23.9V0.574999H76.4966V23.9H71.7466ZM63.7716 11.8C67.5716 13.1 69.6716 16.725 69.4216 22.5H65.0216C65.3716 19.175 64.1966 16.85 62.6716 15.825C61.0966 19.2 57.9716 21.925 53.7466 22.975V18.575C57.4966 16.975 59.2716 14.325 59.2716 9.025V5.4H54.0216V1.375H69.0716V5.4H63.8216V10.65C63.8216 11.05 63.7966 11.425 63.7716 11.8ZM99.9966 9.3H101.997V13.025H78.9966V9.3H95.3466C95.7966 8.35 96.0716 7.075 96.0716 5.675V4.45H80.0466V0.774999H100.772V4.825C100.772 6.9 100.497 8.25 99.9966 9.3ZM101.172 23.9H79.7966V14.525H101.172V23.9ZM96.1966 17.625H84.7966V20.8H96.1966V17.625ZM132.878 0.574999V4.8H135.128V8.9H132.878V13.4H128.128V0.574999H132.878ZM116.178 9.15H126.078V12.775H111.578V1.175H125.053V4.85H116.178V9.15ZM117.778 14.175H127.828C131.378 14.175 133.278 16.2 133.278 19.075C133.278 21.95 131.378 23.975 127.828 23.975H117.778C114.178 23.975 112.328 21.875 112.328 19.075C112.328 16.275 114.178 14.175 117.778 14.175ZM118.953 20.75H126.653C127.853 20.75 128.453 20.075 128.453 19.075C128.453 18.075 127.853 17.375 126.653 17.375H118.953C117.753 17.375 117.153 18.075 117.153 19.075C117.153 20.075 117.753 20.75 118.953 20.75ZM157.878 0.574999V4.8H160.128V8.9H157.878V13.65H153.128V0.574999H157.878ZM143.928 10.125C142.203 12.125 139.478 13.45 136.353 13.65V10C139.503 9.425 141.378 7.5 141.378 4.925H136.653V1.225H150.728V4.925H145.853C145.853 5.65 145.753 6.325 145.578 6.975C149.003 7.275 151.378 9.625 151.403 13.4H147.003C146.928 11.675 145.603 10.2 143.928 10.125ZM142.653 14.425H152.953C156.428 14.425 158.278 16.4 158.278 19.2C158.278 22 156.428 23.975 152.953 23.975H142.653C139.128 23.975 137.328 21.925 137.328 19.2C137.328 16.45 139.128 14.425 142.653 14.425ZM143.853 20.775H151.753C152.903 20.775 153.453 20.15 153.453 19.2C153.453 18.25 152.903 17.6 151.753 17.6H143.853C142.728 17.6 142.153 18.25 142.153 19.2C142.153 20.15 142.728 20.775 143.853 20.775ZM72.2432 44.3H74.6182V48.4H72.2432V58.9H67.4932V35.575H72.2432V44.3ZM60.9932 42.175V40.225H50.9682V36.2H65.5182V41.95C65.5182 45.65 65.2182 48.45 64.5182 51.45H59.9932C60.7432 47.75 60.9932 45.25 60.9932 42.175ZM58.0432 44.425V54.1H61.1182C63.5932 54.1 64.9432 54 66.2682 53.8V57.65C64.9432 57.85 63.5932 57.95 61.1182 57.95H50.4932V54.1H53.6932V44.425H58.0432ZM83.325 43.9V42.35C83.325 41.75 83.45 41.2 83.7 40.7H82.225V37.45H87.525V35.425H92.35V37.45H97.6V40.7H96.1C96.35 41.2 96.475 41.75 96.475 42.35V43.9C96.475 47.125 93.825 49.05 89.9 49.05C85.975 49.05 83.325 47.125 83.325 43.9ZM104.375 35.575V39.8H106.625V43.9H104.375V49.15H99.625V35.575H104.375ZM92.15 43.675V42.3C92.15 41.1 91.25 40.425 89.9 40.425C88.55 40.425 87.65 41.1 87.65 42.3V43.675C87.65 44.85 88.35 45.625 89.9 45.625C91.25 45.625 92.15 44.85 92.15 43.675ZM104.525 58.9H83.975V50.025H104.525V58.9ZM99.85 53.175H88.65V55.725H99.85V53.175ZM119.7 44.7H121.125V35.575H125.125V58.9H121.125V48.725H119.7C119.675 53.625 117.675 57.6 113.4 59.1V54.725C115.05 53.6 115.9 51.55 115.9 48.65V40H113.825V47.375C113.825 52.15 111.375 56.075 107.3 57.25V53.1C109 52.2 110.125 50.125 110.125 47.35V40.075H107.675V36.375H119.7V44.7ZM126.375 58.9V35.575H130.5V58.9H126.375ZM160.332 48.175H162.507V52.025H153.432V59.025H148.582V52.025H139.507V48.175H155.582C156.207 46.275 156.532 44.3 156.532 42.075V40.1H140.332V36.05H161.207V42.075C161.207 44.5 160.907 46.4 160.332 48.175ZM183.257 44.625V35.575H187.382V58.9H183.257V48.525H181.757V58.9H177.632V35.575H181.757V44.625H183.257ZM168.157 35.675H172.607V38.125H176.657V41.8H175.332C175.657 42.525 175.832 43.375 175.832 44.35V52.35C175.832 56.525 173.907 58.55 170.457 58.55C167.007 58.55 165.057 56.525 165.057 52.35V44.35C165.057 43.375 165.232 42.525 165.557 41.8H164.232V38.125H168.157V35.675ZM171.732 53.2V43.225C171.732 42.075 171.257 41.6 170.457 41.6C169.632 41.6 169.157 42.075 169.157 43.225V53.2C169.157 54.325 169.632 54.825 170.457 54.825C171.257 54.825 171.732 54.325 171.732 53.2ZM205.407 49.175H196.582C192.507 49.175 190.057 46.25 190.057 42.9V42.325C190.057 38.975 192.507 36.05 196.582 36.05H205.407C209.482 36.05 211.957 38.975 211.957 42.325V42.9C211.957 46.25 209.482 49.175 205.407 49.175ZM194.982 42.525V42.725C194.982 44.25 196.032 45.325 197.832 45.325H204.157C205.957 45.325 207.032 44.25 207.032 42.725V42.525C207.032 41 205.957 39.9 204.157 39.9H197.832C196.032 39.9 194.982 41 194.982 42.525ZM208.057 50.425V54.55H212.507V58.275H189.507V54.55H193.957V50.425H198.557V54.55H203.457V50.425H208.057Z" fill="black"/>
<path d="M10.1432 42.575H13.7432V35.575H17.7432V58.9H13.7432V46.6H10.1432V42.575ZM19.2432 58.9V35.575H23.3682V58.9H19.2432ZM8.06816 46.525C11.3432 48.4 12.7682 52.225 12.4932 57.475H8.21816C8.39316 55.075 8.29316 52.7 7.14316 51.15C5.94316 54.625 3.76816 56.85 0.293164 58.175V53.25C2.74316 51.45 3.94316 48.775 3.94316 43.05V36.425H8.24316V42.775C8.24316 44.125 8.19316 45.375 8.06816 46.525ZM43.2432 35.575H47.9932V48.15H43.2432V35.575ZM33.4682 44.9C31.7432 46.9 29.0182 48.175 25.8432 48.375V44.75C28.9932 44.2 30.8432 42.35 30.9182 39.9H26.1432V36.225H40.3682V39.9H35.3932C35.3932 40.55 35.2932 41.175 35.1432 41.75C38.5932 42.05 40.9932 44.375 41.0182 48.15H36.5932C36.5182 46.45 35.1682 44.95 33.4682 44.9ZM43.2682 51.025V49.2H48.0182V58.9H26.9932V49.2H31.7432V51.025H43.2682ZM31.7432 54V55.775H43.2682V54H31.7432Z" fill="#2551F4"/>
</svg>
