<svg width="86" height="108" viewBox="0 0 86 108" fill="none" xmlns="http://www.w3.org/2000/svg">
<path d="M66.2913 33.75V47.205C66.2913 47.205 59.1605 47.25 59.1247 47.205V33.75H48.3747C48.3747 33.75 48.4105 24.795 48.3747 24.75H59.1247V11.25H66.2913V24.75H77.0413V33.75H66.2913ZM55.5413 51.75V38.25H44.7913V24.75H16.1247C12.183 24.75 8.95801 28.8 8.95801 33.75V87.75C8.95801 92.7 12.183 96.75 16.1247 96.75H59.1247C63.0663 96.75 66.2913 92.7 66.2913 87.75V51.75H55.5413ZM16.1247 87.75L26.8747 69.75L34.0413 83.25L44.7913 65.25L59.1247 87.75H16.1247Z" fill="#A7B3CD" fill-opacity="0.5"/>
</svg>
