<svg width="342" height="250" viewBox="0 0 342 250" fill="none" xmlns="http://www.w3.org/2000/svg">
<rect x="0.5" y="0.5" width="341" height="249" rx="5.5" stroke="#696E83" stroke-dasharray="10 10"/>
<path d="M40.4453 193.297H39.2109V179.375H40.4453V193.297ZM33.0547 180.453C33.7422 180.453 34.3542 180.654 34.8906 181.055C35.4271 181.456 35.8464 182.021 36.1484 182.75C36.4505 183.479 36.6016 184.328 36.6016 185.297C36.6016 186.266 36.4505 187.115 36.1484 187.844C35.8464 188.573 35.4271 189.135 34.8906 189.531C34.3542 189.927 33.7422 190.125 33.0547 190.125C32.3672 190.125 31.7552 189.927 31.2188 189.531C30.6823 189.135 30.263 188.573 29.9609 187.844C29.6589 187.115 29.5078 186.266 29.5078 185.297C29.5078 184.328 29.6589 183.479 29.9609 182.75C30.263 182.021 30.6823 181.456 31.2188 181.055C31.7552 180.654 32.3672 180.453 33.0547 180.453ZM33.0547 181.547C32.5964 181.547 32.1875 181.703 31.8281 182.016C31.4688 182.328 31.1901 182.766 30.9922 183.328C30.7943 183.891 30.6953 184.547 30.6953 185.297C30.6953 186.036 30.7943 186.69 30.9922 187.258C31.1901 187.826 31.4688 188.263 31.8281 188.57C32.1875 188.878 32.5964 189.031 33.0547 189.031C33.513 189.031 33.9219 188.878 34.2812 188.57C34.6406 188.263 34.9193 187.826 35.1172 187.258C35.3151 186.69 35.4141 186.036 35.4141 185.297C35.4141 184.547 35.3151 183.891 35.1172 183.328C34.9193 182.766 34.6432 182.328 34.2891 182.016C33.9349 181.703 33.5234 181.547 33.0547 181.547ZM50.0547 189.781H43.6328V180.75H50.0547V189.781ZM44.8359 188.781H48.8516V181.734H44.8359V188.781ZM54.2734 193.297H53.0391V179.375H54.2734V193.297ZM61.3984 183.641C61.3984 184.589 61.2161 185.529 60.8516 186.461C60.487 187.393 60 188.224 59.3906 188.953C58.7812 189.682 58.112 190.229 57.3828 190.594L56.6484 189.625C57.3047 189.302 57.9193 188.82 58.4922 188.18C59.0651 187.539 59.5234 186.818 59.8672 186.016C60.2109 185.214 60.3828 184.422 60.3828 183.641V181.344H61.3984V183.641ZM61.6172 183.641C61.6172 184.401 61.7865 185.161 62.125 185.922C62.4635 186.682 62.9219 187.357 63.5 187.945C64.0781 188.534 64.7057 188.979 65.3828 189.281L64.6953 190.25C63.9453 189.906 63.2604 189.396 62.6406 188.719C62.0208 188.042 61.5312 187.26 61.1719 186.375C60.8125 185.49 60.6328 184.578 60.6328 183.641V181.344H61.6172V183.641ZM64.9297 181.828H57.1016V180.812H64.9297V181.828ZM68.1016 193.266H66.8672V179.375H68.1016V193.266ZM83.1797 186.797H70.4609V185.828H83.1797V186.797ZM81.5859 190.859H73.2422V192.516H72.0078V190.016H80.3672V188.828H71.9922V187.906H81.5859V190.859ZM82.0391 193.078H72.0078V192.188H82.0391V193.078ZM81.5391 182.672H73.3359V184.203H72.1172V181.828H80.3047V180.688H72.0703V179.797H81.5391V182.672ZM81.7891 184.781H72.1172V183.891H81.7891V184.781ZM94.1953 183.516V192.609C94.1953 193.141 94.1042 193.599 93.9219 193.984C93.7396 194.37 93.4635 194.667 93.0938 194.875C92.724 195.083 92.2682 195.188 91.7266 195.188C91.6328 195.188 91.5391 195.188 91.4453 195.188V193.938C91.5391 193.938 91.6276 193.938 91.7109 193.938C91.9714 193.938 92.1849 193.885 92.3516 193.781C92.5182 193.677 92.6432 193.526 92.7266 193.328C92.8099 193.13 92.8516 192.891 92.8516 192.609V183.516H94.1953ZM93.5078 182.109C93.3411 182.109 93.1849 182.07 93.0391 181.992C92.8932 181.914 92.7786 181.805 92.6953 181.664C92.612 181.523 92.5703 181.375 92.5703 181.219C92.5703 181.052 92.612 180.901 92.6953 180.766C92.7786 180.63 92.8932 180.523 93.0391 180.445C93.1849 180.367 93.3411 180.328 93.5078 180.328C93.6849 180.328 93.8464 180.367 93.9922 180.445C94.138 180.523 94.2526 180.63 94.3359 180.766C94.4193 180.901 94.4609 181.052 94.4609 181.219C94.4609 181.375 94.4193 181.523 94.3359 181.664C94.2526 181.805 94.138 181.914 93.9922 181.992C93.8464 182.07 93.6849 182.109 93.5078 182.109ZM96.3359 183.516H97.6328V184.859H97.7891L97.8359 184.797C97.9818 184.557 98.1406 184.341 98.3125 184.148C98.4844 183.956 98.7292 183.784 99.0469 183.633C99.3646 183.482 99.763 183.406 100.242 183.406C100.951 183.406 101.578 183.583 102.125 183.938C102.672 184.292 103.096 184.799 103.398 185.461C103.701 186.122 103.852 186.896 103.852 187.781C103.852 188.656 103.701 189.427 103.398 190.094C103.096 190.76 102.672 191.273 102.125 191.633C101.578 191.992 100.956 192.172 100.258 192.172C99.7786 192.172 99.375 192.091 99.0469 191.93C98.7188 191.768 98.4688 191.591 98.2969 191.398C98.125 191.206 97.9609 190.984 97.8047 190.734L97.7891 190.703H97.6797V195.188H96.3359V183.516ZM97.6484 187.75C97.6484 188.385 97.7422 188.945 97.9297 189.43C98.1172 189.914 98.3932 190.292 98.7578 190.562C99.1224 190.833 99.5599 190.969 100.07 190.969C100.591 190.969 101.036 190.828 101.406 190.547C101.776 190.266 102.052 189.883 102.234 189.398C102.417 188.914 102.508 188.365 102.508 187.75C102.508 187.146 102.417 186.607 102.234 186.133C102.052 185.659 101.779 185.286 101.414 185.016C101.049 184.745 100.602 184.609 100.07 184.609C99.5495 184.609 99.1094 184.74 98.75 185C98.3906 185.26 98.1172 185.625 97.9297 186.094C97.7422 186.562 97.6484 187.115 97.6484 187.75ZM109.039 195.359C108.362 195.359 107.76 195.263 107.234 195.07C106.708 194.878 106.292 194.596 105.984 194.227C105.677 193.857 105.497 193.411 105.445 192.891H106.852C106.945 193.318 107.182 193.641 107.562 193.859C107.943 194.078 108.435 194.188 109.039 194.188C109.789 194.188 110.367 194.021 110.773 193.688C111.18 193.354 111.383 192.844 111.383 192.156V190.438H111.273L111.258 190.469C111.112 190.708 110.956 190.924 110.789 191.117C110.622 191.31 110.372 191.484 110.039 191.641C109.706 191.797 109.294 191.875 108.805 191.875C108.117 191.875 107.5 191.706 106.953 191.367C106.406 191.029 105.977 190.539 105.664 189.898C105.352 189.258 105.195 188.505 105.195 187.641C105.195 186.786 105.349 186.039 105.656 185.398C105.964 184.758 106.391 184.266 106.938 183.922C107.484 183.578 108.112 183.406 108.82 183.406C109.289 183.406 109.68 183.477 109.992 183.617C110.305 183.758 110.547 183.919 110.719 184.102C110.891 184.284 111.06 184.5 111.227 184.75L111.305 184.859H111.414V183.516H112.727V192.234C112.727 192.932 112.568 193.516 112.25 193.984C111.932 194.453 111.497 194.799 110.945 195.023C110.393 195.247 109.758 195.359 109.039 195.359ZM108.992 190.672C109.503 190.672 109.94 190.552 110.305 190.312C110.669 190.073 110.945 189.732 111.133 189.289C111.32 188.846 111.414 188.312 111.414 187.688C111.414 187.073 111.32 186.534 111.133 186.07C110.945 185.607 110.672 185.247 110.312 184.992C109.953 184.737 109.513 184.609 108.992 184.609C108.471 184.609 108.029 184.745 107.664 185.016C107.299 185.286 107.023 185.654 106.836 186.117C106.648 186.581 106.555 187.104 106.555 187.688C106.555 188.281 106.648 188.802 106.836 189.25C107.023 189.698 107.299 190.047 107.664 190.297C108.029 190.547 108.471 190.672 108.992 190.672ZM115.242 193.703H114.023L117.664 180.156H118.898L115.242 193.703ZM120.211 183.516H121.508V184.859H121.664L121.711 184.797C121.857 184.557 122.016 184.341 122.188 184.148C122.359 183.956 122.604 183.784 122.922 183.633C123.24 183.482 123.638 183.406 124.117 183.406C124.826 183.406 125.453 183.583 126 183.938C126.547 184.292 126.971 184.799 127.273 185.461C127.576 186.122 127.727 186.896 127.727 187.781C127.727 188.656 127.576 189.427 127.273 190.094C126.971 190.76 126.547 191.273 126 191.633C125.453 191.992 124.831 192.172 124.133 192.172C123.654 192.172 123.25 192.091 122.922 191.93C122.594 191.768 122.344 191.591 122.172 191.398C122 191.206 121.836 190.984 121.68 190.734L121.664 190.703H121.555V195.188H120.211V183.516ZM121.523 187.75C121.523 188.385 121.617 188.945 121.805 189.43C121.992 189.914 122.268 190.292 122.633 190.562C122.997 190.833 123.435 190.969 123.945 190.969C124.466 190.969 124.911 190.828 125.281 190.547C125.651 190.266 125.927 189.883 126.109 189.398C126.292 188.914 126.383 188.365 126.383 187.75C126.383 187.146 126.292 186.607 126.109 186.133C125.927 185.659 125.654 185.286 125.289 185.016C124.924 184.745 124.477 184.609 123.945 184.609C123.424 184.609 122.984 184.74 122.625 185C122.266 185.26 121.992 185.625 121.805 186.094C121.617 186.562 121.523 187.115 121.523 187.75ZM130.82 192H129.477V183.516H130.773V184.844H130.883C131.102 184.385 131.414 184.031 131.82 183.781C132.227 183.531 132.742 183.406 133.367 183.406C133.951 183.406 134.456 183.523 134.883 183.758C135.31 183.992 135.641 184.349 135.875 184.828C136.109 185.307 136.227 185.901 136.227 186.609V192H134.883V186.703C134.883 186.266 134.807 185.891 134.656 185.578C134.505 185.266 134.286 185.026 134 184.859C133.714 184.693 133.367 184.609 132.961 184.609C132.544 184.609 132.174 184.698 131.852 184.875C131.529 185.052 131.276 185.315 131.094 185.664C130.911 186.013 130.82 186.427 130.82 186.906V192ZM141.82 195.359C141.143 195.359 140.542 195.263 140.016 195.07C139.49 194.878 139.073 194.596 138.766 194.227C138.458 193.857 138.279 193.411 138.227 192.891H139.633C139.727 193.318 139.964 193.641 140.344 193.859C140.724 194.078 141.216 194.188 141.82 194.188C142.57 194.188 143.148 194.021 143.555 193.688C143.961 193.354 144.164 192.844 144.164 192.156V190.438H144.055L144.039 190.469C143.893 190.708 143.737 190.924 143.57 191.117C143.404 191.31 143.154 191.484 142.82 191.641C142.487 191.797 142.076 191.875 141.586 191.875C140.898 191.875 140.281 191.706 139.734 191.367C139.188 191.029 138.758 190.539 138.445 189.898C138.133 189.258 137.977 188.505 137.977 187.641C137.977 186.786 138.13 186.039 138.438 185.398C138.745 184.758 139.172 184.266 139.719 183.922C140.266 183.578 140.893 183.406 141.602 183.406C142.07 183.406 142.461 183.477 142.773 183.617C143.086 183.758 143.328 183.919 143.5 184.102C143.672 184.284 143.841 184.5 144.008 184.75L144.086 184.859H144.195V183.516H145.508V192.234C145.508 192.932 145.349 193.516 145.031 193.984C144.714 194.453 144.279 194.799 143.727 195.023C143.174 195.247 142.539 195.359 141.82 195.359ZM141.773 190.672C142.284 190.672 142.721 190.552 143.086 190.312C143.451 190.073 143.727 189.732 143.914 189.289C144.102 188.846 144.195 188.312 144.195 187.688C144.195 187.073 144.102 186.534 143.914 186.07C143.727 185.607 143.453 185.247 143.094 184.992C142.734 184.737 142.294 184.609 141.773 184.609C141.253 184.609 140.81 184.745 140.445 185.016C140.081 185.286 139.805 185.654 139.617 186.117C139.43 186.581 139.336 187.104 139.336 187.688C139.336 188.281 139.43 188.802 139.617 189.25C139.805 189.698 140.081 190.047 140.445 190.297C140.81 190.547 141.253 190.672 141.773 190.672ZM148.023 193.703H146.805L150.445 180.156H151.68L148.023 193.703ZM152.992 183.516H154.289V184.859H154.445L154.492 184.797C154.638 184.557 154.797 184.341 154.969 184.148C155.141 183.956 155.385 183.784 155.703 183.633C156.021 183.482 156.419 183.406 156.898 183.406C157.607 183.406 158.234 183.583 158.781 183.938C159.328 184.292 159.753 184.799 160.055 185.461C160.357 186.122 160.508 186.896 160.508 187.781C160.508 188.656 160.357 189.427 160.055 190.094C159.753 190.76 159.328 191.273 158.781 191.633C158.234 191.992 157.612 192.172 156.914 192.172C156.435 192.172 156.031 192.091 155.703 191.93C155.375 191.768 155.125 191.591 154.953 191.398C154.781 191.206 154.617 190.984 154.461 190.734L154.445 190.703H154.336V195.188H152.992V183.516ZM154.305 187.75C154.305 188.385 154.398 188.945 154.586 189.43C154.773 189.914 155.049 190.292 155.414 190.562C155.779 190.833 156.216 190.969 156.727 190.969C157.247 190.969 157.693 190.828 158.062 190.547C158.432 190.266 158.708 189.883 158.891 189.398C159.073 188.914 159.164 188.365 159.164 187.75C159.164 187.146 159.073 186.607 158.891 186.133C158.708 185.659 158.435 185.286 158.07 185.016C157.706 184.745 157.258 184.609 156.727 184.609C156.206 184.609 155.766 184.74 155.406 185C155.047 185.26 154.773 185.625 154.586 186.094C154.398 186.562 154.305 187.115 154.305 187.75ZM165.461 192.172C164.763 192.172 164.141 191.992 163.594 191.633C163.047 191.273 162.62 190.76 162.312 190.094C162.005 189.427 161.852 188.656 161.852 187.781C161.852 186.896 162.005 186.122 162.312 185.461C162.62 184.799 163.047 184.292 163.594 183.938C164.141 183.583 164.768 183.406 165.477 183.406C165.956 183.406 166.357 183.482 166.68 183.633C167.003 183.784 167.25 183.956 167.422 184.148C167.594 184.341 167.747 184.557 167.883 184.797L167.93 184.859H168.023V180.688H169.383V192H168.07V190.703H167.93L167.883 190.766C167.737 191.005 167.578 191.224 167.406 191.422C167.234 191.62 166.987 191.794 166.664 191.945C166.341 192.096 165.94 192.172 165.461 192.172ZM165.648 190.969C166.159 190.969 166.596 190.833 166.961 190.562C167.326 190.292 167.602 189.914 167.789 189.43C167.977 188.945 168.07 188.385 168.07 187.75C168.07 187.115 167.979 186.562 167.797 186.094C167.615 185.625 167.341 185.26 166.977 185C166.612 184.74 166.169 184.609 165.648 184.609C165.128 184.609 164.685 184.745 164.32 185.016C163.956 185.286 163.68 185.659 163.492 186.133C163.305 186.607 163.211 187.146 163.211 187.75C163.211 188.365 163.305 188.914 163.492 189.398C163.68 189.883 163.956 190.266 164.32 190.547C164.685 190.828 165.128 190.969 165.648 190.969ZM175.508 184.641H170.914V183.516H175.508V184.641ZM172.273 182.359C172.273 181.901 172.372 181.508 172.57 181.18C172.768 180.852 173.049 180.599 173.414 180.422C173.779 180.245 174.206 180.156 174.695 180.156C174.852 180.156 175.018 180.164 175.195 180.18C175.372 180.195 175.539 180.219 175.695 180.25V181.453C175.445 181.411 175.211 181.391 174.992 181.391C174.523 181.391 174.18 181.492 173.961 181.695C173.742 181.898 173.633 182.219 173.633 182.656V192H172.273V182.359ZM191.352 183.734H188.477V182.719H191.352V183.734ZM191.336 186.438H188.461V185.422H191.336V186.438ZM188.477 181.938H180.617V180.938H188.477V181.938ZM184.586 182.656C185.201 182.656 185.75 182.763 186.234 182.977C186.719 183.19 187.094 183.49 187.359 183.875C187.625 184.26 187.758 184.708 187.758 185.219C187.758 185.729 187.625 186.18 187.359 186.57C187.094 186.961 186.719 187.263 186.234 187.477C185.75 187.69 185.201 187.797 184.586 187.797C183.971 187.797 183.424 187.69 182.945 187.477C182.466 187.263 182.096 186.961 181.836 186.57C181.576 186.18 181.445 185.729 181.445 185.219C181.445 184.708 181.576 184.258 181.836 183.867C182.096 183.477 182.466 183.177 182.945 182.969C183.424 182.76 183.971 182.656 184.586 182.656ZM184.586 183.578C184.19 183.578 183.841 183.648 183.539 183.789C183.237 183.93 183.003 184.122 182.836 184.367C182.669 184.612 182.586 184.896 182.586 185.219C182.586 185.542 182.669 185.826 182.836 186.07C183.003 186.315 183.237 186.505 183.539 186.641C183.841 186.776 184.19 186.844 184.586 186.844C184.982 186.844 185.333 186.776 185.641 186.641C185.948 186.505 186.188 186.315 186.359 186.07C186.531 185.826 186.617 185.542 186.617 185.219C186.617 184.896 186.531 184.612 186.359 184.367C186.188 184.122 185.948 183.93 185.641 183.789C185.333 183.648 184.982 183.578 184.586 183.578ZM185.211 181.625H183.992V179.266H185.211V181.625ZM192.117 188.359H190.883V179.375H192.117V188.359ZM187.539 188.5C188.508 188.5 189.341 188.591 190.039 188.773C190.737 188.956 191.271 189.227 191.641 189.586C192.01 189.945 192.195 190.375 192.195 190.875C192.195 191.365 192.01 191.786 191.641 192.141C191.271 192.495 190.734 192.766 190.031 192.953C189.328 193.141 188.497 193.234 187.539 193.234C186.57 193.234 185.737 193.141 185.039 192.953C184.341 192.766 183.805 192.495 183.43 192.141C183.055 191.786 182.867 191.365 182.867 190.875C182.867 190.375 183.055 189.945 183.43 189.586C183.805 189.227 184.341 188.956 185.039 188.773C185.737 188.591 186.57 188.5 187.539 188.5ZM187.539 189.453C186.841 189.453 186.237 189.508 185.727 189.617C185.216 189.727 184.823 189.888 184.547 190.102C184.271 190.315 184.133 190.573 184.133 190.875C184.133 191.167 184.271 191.417 184.547 191.625C184.823 191.833 185.216 191.995 185.727 192.109C186.237 192.224 186.841 192.281 187.539 192.281C188.227 192.281 188.823 192.224 189.328 192.109C189.833 191.995 190.221 191.833 190.492 191.625C190.763 191.417 190.898 191.167 190.898 190.875C190.898 190.573 190.763 190.315 190.492 190.102C190.221 189.888 189.836 189.727 189.336 189.617C188.836 189.508 188.237 189.453 187.539 189.453ZM199.133 181.391C199.133 182.255 198.966 183.073 198.633 183.844C198.299 184.615 197.839 185.284 197.25 185.852C196.661 186.419 195.982 186.854 195.211 187.156L194.57 186.188C195.258 185.927 195.87 185.555 196.406 185.07C196.943 184.586 197.359 184.023 197.656 183.383C197.953 182.742 198.102 182.078 198.102 181.391V180.062H199.133V181.391ZM199.352 181.391C199.352 182.057 199.5 182.693 199.797 183.297C200.094 183.901 200.508 184.432 201.039 184.891C201.57 185.349 202.18 185.698 202.867 185.938L202.242 186.906C201.471 186.625 200.789 186.214 200.195 185.672C199.602 185.13 199.141 184.492 198.812 183.758C198.484 183.023 198.32 182.234 198.32 181.391V180.062H199.352V181.391ZM205.898 193.266H204.68V189.453H196.555V188.438H205.898V193.266ZM205.898 187.75H204.68V179.375H205.898V187.75ZM214.586 180.281C215.555 180.281 216.424 180.44 217.195 180.758C217.966 181.076 218.57 181.523 219.008 182.102C219.445 182.68 219.664 183.344 219.664 184.094C219.664 184.844 219.445 185.51 219.008 186.094C218.57 186.677 217.966 187.125 217.195 187.438C216.424 187.75 215.555 187.906 214.586 187.906C213.628 187.906 212.763 187.75 211.992 187.438C211.221 187.125 210.615 186.677 210.172 186.094C209.729 185.51 209.508 184.844 209.508 184.094C209.508 183.344 209.729 182.68 210.172 182.102C210.615 181.523 211.221 181.076 211.992 180.758C212.763 180.44 213.628 180.281 214.586 180.281ZM214.586 181.281C213.846 181.271 213.18 181.385 212.586 181.625C211.992 181.865 211.526 182.201 211.188 182.633C210.849 183.065 210.68 183.552 210.68 184.094C210.68 184.646 210.849 185.135 211.188 185.562C211.526 185.99 211.992 186.32 212.586 186.555C213.18 186.789 213.846 186.906 214.586 186.906C215.326 186.906 215.99 186.789 216.578 186.555C217.167 186.32 217.63 185.99 217.969 185.562C218.307 185.135 218.477 184.646 218.477 184.094C218.477 183.552 218.307 183.065 217.969 182.633C217.63 182.201 217.167 181.865 216.578 181.625C215.99 181.385 215.326 181.271 214.586 181.281ZM220.977 191.422H208.258V190.391H220.977V191.422ZM234.805 191.547H222.086V190.516H234.805V191.547ZM229.008 190.969H227.805V187.531H229.008V190.969ZM233.195 184.609H224.898V187.422H223.68V183.609H231.992V181.422H223.648V180.406H233.195V184.609ZM233.523 187.891H223.68V186.875H233.523V187.891ZM246.836 185.859H245.633V183.984H246.836V185.859ZM246.258 179.547C247.289 179.547 248.172 179.641 248.906 179.828C249.641 180.016 250.201 180.289 250.586 180.648C250.971 181.008 251.164 181.443 251.164 181.953C251.164 182.464 250.971 182.898 250.586 183.258C250.201 183.617 249.641 183.891 248.906 184.078C248.172 184.266 247.289 184.365 246.258 184.375C245.227 184.365 244.344 184.266 243.609 184.078C242.875 183.891 242.312 183.617 241.922 183.258C241.531 182.898 241.336 182.464 241.336 181.953C241.336 181.443 241.531 181.008 241.922 180.648C242.312 180.289 242.875 180.016 243.609 179.828C244.344 179.641 245.227 179.547 246.258 179.547ZM246.258 180.484C245.487 180.484 244.831 180.544 244.289 180.664C243.747 180.784 243.333 180.951 243.047 181.164C242.76 181.378 242.617 181.641 242.617 181.953C242.617 182.266 242.758 182.531 243.039 182.75C243.32 182.969 243.734 183.135 244.281 183.25C244.828 183.365 245.487 183.427 246.258 183.438C247.029 183.427 247.688 183.365 248.234 183.25C248.781 183.135 249.198 182.969 249.484 182.75C249.771 182.531 249.914 182.266 249.914 181.953C249.914 181.641 249.771 181.378 249.484 181.164C249.198 180.951 248.781 180.784 248.234 180.664C247.688 180.544 247.029 180.484 246.258 180.484ZM252.586 186.422H239.93V185.422H252.586V186.422ZM250.961 190.703H242.711V192.438H241.492V189.797H249.758V188.547H241.461V187.594H250.961V190.703ZM251.383 193.109H241.492V192.141H251.383V193.109ZM265.258 193.297H264.039V179.375H265.258V193.297ZM264.383 183.578H261.258V182.547H264.383V183.578ZM255.32 189C256.487 189 257.539 188.971 258.477 188.914C259.414 188.857 260.398 188.75 261.43 188.594L261.539 189.625C260.487 189.781 259.487 189.891 258.539 189.953C257.591 190.016 256.518 190.047 255.32 190.047H254.289V189H255.32ZM260.352 185.578H255.508V189.266H254.289V184.578H259.148V181.656H254.242V180.641H260.352V185.578ZM264.289 187.375H261.148V186.344H264.289V187.375ZM274.305 181.344C274.305 182.135 274.044 182.865 273.523 183.531C273.003 184.198 272.326 184.753 271.492 185.195C270.659 185.638 269.768 185.943 268.82 186.109L268.336 185.141C269.148 185.016 269.932 184.768 270.688 184.398C271.443 184.029 272.055 183.576 272.523 183.039C272.992 182.503 273.227 181.938 273.227 181.344V180.75H274.305V181.344ZM274.602 181.344C274.602 181.938 274.836 182.503 275.305 183.039C275.773 183.576 276.385 184.029 277.141 184.398C277.896 184.768 278.68 185.016 279.492 185.141L279.039 186.109C278.081 185.943 277.182 185.641 276.344 185.203C275.505 184.766 274.828 184.211 274.312 183.539C273.797 182.867 273.539 182.135 273.539 181.344V180.75H274.602V181.344ZM274.492 193.266H273.289V187.953H274.492V193.266ZM280.242 188.312H267.586V187.297H280.242V188.312ZM279.039 181.25H268.773V180.25H279.039V181.25ZM289.664 185.406H286.93V184.359H289.664V185.406ZM285.32 183.375C285.32 184.323 285.188 185.25 284.922 186.156C284.656 187.062 284.276 187.872 283.781 188.586C283.286 189.299 282.706 189.859 282.039 190.266L281.258 189.344C281.883 188.979 282.43 188.479 282.898 187.844C283.367 187.208 283.727 186.503 283.977 185.727C284.227 184.951 284.352 184.167 284.352 183.375V180.688H285.32V183.375ZM285.539 183.328C285.539 184.068 285.656 184.807 285.891 185.547C286.125 186.286 286.464 186.961 286.906 187.57C287.349 188.18 287.867 188.661 288.461 189.016L287.758 189.969C287.102 189.573 286.536 189.023 286.062 188.32C285.589 187.617 285.227 186.833 284.977 185.969C284.727 185.104 284.602 184.224 284.602 183.328V180.688H285.539V183.328ZM293.32 193.266H292.133V179.375H293.32V193.266ZM290.445 192.562H289.289V179.672H290.445V192.562ZM299.602 190.703H298.398V186.547H299.602V190.703ZM304.805 190.703H303.57V186.547H304.805V190.703ZM307.961 191.484H295.242V190.453H307.961V191.484ZM301.57 180.25C302.56 180.25 303.438 180.398 304.203 180.695C304.969 180.992 305.568 181.411 306 181.953C306.432 182.495 306.648 183.12 306.648 183.828C306.648 184.536 306.432 185.159 306 185.695C305.568 186.232 304.969 186.648 304.203 186.945C303.438 187.242 302.56 187.391 301.57 187.391C300.591 187.391 299.716 187.242 298.945 186.945C298.174 186.648 297.573 186.232 297.141 185.695C296.708 185.159 296.492 184.536 296.492 183.828C296.492 183.12 296.708 182.495 297.141 181.953C297.573 181.411 298.174 180.992 298.945 180.695C299.716 180.398 300.591 180.25 301.57 180.25ZM301.57 181.266C300.82 181.255 300.151 181.357 299.562 181.57C298.974 181.784 298.513 182.086 298.18 182.477C297.846 182.867 297.68 183.318 297.68 183.828C297.68 184.339 297.846 184.789 298.18 185.18C298.513 185.57 298.974 185.875 299.562 186.094C300.151 186.312 300.82 186.422 301.57 186.422C302.32 186.422 302.99 186.312 303.578 186.094C304.167 185.875 304.628 185.57 304.961 185.18C305.294 184.789 305.461 184.339 305.461 183.828C305.461 183.318 305.294 182.867 304.961 182.477C304.628 182.086 304.167 181.784 303.578 181.57C302.99 181.357 302.32 181.255 301.57 181.266ZM310.539 192.094C310.362 192.094 310.195 192.047 310.039 191.953C309.883 191.859 309.76 191.734 309.672 191.578C309.583 191.422 309.539 191.255 309.539 191.078C309.539 190.901 309.583 190.734 309.672 190.578C309.76 190.422 309.883 190.299 310.039 190.211C310.195 190.122 310.362 190.078 310.539 190.078C310.716 190.078 310.883 190.122 311.039 190.211C311.195 190.299 311.318 190.422 311.406 190.578C311.495 190.734 311.539 190.901 311.539 191.078C311.539 191.255 311.495 191.422 311.406 191.578C311.318 191.734 311.195 191.859 311.039 191.953C310.883 192.047 310.716 192.094 310.539 192.094Z" fill="#9C9C9C"/>
<path d="M193.75 93.5599V104.149C193.75 104.149 186.785 104.185 186.75 104.149V93.5599H176.25C176.25 93.5599 176.285 86.512 176.25 86.4766H186.75V75.8516H193.75V86.4766H204.25V93.5599H193.75ZM183.25 107.727V97.1016H172.75V86.4766H144.75C140.9 86.4766 137.75 89.6641 137.75 93.5599V136.06C137.75 139.956 140.9 143.143 144.75 143.143H186.75C190.6 143.143 193.75 139.956 193.75 136.06V107.727H183.25ZM144.75 136.06L155.25 121.893L162.25 132.518L172.75 118.352L186.75 136.06H144.75Z" fill="#A7B3CD" fill-opacity="0.5"/>
</svg>
