<svg width="12" height="9" viewBox="0 0 12 9" fill="none" xmlns="http://www.w3.org/2000/svg">
<path d="M5.62861 0.77566C3.14117 0.792405 1.02715 2.3295 0.180972 4.48483C1.0561 6.62857 3.19062 8.13706 5.67805 8.12031C8.16549 8.10357 10.2795 6.56647 11.1257 4.41115C10.2506 2.2674 8.11604 0.758914 5.62861 0.77566ZM5.66981 6.8962C4.29675 6.90545 3.17499 5.81615 3.16589 4.46473C3.1568 3.11332 4.26378 2.00901 5.63685 1.99977C7.00991 1.99052 8.13166 3.07982 8.14076 4.43124C8.14986 5.78266 7.04287 6.88696 5.66981 6.8962ZM5.64344 2.97906C4.81761 2.98461 4.1554 3.64522 4.16087 4.45803C4.16634 5.27084 4.83739 5.92248 5.66322 5.91692C6.48905 5.91136 7.15126 5.25075 7.14579 4.43794C7.14032 3.62513 6.46927 2.9735 5.64344 2.97906Z" fill="#9AA0B7"/>
</svg>
