<svg width="48" height="46" viewBox="0 0 48 46" fill="none" xmlns="http://www.w3.org/2000/svg">
<path d="M28.2603 29.9729L39.038 8.35664L47.7204 29.8418L28.2603 29.9729Z" fill="#2551F4"/>
<rect x="8.79785" y="29.5776" width="33.2554" height="15.7633" transform="rotate(-0.385714 8.79785 29.5776)" fill="#2551F4"/>
<path d="M0.692042 33.0487L15.8879 3.25817L41.8758 3.08322L27.4895 32.8683L0.692042 33.0487Z" fill="#2551F4"/>
<path d="M6.02413 15.7149L9.35475 8.33613L28.1444 8.20964L24.7143 15.5891L6.02413 15.7149Z" fill="#0E298D"/>
<path d="M13.5409 28.5489L17.1836 22.0191L37.6762 21.8812L33.925 28.4116L13.5409 28.5489Z" fill="#0E298D"/>
<path d="M4.22182 8.59096L7.58469 0.423769L26.5831 0.29587L23.1197 8.46374L4.22182 8.59096Z" fill="#5075FF" fill-opacity="0.6"/>
<path d="M12.7008 23.8811L16.3721 16.6542L37.0493 16.515L33.2686 23.7426L12.7008 23.8811Z" fill="#5075FF" fill-opacity="0.6"/>
</svg>
