<svg width="16" height="23" viewBox="0 0 16 23" fill="none" xmlns="http://www.w3.org/2000/svg">
<path d="M13.7288 1.63568L2.18202 1.71342C1.54431 1.71771 1.03087 2.24561 1.03523 2.89252L1.15351 20.4625C1.15787 21.1094 1.67836 21.6303 2.31607 21.626L13.8628 21.5483C14.5005 21.544 15.014 21.0161 15.0096 20.3692L14.8913 2.79924C14.887 2.15233 14.3665 1.63139 13.7288 1.63568Z" stroke="black" stroke-width="2"/>
<path d="M8.01499 10.4596L5.12831 10.479C4.82207 10.4811 4.5292 10.6065 4.31414 10.8276C4.09907 11.0487 3.97943 11.3475 3.98152 11.6581L4.00123 14.5865M8.01499 10.4596L10.9017 10.4402C11.2079 10.4381 11.5024 10.5595 11.7205 10.7778C11.9385 10.996 12.0622 11.2931 12.0642 11.6037L12.084 14.5321M8.01499 10.4596L8.07019 18.6589M4.00123 14.5865L4.02095 17.5148C4.02304 17.8254 4.1467 18.1226 4.36472 18.3408C4.58274 18.559 4.87727 18.6804 5.18351 18.6783L8.07019 18.6589M4.00123 14.5865L12.084 14.5321M12.084 14.5321L12.1037 17.4604C12.1058 17.771 11.9861 18.0698 11.771 18.2909C11.556 18.512 11.2631 18.6374 10.9569 18.6395L8.07019 18.6589" stroke="black" stroke-width="1.5" stroke-linecap="round"/>
<path d="M4.51328 4.91896L11.4413 4.87231C11.5179 4.8718 11.5915 4.90216 11.646 4.95671C11.7005 5.01126 11.7314 5.08554 11.732 5.1632L11.7477 7.50586C11.7483 7.58353 11.7183 7.65821 11.6646 7.71349C11.6108 7.76878 11.5376 7.80012 11.461 7.80064L4.53299 7.84728C4.45643 7.84779 4.3828 7.81744 4.32829 7.76288C4.27379 7.70833 4.24287 7.63405 4.24235 7.55639L4.22658 5.21373C4.22606 5.13607 4.25597 5.06138 4.30974 5.0061C4.3635 4.95082 4.43672 4.91947 4.51328 4.91896Z" stroke="black" stroke-width="1.5"/>
</svg>
