<svg width="19" height="21" viewBox="0 0 19 21" fill="none" xmlns="http://www.w3.org/2000/svg">
<path d="M13.7933 5.40343C13.8011 6.57127 13.347 7.69439 12.5308 8.52571C11.7146 9.35703 10.6032 9.82846 9.4411 9.83628C8.27897 9.84411 7.16132 9.38769 6.33401 8.56743C5.5067 7.74717 5.03751 6.63027 5.02964 5.46243C5.02178 4.29459 5.4759 3.17147 6.29209 2.34015C7.10828 1.50883 8.21968 1.03741 9.38181 1.02958C10.5439 1.02176 11.6616 1.47818 12.4889 2.29844C13.3162 3.11869 13.7854 4.23559 13.7933 5.40343Z" fill="black"/>
<path d="M17.1339 19.8912L1.68551 19.9952C1.15395 19.9988 0.849028 19.2933 1.17753 18.7873C2.6368 16.5362 5.91658 12.0241 9.5 12C13.1059 11.9757 16.3613 16.5048 17.651 18.7213C17.9453 19.2279 17.6456 19.8878 17.1352 19.8912L17.1339 19.8912Z" fill="black" stroke="black" stroke-width="2" stroke-linecap="round" stroke-linejoin="round"/>
</svg>
