<svg width="23" height="21" viewBox="0 0 23 21" fill="none" xmlns="http://www.w3.org/2000/svg">
<path d="M1.58165 7.91349L17.4172 7.80688M1.62522 14.3851L8.93393 14.3359M1.53809 1.44189L13.7193 1.35989" stroke="black" stroke-width="2" stroke-linecap="round"/>
<mask id="path-2-inside-1_1104_1750" fill="white">
<path d="M21.6859 20.0973C21.7714 20.1792 21.8854 20.2241 22.0034 20.2222C22.1214 20.2204 22.234 20.172 22.3169 20.0875C22.3998 20.003 22.4463 19.8891 22.4466 19.7704C22.4468 19.6516 22.4006 19.5376 22.3181 19.4527L21.6859 20.0973ZM19.7148 14.3564C19.7204 15.1971 19.3939 16.0055 18.807 16.6039C18.2201 17.2023 17.4209 17.5417 16.5852 17.5473L16.5913 18.4529C17.6658 18.4457 18.6933 18.0094 19.4479 17.24C20.2025 16.4706 20.6223 15.4312 20.615 14.3504L19.7148 14.3564ZM16.5852 17.5473C15.7496 17.5529 14.9459 17.2244 14.351 16.6339C13.7561 16.0435 13.4187 15.2395 13.413 14.3988L12.5128 14.4049C12.5201 15.4857 12.9539 16.5194 13.7187 17.2786C14.4836 18.0377 15.5169 18.4602 16.5913 18.4529L16.5852 17.5473ZM13.413 14.3988C13.4074 13.5582 13.7339 12.7497 14.3208 12.1513C14.9077 11.5529 15.7069 11.2136 16.5426 11.2079L16.5365 10.3023C15.462 10.3096 14.4345 10.7458 13.6799 11.5152C12.9253 12.2846 12.5055 13.3241 12.5128 14.4049L13.413 14.3988ZM16.5426 11.2079C17.3782 11.2023 18.1819 11.5309 18.7768 12.1213C19.3717 12.7118 19.7091 13.5158 19.7148 14.3564L20.615 14.3504C20.6078 13.2695 20.174 12.2358 19.4091 11.4767C18.6442 10.7175 17.6109 10.2951 16.5365 10.3023L16.5426 11.2079ZM18.7403 17.1737L21.6859 20.0973L22.3181 19.4527L19.3724 16.5291L18.7403 17.1737Z"/>
</mask>
<path d="M21.6859 20.0973C21.7714 20.1792 21.8854 20.2241 22.0034 20.2222C22.1214 20.2204 22.234 20.172 22.3169 20.0875C22.3998 20.003 22.4463 19.8891 22.4466 19.7704C22.4468 19.6516 22.4006 19.5376 22.3181 19.4527L21.6859 20.0973ZM19.7148 14.3564C19.7204 15.1971 19.3939 16.0055 18.807 16.6039C18.2201 17.2023 17.4209 17.5417 16.5852 17.5473L16.5913 18.4529C17.6658 18.4457 18.6933 18.0094 19.4479 17.24C20.2025 16.4706 20.6223 15.4312 20.615 14.3504L19.7148 14.3564ZM16.5852 17.5473C15.7496 17.5529 14.9459 17.2244 14.351 16.6339C13.7561 16.0435 13.4187 15.2395 13.413 14.3988L12.5128 14.4049C12.5201 15.4857 12.9539 16.5194 13.7187 17.2786C14.4836 18.0377 15.5169 18.4602 16.5913 18.4529L16.5852 17.5473ZM13.413 14.3988C13.4074 13.5582 13.7339 12.7497 14.3208 12.1513C14.9077 11.5529 15.7069 11.2136 16.5426 11.2079L16.5365 10.3023C15.462 10.3096 14.4345 10.7458 13.6799 11.5152C12.9253 12.2846 12.5055 13.3241 12.5128 14.4049L13.413 14.3988ZM16.5426 11.2079C17.3782 11.2023 18.1819 11.5309 18.7768 12.1213C19.3717 12.7118 19.7091 13.5158 19.7148 14.3564L20.615 14.3504C20.6078 13.2695 20.174 12.2358 19.4091 11.4767C18.6442 10.7175 17.6109 10.2951 16.5365 10.3023L16.5426 11.2079ZM18.7403 17.1737L21.6859 20.0973L22.3181 19.4527L19.3724 16.5291L18.7403 17.1737Z" fill="black"/>
<path d="M18.7484 15.9517L18.1162 16.5962L25.2556 23.5983L25.8878 22.9538L18.7484 15.9517ZM11.5854 17.581L11.5915 18.4866L21.5912 18.4193L21.5851 17.5136L11.5854 17.581ZM20.5814 9.35046L19.6811 9.35653L19.7484 19.3563L20.6487 19.3502L20.5814 9.35046ZM13.3794 9.39895L12.4791 9.40501L12.5464 19.4048L13.4467 19.3987L13.3794 9.39895ZM21.5425 11.1743L21.5364 10.2687L11.5366 10.336L11.5427 11.2416L21.5425 11.1743ZM21.6859 20.0973L14.6414 27.1949L14.7031 27.2561L14.7659 27.3162L21.6859 20.0973ZM22.3181 19.4527L29.4848 12.4786L29.4242 12.4164L29.3625 12.3551L22.3181 19.4527ZM16.5913 18.4529L16.6587 28.4527L16.5913 18.4529ZM20.615 14.3504L30.6148 14.283L20.615 14.3504ZM13.413 14.3988L3.41326 14.4662L13.413 14.3988ZM12.5128 14.4049L2.51301 14.4722L12.5128 14.4049ZM16.5426 11.2079L16.4753 1.20817L16.5426 11.2079ZM16.5365 10.3023L16.4692 0.302544L16.5365 10.3023ZM18.7403 17.1737L11.6009 10.1716L4.64036 17.2686L11.6958 24.2713L18.7403 17.1737ZM19.3724 16.5291L26.4169 9.43156L19.277 2.34505L12.2331 9.52705L19.3724 16.5291ZM14.7659 27.3162C16.7456 29.214 19.3993 30.2637 22.1581 30.221L21.8486 10.2234C24.3714 10.1844 26.7971 11.1444 28.6059 12.8783L14.7659 27.3162ZM22.1581 30.221C24.9168 30.1784 27.5365 29.047 29.4562 27.0896L15.1775 13.0854C16.9315 11.297 19.3259 10.2625 21.8486 10.2234L22.1581 30.221ZM29.4562 27.0896C31.3741 25.1341 32.4413 22.5114 32.4465 19.7894L12.4466 19.7513C12.4513 17.2668 13.4254 14.8719 15.1775 13.0854L29.4562 27.0896ZM32.4465 19.7894C32.4517 17.0675 31.3946 14.4411 29.4848 12.4786L15.1513 26.4268C13.4067 24.634 12.4418 22.2358 12.4466 19.7513L32.4465 19.7894ZM9.71501 14.4237C9.70294 12.6314 10.3985 10.8958 11.6676 9.60184L25.9464 23.606C28.3893 21.1152 29.7379 17.7627 29.7146 14.2891L9.71501 14.4237ZM11.6676 9.60184C12.9387 8.30581 14.6822 7.55989 16.5179 7.54753L16.6526 27.5471C20.1596 27.5235 23.5015 26.0989 25.9464 23.606L11.6676 9.60184ZM16.6587 28.4527C20.4045 28.4275 23.9747 26.9059 26.5873 24.2421L12.3085 10.2379C13.4119 9.11287 14.9271 8.46391 16.524 8.45316L16.6587 28.4527ZM26.5873 24.2421C29.1979 21.5803 30.6398 17.9968 30.6148 14.283L10.6153 14.4177C10.6048 12.8655 11.2071 11.361 12.3085 10.2379L26.5873 24.2421ZM16.5179 7.54753C18.3536 7.53517 20.107 8.25755 21.3955 9.53635L7.30654 23.7315C9.78479 26.1912 13.1455 27.5707 16.6526 27.5471L16.5179 7.54753ZM21.3955 9.53635C22.6819 10.8132 23.4007 12.5392 23.4128 14.3315L3.41326 14.4662C3.43665 17.9398 4.83029 21.2738 7.30654 23.7315L21.3955 9.53635ZM2.51301 14.4722C2.53802 18.186 4.02806 21.7498 6.67427 24.3762L20.7632 10.181C21.8796 11.2891 22.5021 12.7855 22.5126 14.3376L2.51301 14.4722ZM6.67427 24.3762C9.3225 27.0046 12.9129 28.4779 16.6587 28.4527L16.524 8.45316C18.121 8.44241 19.6447 9.07091 20.7632 10.181L6.67427 24.3762ZM23.4128 14.3315C23.4249 16.1238 22.7293 17.8594 21.4602 19.1534L7.18144 5.14923C4.73851 7.64005 3.38988 10.9925 3.41326 14.4662L23.4128 14.3315ZM21.4602 19.1534C20.1891 20.4494 18.4456 21.1954 16.6099 21.2077L16.4753 1.20817C12.9682 1.23178 9.62635 2.65638 7.18144 5.14923L21.4602 19.1534ZM16.4692 0.302544C12.7234 0.327761 9.15315 1.84932 6.54055 4.51314L20.8193 18.5173C19.7159 19.6424 18.2007 20.2913 16.6038 20.3021L16.4692 0.302544ZM6.54055 4.51314C3.92994 7.17494 2.48801 10.7584 2.51301 14.4722L22.5126 14.3376C22.523 15.8897 21.9208 17.3943 20.8193 18.5173L6.54055 4.51314ZM16.6099 21.2077C14.7742 21.2201 13.0208 20.4977 11.7324 19.2189L25.8213 5.02374C23.343 2.56404 19.9823 1.18456 16.4753 1.20817L16.6099 21.2077ZM11.7324 19.2189C10.4459 17.9421 9.72707 16.216 9.71501 14.4237L29.7146 14.2891C29.6912 10.8155 28.2975 7.48145 25.8213 5.02374L11.7324 19.2189ZM30.6148 14.283C30.5898 10.5692 29.0998 7.00549 26.4535 4.37909L12.3646 18.5742C11.2482 17.4661 10.6257 15.9698 10.6153 14.4177L30.6148 14.283ZM26.4535 4.37909C23.8053 1.75068 20.215 0.277327 16.4692 0.302544L16.6038 20.3021C15.0068 20.3128 13.4831 19.6843 12.3646 18.5742L26.4535 4.37909ZM11.6958 24.2713L14.6414 27.1949L28.7304 12.9997L25.7847 10.0761L11.6958 24.2713ZM29.3625 12.3551L26.4169 9.43156L12.328 23.6267L15.2736 26.5503L29.3625 12.3551ZM12.2331 9.52705L11.6009 10.1716L25.8797 24.1758L26.5118 23.5312L12.2331 9.52705Z" fill="black" mask="url(#path-2-inside-1_1104_1750)"/>
</svg>
