<svg width="19" height="22" viewBox="0 0 19 22" fill="none" xmlns="http://www.w3.org/2000/svg">
<path d="M5.55862 4.66528L2.52498 4.6857C2.37499 4.68671 2.23155 4.74996 2.12624 4.86154C2.02092 4.97312 1.96235 5.12388 1.9634 5.28066L2.05892 19.4684C2.05997 19.6252 2.12057 19.7751 2.22738 19.8853C2.33419 19.9954 2.47846 20.0567 2.62845 20.0557L17.3329 19.9567C17.4829 19.9557 17.6263 19.8925 17.7316 19.7809C17.8369 19.6693 17.8955 19.5186 17.8945 19.3618L17.7989 5.17406C17.7979 5.01727 17.7373 4.86731 17.6305 4.75716C17.5237 4.64701 17.3794 4.5857 17.2294 4.58671L14.1958 4.60713M9.85332 1.08927L9.94087 14.0947M9.94087 14.0947L13.3103 10.5249M9.94087 14.0947L6.52366 10.5706" stroke="black" stroke-width="2" stroke-linecap="round" stroke-linejoin="round"/>
<path d="M2.05469 18.8774L17.8902 18.7708" stroke="black" stroke-width="1.5" stroke-linecap="round"/>
</svg>
